<?xml version="1.0" encoding="UTF-8"?>
<svg version="1.1" xmlns="http://www.w3.org/2000/svg" width="664" height="194">
<path d="M0 0 C219.12 0 438.24 0 664 0 C664 64.02 664 128.04 664 194 C444.88 194 225.76 194 0 194 C0 129.98 0 65.96 0 0 Z " fill="#FBFCFC" transform="translate(0,0)"/>
<path d="M0 0 C1.33514648 -0.01836914 1.33514648 -0.01836914 2.69726562 -0.03710938 C8.59477731 -0.05003307 13.87331416 0.66262529 19.5625 2.1875 C20.78710938 2.496875 22.01171875 2.80625 23.2734375 3.125 C39.53315996 7.83997282 54.06744044 16.03694095 67.5625 26.1875 C68.49811768 26.88721924 68.49811768 26.88721924 69.45263672 27.60107422 C71.41543823 29.07619914 73.36637259 30.56545987 75.3125 32.0625 C75.92198486 32.52712646 76.53146973 32.99175293 77.15942383 33.47045898 C81.44457045 36.83371136 81.44457045 36.83371136 82.5625 40.1875 C81.36625 40.579375 80.17 40.97125 78.9375 41.375 C78.12667969 41.64957031 77.31585938 41.92414063 76.48046875 42.20703125 C74.3227873 42.93203533 72.15745229 43.63435124 69.98828125 44.32421875 C68.75464844 44.73285156 67.52101563 45.14148438 66.25 45.5625 C65.07824219 45.94148438 63.90648437 46.32046875 62.69921875 46.7109375 C59.10746195 48.40170222 57.60545061 49.80232098 55.5625 53.1875 C54.7828639 56.9297533 54.89630558 60.42745355 55.5625 64.1875 C58.08820633 67.60061667 59.56163304 68.85387768 63.5625 70.1875 C63.08207055 74.64309571 61.76162356 76.32589809 58.4375 79.25 C53.80291854 83.61890481 50.98125278 88.24686961 48.0703125 93.87890625 C47.57273437 94.64074219 47.07515625 95.40257812 46.5625 96.1875 C45.5725 96.1875 44.5825 96.1875 43.5625 96.1875 C42.00272936 93.06795872 42.44145874 89.75790616 42.46484375 86.3359375 C42.46696617 85.17488998 42.46696617 85.17488998 42.46913147 83.99038696 C42.47473597 81.51438558 42.48728917 79.03847412 42.5 76.5625 C42.50501442 74.88541797 42.50957743 73.20833453 42.51367188 71.53125 C42.52470685 67.41663194 42.54197446 63.30208122 42.5625 59.1875 C40.48025348 60.6089042 38.39835906 62.03081992 36.31689453 63.45336914 C34.55025802 64.66048874 32.78299548 65.8666926 31.01513672 67.07202148 C29.70826904 67.96449585 29.70826904 67.96449585 28.375 68.875 C27.57191406 69.42285156 26.76882813 69.97070312 25.94140625 70.53515625 C23.49390735 72.23514317 21.08878153 73.9855039 18.6875 75.75 C5.44312962 85.08657912 -10.07922413 94.34138715 -25.6875 98.9375 C-26.35523438 99.14503906 -27.02296875 99.35257812 -27.7109375 99.56640625 C-37.62721719 102.58017753 -48.9098397 104.52184668 -58.45703125 99.49609375 C-61.97211679 97.17350271 -64.61325589 95.05627429 -66.4375 91.1875 C-67.36424152 85.77073172 -67.33261249 81.0523177 -64.9375 76.0625 C-61.58109785 73.54519838 -58.64828328 72.36000881 -54.4375 72.1875 C-50.96758752 72.90447997 -48.28753182 74.19579621 -45.9375 76.9375 C-45.18576853 80.3202916 -45.60054236 82.83966944 -46.4375 86.1875 C-48.1875 88.6875 -48.1875 88.6875 -50.4375 90.1875 C-53.0625 90.125 -53.0625 90.125 -55.4375 89.1875 C-57.4375 86.1875 -57.4375 86.1875 -57.4375 82.1875 C-58.0975 82.1875 -58.7575 82.1875 -59.4375 82.1875 C-58.44991605 87.29036219 -58.44991605 87.29036219 -55.125 91.0625 C-43.86732294 95.77501598 -33.47644055 92.24107092 -22.6875 88 C-12.46432378 83.62616688 -3.22057752 77.97893389 5.5625 71.1875 C4.97984375 71.15309814 4.3971875 71.11869629 3.796875 71.08325195 C-20.52361506 69.54171146 -37.96435785 62.86571511 -58.0534668 49.12524414 C-59.35344604 48.23760376 -59.35344604 48.23760376 -60.6796875 47.33203125 C-61.83766846 46.53309448 -61.83766846 46.53309448 -63.01904297 45.71801758 C-68.15972003 42.46474638 -71.93789673 40.81927517 -78.078125 40.74609375 C-79.93050781 40.70645508 -79.93050781 40.70645508 -81.8203125 40.66601562 C-83.09648437 40.65248047 -84.37265625 40.63894531 -85.6875 40.625 C-88.23450628 40.59068405 -90.78141952 40.54814905 -93.328125 40.49609375 C-94.45250977 40.48376709 -95.57689453 40.47144043 -96.73535156 40.45874023 C-99.4375 40.1875 -99.4375 40.1875 -101.4375 38.1875 C-101.6328125 35.3671875 -101.6328125 35.3671875 -101.5625 32.0625 C-101.54445312 30.96679688 -101.52640625 29.87109375 -101.5078125 28.7421875 C-101.48460937 27.89914063 -101.46140625 27.05609375 -101.4375 26.1875 C-100.138125 26.3525 -98.83875 26.5175 -97.5 26.6875 C-81.4614087 28.41127383 -69.43981128 24.78384591 -55.4375 17.1875 C-34.48584996 5.91636745 -34.48584996 5.91636745 -25.4375 3.1875 C-23.6121875 2.5996875 -23.6121875 2.5996875 -21.75 2 C-14.52673436 0.2282556 -7.40026987 0.00533545 0 0 Z " fill="#12162B" transform="translate(265.4375,43.8125)"/>
<path d="M0 0 C9.24 0 18.48 0 28 0 C28 14.85 28 29.7 28 45 C42.52 45 57.04 45 72 45 C72 30.15 72 15.3 72 0 C80.91 0 89.82 0 99 0 C99 36.96 99 73.92 99 112 C90.09 112 81.18 112 72 112 C72 97.15 72 82.3 72 67 C57.48 67 42.96 67 28 67 C28 81.85 28 96.7 28 112 C18.76 112 9.52 112 0 112 C0 75.04 0 38.08 0 0 Z " fill="#243E5D" transform="translate(43,14)"/>
<path d="M0 0 C8.91 0 17.82 0 27 0 C27.04898437 3.5165625 27.09796875 7.033125 27.1484375 10.65625 C27.20251461 14.07849218 27.2597957 17.50066686 27.31738281 20.92285156 C27.35556274 23.29324269 27.3904344 25.66368959 27.421875 28.03417969 C27.4677644 31.45007193 27.52571962 34.86558389 27.5859375 38.28125 C27.59748871 39.33364868 27.60903992 40.38604736 27.62094116 41.47033691 C27.72347452 51.58224606 27.72347452 51.58224606 31.9375 60.5 C37.31647406 63.13459954 42.86988284 62.54316739 48.65625 61.5390625 C52.44536589 59.0508764 53.01449578 55.29036216 54 51 C54.43029108 46.9860663 54.48760398 42.99953481 54.51171875 38.96484375 C54.52966995 37.84557999 54.54762115 36.72631622 54.56611633 35.57313538 C54.61993176 32.02796094 54.65402311 28.48291891 54.6875 24.9375 C54.7206984 22.52146606 54.75519037 20.10544954 54.79101562 17.68945312 C54.87805631 11.7929527 54.93837329 5.89703883 55 0 C63.58 0 72.16 0 81 0 C81 27.72 81 55.44 81 84 C72.75 84 64.5 84 56 84 C55.67 79.38 55.34 74.76 55 70 C54.175 71.381875 53.35 72.76375 52.5 74.1875 C48.76509311 79.82091063 44.36996666 82.87667778 38 85 C27.07566521 85.81611893 17.92115193 85.94103237 9.20703125 78.4609375 C3.12504541 72.12365843 -0.13166521 62.80430399 -0.11352539 54.15161133 C-0.11344986 52.9505928 -0.11337433 51.74957428 -0.11329651 50.51216125 C-0.10813522 49.21521835 -0.10297394 47.91827545 -0.09765625 46.58203125 C-0.09579077 45.24110466 -0.09436748 43.90017739 -0.09336853 42.55924988 C-0.08955356 39.03290927 -0.07973199 35.50660996 -0.06866455 31.98028564 C-0.0584285 28.38074309 -0.0538114 24.78119365 -0.04882812 21.18164062 C-0.03863969 14.1210573 -0.01906549 7.06058732 0 0 Z " fill="#396191" transform="translate(449,42)"/>
<path d="M0 0 C6.3252364 5.33799442 8.81042874 11.884122 10.0625 19.875 C5.97970499 20.04921117 1.89786319 20.15582588 -2.1875 20.25 C-3.34636719 20.30027344 -4.50523437 20.35054687 -5.69921875 20.40234375 C-8.88524693 20.45759279 -11.80217406 20.45074733 -14.9375 19.875 C-17.625 16.9375 -17.625 16.9375 -18.9375 13.875 C-22.43787115 11.12470838 -26.67838041 11.46410164 -30.9375 11.875 C-33.34899534 12.40180501 -35.58996437 13.09248812 -37.9375 13.875 C-38.35964981 17.95020943 -38.35964981 17.95020943 -36.6875 21.48046875 C-31.93204071 25.26997537 -24.95001747 25.90908929 -19.12548828 26.8972168 C-8.26849661 28.75382662 1.58579435 30.90053145 8.7578125 39.91015625 C12.30722803 45.25553354 12.81886505 49.51593086 12.0625 55.875 C9.37721498 64.94690886 4.12826665 70.95621171 -4.01171875 75.55078125 C-16.66657225 81.27841187 -32.65406826 81.75016655 -45.9375 77.875 C-55.33074795 74.13951388 -61.52103394 69.56282615 -65.95703125 60.375 C-66.93658898 57.87732292 -67.49876423 55.51684978 -67.9375 52.875 C-63.61505724 52.54432132 -59.29247897 52.24695816 -54.96484375 51.99511719 C-53.1009215 51.88468249 -51.23789111 51.75945641 -49.375 51.6328125 C-48.323125 51.58898437 -47.27125 51.54515625 -46.1875 51.5 C-45.24390625 51.45101562 -44.3003125 51.40203125 -43.328125 51.3515625 C-40.9375 51.875 -40.9375 51.875 -39.359375 54.2109375 C-38.89015625 55.09007812 -38.4209375 55.96921875 -37.9375 56.875 C-35.50894498 59.32485814 -34.3104578 59.83544387 -30.84375 60.203125 C-29.7196875 60.17734375 -28.595625 60.1515625 -27.4375 60.125 C-26.3134375 60.10953125 -25.189375 60.0940625 -24.03125 60.078125 C-21.49792012 59.91179526 -19.35330507 59.60921527 -16.9375 58.875 C-16.9375 56.235 -16.9375 53.595 -16.9375 50.875 C-24.65307238 47.54810182 -32.43236919 45.83066536 -40.67871094 44.44628906 C-48.27815171 43.08381577 -55.38235301 40.43014699 -60.9375 34.875 C-64.82918282 28.39324449 -66.81128048 22.4637236 -65.9375 14.875 C-63.04541602 5.61433731 -58.38669213 0.80887835 -49.984375 -3.79296875 C-34.69515581 -10.47710175 -13.75532857 -9.47639086 0 0 Z " fill="#406CA1" transform="translate(628.9375,48.125)"/>
<path d="M0 0 C1.33514648 -0.01836914 1.33514648 -0.01836914 2.69726562 -0.03710938 C8.59477731 -0.05003307 13.87331416 0.66262529 19.5625 2.1875 C20.78710938 2.496875 22.01171875 2.80625 23.2734375 3.125 C39.53315996 7.83997282 54.06744044 16.03694095 67.5625 26.1875 C68.49811768 26.88721924 68.49811768 26.88721924 69.45263672 27.60107422 C71.41543823 29.07619914 73.36637259 30.56545987 75.3125 32.0625 C75.92198486 32.52712646 76.53146973 32.99175293 77.15942383 33.47045898 C81.44457045 36.83371136 81.44457045 36.83371136 82.5625 40.1875 C81.36625 40.579375 80.17 40.97125 78.9375 41.375 C78.12667969 41.64957031 77.31585938 41.92414063 76.48046875 42.20703125 C74.3227873 42.93203533 72.15745229 43.63435124 69.98828125 44.32421875 C68.75464844 44.73285156 67.52101563 45.14148438 66.25 45.5625 C65.07824219 45.94148438 63.90648437 46.32046875 62.69921875 46.7109375 C59.10746195 48.40170222 57.60545061 49.80232098 55.5625 53.1875 C54.7828639 56.9297533 54.89630558 60.42745355 55.5625 64.1875 C58.08820633 67.60061667 59.56163304 68.85387768 63.5625 70.1875 C63.08207055 74.64309571 61.76162356 76.32589809 58.4375 79.25 C53.80291854 83.61890481 50.98125278 88.24686961 48.0703125 93.87890625 C47.57273437 94.64074219 47.07515625 95.40257812 46.5625 96.1875 C45.5725 96.1875 44.5825 96.1875 43.5625 96.1875 C42.00272936 93.06795872 42.44145874 89.75790616 42.46484375 86.3359375 C42.46696617 85.17488998 42.46696617 85.17488998 42.46913147 83.99038696 C42.47473597 81.51438558 42.48728917 79.03847412 42.5 76.5625 C42.50501442 74.88541797 42.50957743 73.20833453 42.51367188 71.53125 C42.52470685 67.41663194 42.54197446 63.30208122 42.5625 59.1875 C40.48025348 60.6089042 38.39835906 62.03081992 36.31689453 63.45336914 C34.55025802 64.66048874 32.78299548 65.8666926 31.01513672 67.07202148 C29.70826904 67.96449585 29.70826904 67.96449585 28.375 68.875 C27.57191406 69.42285156 26.76882813 69.97070312 25.94140625 70.53515625 C23.49390735 72.23514317 21.08878153 73.9855039 18.6875 75.75 C5.44312962 85.08657912 -10.07922413 94.34138715 -25.6875 98.9375 C-26.35523438 99.14503906 -27.02296875 99.35257812 -27.7109375 99.56640625 C-37.62721719 102.58017753 -48.9098397 104.52184668 -58.45703125 99.49609375 C-61.97211679 97.17350271 -64.61325589 95.05627429 -66.4375 91.1875 C-67.36424152 85.77073172 -67.33261249 81.0523177 -64.9375 76.0625 C-61.58109785 73.54519838 -58.64828328 72.36000881 -54.4375 72.1875 C-50.96758752 72.90447997 -48.28753182 74.19579621 -45.9375 76.9375 C-45.18576853 80.3202916 -45.60054236 82.83966944 -46.4375 86.1875 C-48.1875 88.6875 -48.1875 88.6875 -50.4375 90.1875 C-53.0625 90.125 -53.0625 90.125 -55.4375 89.1875 C-57.4375 86.1875 -57.4375 86.1875 -57.4375 82.1875 C-58.0975 82.1875 -58.7575 82.1875 -59.4375 82.1875 C-58.44991605 87.29036219 -58.44991605 87.29036219 -55.125 91.0625 C-43.86732294 95.77501598 -33.47644055 92.24107092 -22.6875 88 C-12.46432378 83.62616688 -3.22057752 77.97893389 5.5625 71.1875 C4.97984375 71.15309814 4.3971875 71.11869629 3.796875 71.08325195 C-20.52361506 69.54171146 -37.96435785 62.86571511 -58.0534668 49.12524414 C-59.35344604 48.23760376 -59.35344604 48.23760376 -60.6796875 47.33203125 C-61.83766846 46.53309448 -61.83766846 46.53309448 -63.01904297 45.71801758 C-68.15972003 42.46474638 -71.93789673 40.81927517 -78.078125 40.74609375 C-79.93050781 40.70645508 -79.93050781 40.70645508 -81.8203125 40.66601562 C-83.09648437 40.65248047 -84.37265625 40.63894531 -85.6875 40.625 C-88.23450628 40.59068405 -90.78141952 40.54814905 -93.328125 40.49609375 C-94.45250977 40.48376709 -95.57689453 40.47144043 -96.73535156 40.45874023 C-99.4375 40.1875 -99.4375 40.1875 -101.4375 38.1875 C-101.6328125 35.3671875 -101.6328125 35.3671875 -101.5625 32.0625 C-101.54445312 30.96679688 -101.52640625 29.87109375 -101.5078125 28.7421875 C-101.48460937 27.89914063 -101.46140625 27.05609375 -101.4375 26.1875 C-100.138125 26.3525 -98.83875 26.5175 -97.5 26.6875 C-81.4614087 28.41127383 -69.43981128 24.78384591 -55.4375 17.1875 C-34.48584996 5.91636745 -34.48584996 5.91636745 -25.4375 3.1875 C-23.6121875 2.5996875 -23.6121875 2.5996875 -21.75 2 C-14.52673436 0.2282556 -7.40026987 0.00533545 0 0 Z M-57.13916016 26.671875 C-58.75502175 27.73744424 -60.38066057 28.78826199 -62.01318359 29.828125 C-62.8377002 30.35921875 -63.6622168 30.8903125 -64.51171875 31.4375 C-65.26412842 31.91703125 -66.01653809 32.3965625 -66.79174805 32.890625 C-67.33484619 33.31859375 -67.87794434 33.7465625 -68.4375 34.1875 C-68.4375 34.8475 -68.4375 35.5075 -68.4375 36.1875 C-66.23514679 37.67049972 -66.23514679 37.67049972 -63.375 39.1875 C-59.10889298 41.58812294 -55.05219284 44.09604555 -51.04052734 46.89819336 C-31.29442092 60.63721681 -9.82712532 66.11295117 14.18652344 62.82861328 C28.48751979 60.14826781 41.24159867 52.97974143 53.0625 44.75 C57.90296795 41.3870782 61.73606267 39.96435831 67.5625 39.1875 C67.91280998 36.14097866 67.91280998 36.14097866 65.8671875 34.4609375 C51.2492284 23.03918811 35.55363135 13.27614439 17.5625 8.1875 C15.70238281 7.65189453 15.70238281 7.65189453 13.8046875 7.10546875 C-11.95361158 0.81027906 -36.27804093 12.87639916 -57.13916016 26.671875 Z " fill="#907445" transform="translate(265.4375,43.8125)"/>
<path d="M0 0 C3.09375 0.061875 3.09375 0.061875 6.25 0.125 C6.25 7.715 6.25 15.305 6.25 23.125 C-1.4375 23.4375 -1.4375 23.4375 -3.83081055 23.51293945 C-8.28932392 23.74463107 -10.9938281 24.52564542 -14.75 27.125 C-15.41 27.125 -16.07 27.125 -16.75 27.125 C-18.55399751 31.57486053 -19.87028703 35.23270733 -19.95532227 40.05541992 C-19.97526749 41.05623093 -19.99521271 42.05704193 -20.01576233 43.08818054 C-20.03247482 44.16638565 -20.04918732 45.24459076 -20.06640625 46.35546875 C-20.08718735 47.46102615 -20.10796844 48.56658356 -20.12937927 49.7056427 C-20.19482332 53.2411979 -20.25373603 56.77682806 -20.3125 60.3125 C-20.3556901 62.70769008 -20.39930454 65.10287255 -20.44335938 67.49804688 C-20.55129889 73.37362217 -20.65041108 79.24925344 -20.75 85.125 C-29.66 85.125 -38.57 85.125 -47.75 85.125 C-47.75 57.405 -47.75 29.685 -47.75 1.125 C-39.17 1.125 -30.59 1.125 -21.75 1.125 C-21.255 8.055 -21.255 8.055 -20.75 15.125 C-20.21375 13.908125 -19.6775 12.69125 -19.125 11.4375 C-15.1053097 3.38386518 -8.88392237 -0.17767845 0 0 Z " fill="#345884" transform="translate(414.75,40.875)"/>
<path d="M0 0 C1.33514648 -0.01836914 1.33514648 -0.01836914 2.69726562 -0.03710938 C8.59285443 -0.05002885 13.87780025 0.64738799 19.5625 2.1875 C20.21984131 2.35918701 20.87718262 2.53087402 21.55444336 2.70776367 C32.10371149 5.56494053 43.79465809 9.13915269 51.5625 17.1875 C52.93479925 18.1189842 54.33190337 19.01484303 55.75 19.875 C56.46542969 20.31199219 57.18085938 20.74898437 57.91796875 21.19921875 C58.46066406 21.52535156 59.00335938 21.85148437 59.5625 22.1875 C57.5825 23.6725 57.5825 23.6725 55.5625 25.1875 C57.2125 26.8375 58.8625 28.4875 60.5625 30.1875 C56.98739911 28.89770879 54.2627677 27.36354816 51.25 25.0625 C41.10766197 17.82229148 29.55602776 12.51537446 17.5625 9.1875 C15.70625 8.65382813 15.70625 8.65382813 13.8125 8.109375 C-6.27515065 3.19159248 -28.09123378 9.67200374 -45.2890625 20.06640625 C-51.44559358 23.88367937 -57.53753856 27.7715037 -63.37890625 32.05859375 C-66.4375 34.1875 -66.4375 34.1875 -68.4375 34.1875 C-68.4375 34.8475 -68.4375 35.5075 -68.4375 36.1875 C-67.62023437 36.40148437 -66.80296875 36.61546875 -65.9609375 36.8359375 C-61.48506222 38.55284753 -57.96745204 41.07005231 -54.0625 43.8125 C-35.27783787 56.61088344 -17.53490722 63.43588069 5.5 63.25 C6.56541016 63.24548828 7.63082031 63.24097656 8.72851562 63.23632812 C11.33990291 63.22461787 13.95117124 63.20821724 16.5625 63.1875 C15.9025 64.8375 15.2425 66.4875 14.5625 68.1875 C-19.13924753 70.41290741 -19.13924753 70.41290741 -32.4375 64.1875 C-33.38625 63.79820313 -34.335 63.40890625 -35.3125 63.0078125 C-43.45360561 59.36692916 -50.71590434 54.14396171 -58.0534668 49.12524414 C-59.35344604 48.23760376 -59.35344604 48.23760376 -60.6796875 47.33203125 C-61.83766846 46.53309448 -61.83766846 46.53309448 -63.01904297 45.71801758 C-68.15972003 42.46474638 -71.93789673 40.81927517 -78.078125 40.74609375 C-79.93050781 40.70645508 -79.93050781 40.70645508 -81.8203125 40.66601562 C-83.09648437 40.65248047 -84.37265625 40.63894531 -85.6875 40.625 C-88.23450628 40.59068405 -90.78141952 40.54814905 -93.328125 40.49609375 C-94.45250977 40.48376709 -95.57689453 40.47144043 -96.73535156 40.45874023 C-99.4375 40.1875 -99.4375 40.1875 -101.4375 38.1875 C-101.6328125 35.3671875 -101.6328125 35.3671875 -101.5625 32.0625 C-101.54445312 30.96679688 -101.52640625 29.87109375 -101.5078125 28.7421875 C-101.48460937 27.89914063 -101.46140625 27.05609375 -101.4375 26.1875 C-100.138125 26.3525 -98.83875 26.5175 -97.5 26.6875 C-81.4614087 28.41127383 -69.43981128 24.78384591 -55.4375 17.1875 C-34.48584996 5.91636745 -34.48584996 5.91636745 -25.4375 3.1875 C-23.6121875 2.5996875 -23.6121875 2.5996875 -21.75 2 C-14.52673436 0.2282556 -7.40026987 0.00533545 0 0 Z " fill="#A27D40" transform="translate(265.4375,43.8125)"/>
<path d="M0 0 C0.74248993 -0.01248276 1.48497986 -0.02496552 2.24996948 -0.03782654 C17.94045552 -0.25060073 32.53587187 -0.37321019 47.40234375 5.2734375 C48.55347656 5.66917969 49.70460938 6.06492187 50.890625 6.47265625 C55.45191101 8.11690426 59.85680462 9.98918896 64.21484375 12.109375 C65.52717592 12.74774097 66.83967559 13.3857627 68.15234375 14.0234375 C68.78519287 14.331604 69.41804199 14.63977051 70.07006836 14.95727539 C74.98439998 17.26895324 79.03219916 18.0003793 84.40234375 18.2734375 C86.40234375 20.2734375 86.40234375 20.2734375 86.52734375 22.8984375 C86.48609375 23.6821875 86.44484375 24.4659375 86.40234375 25.2734375 C83.21746201 27.5293954 80.58229606 27.38909981 76.81054688 26.85522461 C71.88409024 25.66506381 67.43472079 23.23978607 62.90234375 21.0234375 C33.34012861 7.03142112 3.58242712 3.7464614 -27.66796875 14.66015625 C-35.07775826 17.40628239 -42.14454676 20.91048565 -49.14575195 24.55786133 C-57.71856903 29.000692 -64.96279319 30.33221366 -74.59765625 29.2734375 C-79.89198628 27.47640642 -84.19652261 24.66888223 -88.59765625 21.2734375 C-88.10265625 19.7884375 -88.10265625 19.7884375 -87.59765625 18.2734375 C-86.78683594 18.57378906 -85.97601563 18.87414062 -85.140625 19.18359375 C-70.35299057 24.26200138 -61.11218975 20.68499779 -47.59765625 14.2734375 C-35.79373829 8.70236789 -24.28357335 4.39798156 -11.59765625 1.2734375 C-11.01814209 1.09530518 -10.43862793 0.91717285 -9.84155273 0.73364258 C-6.57713802 0.06413744 -3.31969412 0.0505106 0 0 Z " fill="#4CA1AE" transform="translate(253.59765625,26.7265625)"/>
<path d="M0 0 C0.89203125 0.00902344 1.7840625 0.01804688 2.703125 0.02734375 C3.37859375 0.03894531 4.0540625 0.05054688 4.75 0.0625 C4.75 5.68745879 2.49174114 7.0089471 -1.25 11.0625 C1.72 8.0925 4.69 5.1225 7.75 2.0625 C14.52227723 4.31992574 14.52227723 4.31992574 17 7.4375 C17.47953125 8.02273437 17.9590625 8.60796875 18.453125 9.2109375 C21.60941777 13.71721091 22.88386514 17.75488401 22.8125 23.25 C22.80347656 24.15105469 22.79445313 25.05210938 22.78515625 25.98046875 C22.77355469 26.66753906 22.76195312 27.35460937 22.75 28.0625 C17.84023859 28.0625 17.03249803 26.98812319 13.5 23.75 C12.60796875 22.94949219 11.7159375 22.14898437 10.796875 21.32421875 C8.75 19.0625 8.75 19.0625 8.75 16.0625 C8.09 16.0625 7.43 16.0625 6.75 16.0625 C8.07 18.3725 9.39 20.6825 10.75 23.0625 C10.09 23.0625 9.43 23.0625 8.75 23.0625 C8.76571045 23.68817871 8.7814209 24.31385742 8.79760742 24.95849609 C8.85984675 27.78473931 8.89895462 30.61083861 8.9375 33.4375 C8.96263672 34.42234375 8.98777344 35.4071875 9.01367188 36.421875 C9.02333984 37.36289063 9.03300781 38.30390625 9.04296875 39.2734375 C9.0586792 40.14274902 9.07438965 41.01206055 9.09057617 41.90771484 C8.97818604 42.61879395 8.8657959 43.32987305 8.75 44.0625 C5.11804504 46.48380331 3.36650652 46.27272785 -0.9375 46.1875 C-2.11699219 46.16945312 -3.29648437 46.15140625 -4.51171875 46.1328125 C-5.86716797 46.09800781 -5.86716797 46.09800781 -7.25 46.0625 C-5.83208437 43.12803114 -4.26667393 40.62917591 -2.25 38.0625 C-2.62511719 38.50722656 -3.00023437 38.95195313 -3.38671875 39.41015625 C-7.54623068 44.0097173 -7.54623068 44.0097173 -10.75 44.25 C-16.25785584 41.63376847 -20.00234276 38.10499632 -22.5703125 32.59765625 C-24.01255931 27.21824143 -23.52895124 21.57953559 -23.25 16.0625 C-21.25 16.0625 -21.25 16.0625 -19 18.1875 C-17.63875 19.610625 -17.63875 19.610625 -16.25 21.0625 C-15.14842831 22.16925556 -14.04428007 23.27345293 -12.9375 24.375 C-12.050625 25.261875 -11.16375 26.14875 -10.25 27.0625 C-11.14301656 25.99763145 -12.0395947 24.93574959 -12.9375 23.875 C-13.74960938 22.91400391 -13.74960938 22.91400391 -14.578125 21.93359375 C-16.37564062 19.85155629 -16.37564062 19.85155629 -19.1875 17.4375 C-21.25 15.0625 -21.25 15.0625 -21.375 12.5625 C-19.19595603 7.72018007 -15.91283439 5.3939172 -11.25 3.0625 C-10.92 8.0125 -10.59 12.9625 -10.25 18.0625 C-8.27 18.0625 -6.29 18.0625 -4.25 18.0625 C-4.25 16.4125 -4.25 14.7625 -4.25 13.0625 C-5.9 12.4025 -7.55 11.7425 -9.25 11.0625 C-9.25 7.7625 -9.25 4.4625 -9.25 1.0625 C-5.84112017 0.21028004 -3.44565369 -0.04533755 0 0 Z " fill="#0E1C38" transform="translate(265.25,54.9375)"/>
<path d="M0 0 C2.31537625 2.5932214 2.00038684 3.98916835 1.875 7.5 C0.92278406 11.30886374 0.25699232 12.82867179 -3 15 C-5.625 14.9375 -5.625 14.9375 -8 14 C-10 11 -10 11 -10 7 C-10.66 7 -11.32 7 -12 7 C-11.01241605 12.10286219 -11.01241605 12.10286219 -7.6875 15.875 C3.71927 20.64992698 14.22736308 16.97034705 25.125 12.625 C29.55137677 10.75646515 33.47860208 8.6218213 37.37890625 5.8203125 C37.91386719 5.54960938 38.44882812 5.27890625 39 5 C39.99 5.33 40.98 5.66 42 6 C42 6.33 42 6.66 42 7 C44.64201522 7.99075571 46.36833743 8.25930117 49.0078125 7.17578125 C50.39630235 6.44567128 51.77222785 5.69103655 53.1328125 4.91015625 C55 4 55 4 58 4 C46.08451276 17.60857255 22.62359422 25.76202377 5.046875 27.25 C-2.82380279 27.56640916 -8.53978442 26.31514989 -14.88671875 21.59765625 C-18.621686 18.03681335 -19.4298053 15.00043491 -19.625 9.875 C-19.41959841 6.22341611 -19.08763158 4.17526317 -17.4375 0.875 C-11.49392213 -3.69698298 -6.27502399 -3.66531775 0 0 Z " fill="#454A56" transform="translate(218,119)"/>
<path d="M0 0 C5.07679166 3.95277875 11.09955395 8.85228078 12.125 15.5 C12.91191062 23.96675987 13.08976215 31.2021255 8.046875 38.40625 C3.56212966 43.29207013 -2.00379286 47.17695809 -8.73046875 47.73828125 C-18.25444519 47.95042141 -23.73643325 46.64252828 -30.6875 40.125 C-35.13952385 35.66240128 -37.23443082 31.0353368 -37.39428711 24.68896484 C-37.38792236 24.00785645 -37.38155762 23.32674805 -37.375 22.625 C-37.36927979 21.91682129 -37.36355957 21.20864258 -37.35766602 20.47900391 C-37.11298515 13.32641364 -35.04037756 9.77063952 -30.23046875 4.80078125 C-22.08468698 -2.79336744 -10.0762297 -6.3321512 0 0 Z M-20.875 0.5 C-20.875 3.8 -20.875 7.1 -20.875 10.5 C-18.4 11.49 -18.4 11.49 -15.875 12.5 C-15.875 14.15 -15.875 15.8 -15.875 17.5 C-17.855 17.5 -19.835 17.5 -21.875 17.5 C-22.205 12.55 -22.535 7.6 -22.875 2.5 C-27.39698161 4.76099081 -30.82250706 7.03583002 -32.859375 11.8046875 C-33.1586861 14.76585711 -33.1586861 14.76585711 -30.56640625 17.39453125 C-29.53827784 18.38286114 -28.49454107 19.35515567 -27.4375 20.3125 C-26.90833984 20.81458984 -26.37917969 21.31667969 -25.83398438 21.83398438 C-24.52739036 23.06995168 -23.20283937 24.28688595 -21.875 25.5 C-23.02742187 24.57574219 -23.02742187 24.57574219 -24.203125 23.6328125 C-25.99906838 22.19920857 -27.80665653 20.78008359 -29.625 19.375 C-31.875 17.5 -31.875 17.5 -32.875 15.5 C-33.535 15.5 -34.195 15.5 -34.875 15.5 C-35.35130586 24.92027148 -35.68851224 32.10475998 -29.2265625 39.34765625 C-26.65123903 41.81614316 -24.91585611 43.39845306 -21.3125 43.75 C-17.76296518 41.92972573 -15.56568607 39.44098244 -12.875 36.5 C-13.5246875 37.22316406 -13.5246875 37.22316406 -14.1875 37.9609375 C-14.744375 38.59257813 -15.30125 39.22421875 -15.875 39.875 C-16.431875 40.50148437 -16.98875 41.12796875 -17.5625 41.7734375 C-19.07672487 43.40389833 -19.07672487 43.40389833 -18.875 45.5 C-16.77111431 45.55402274 -14.66683286 45.59280256 -12.5625 45.625 C-11.39074219 45.64820313 -10.21898437 45.67140625 -9.01171875 45.6953125 C-5.71106339 45.75320618 -5.71106339 45.75320618 -2.875 43.5 C-2.45929992 41.27501085 -2.45929992 41.27501085 -2.58203125 38.7109375 C-2.59169922 37.76992187 -2.60136719 36.82890625 -2.61132812 35.859375 C-2.63646484 34.87453125 -2.66160156 33.8896875 -2.6875 32.875 C-2.70103516 31.88242188 -2.71457031 30.88984375 -2.72851562 29.8671875 C-2.76394257 27.41091928 -2.81333804 24.95572715 -2.875 22.5 C-2.215 22.17 -1.555 21.84 -0.875 21.5 C-2.195 19.52 -3.515 17.54 -4.875 15.5 C-4.215 15.5 -3.555 15.5 -2.875 15.5 C-2.81441406 16.06203125 -2.75382812 16.6240625 -2.69140625 17.203125 C-1.52228503 20.49232729 0.56276351 21.99073315 3.1875 24.25 C4.10660156 25.04921875 5.02570313 25.8484375 5.97265625 26.671875 C6.68292969 27.27515625 7.39320313 27.8784375 8.125 28.5 C9.115 28.17 10.105 27.84 11.125 27.5 C11.59651236 19.51422855 11.59651236 19.51422855 8.125 12.5 C7.856875 11.675 7.58875 10.85 7.3125 10 C5.41045158 5.99568754 2.1901806 3.49859556 -1.7734375 1.58203125 C-4.1018487 1.26261888 -4.1018487 1.26261888 -6.234375 3.37109375 C-7.41773438 4.64146484 -7.41773438 4.64146484 -8.625 5.9375 C-9.42421875 6.78183594 -10.2234375 7.62617187 -11.046875 8.49609375 C-11.65015625 9.15738281 -12.2534375 9.81867188 -12.875 10.5 C-11.86305294 9.42781799 -10.86581943 8.34173622 -9.875 7.25 C-9.318125 6.64671875 -8.76125 6.0434375 -8.1875 5.421875 C-6.49902557 3.337347 -6.49902557 3.337347 -6.875 -0.5 C-8.45823688 -0.527193 -10.04161062 -0.54648306 -11.625 -0.5625 C-12.50671875 -0.57410156 -13.3884375 -0.58570313 -14.296875 -0.59765625 C-17.14453476 -0.57827821 -17.14453476 -0.57827821 -20.875 0.5 Z " fill="#417395" transform="translate(276.875,55.5)"/>
<path d="M0 0 C12.74651028 3.5162787 23.61483882 11.03097836 34 19 C32.48532996 23.32621442 29.23906901 25.28565209 25.5625 27.6875 C24.91450439 28.11522705 24.26650879 28.5429541 23.59887695 28.98364258 C18.16068845 32.46559294 12.51041928 35.4049396 6.6875 38.1875 C5.85742432 38.58606201 5.02734863 38.98462402 4.17211914 39.39526367 C-0.26040207 41.44398539 -0.26040207 41.44398539 -2 42 C-2.66 41.67 -3.32 41.34 -4 41 C-3.40251953 40.36384766 -3.40251953 40.36384766 -2.79296875 39.71484375 C4.23799076 31.93117811 5.5543175 26.22927993 5.3671875 15.75 C4.86741646 10.64595532 3.36618368 6.51380421 1 2 C0.67 1.34 0.34 0.68 0 0 Z " fill="#EBDAB0" transform="translate(288,59)"/>
<path d="M0 0 C-1.03204557 2.69919611 -2.10487336 5.18392764 -3.5390625 7.69921875 C-6.58836048 14.58867541 -6.37084591 23.30561339 -3.7578125 30.34765625 C-1.50624857 34.50912889 1.13206861 38.24499074 4 42 C-10.25882707 37.99752222 -22.29364161 29.80231571 -34 21 C-32.63797042 16.91391127 -29.89665822 15.56841632 -26.4375 13.3125 C-25.7772583 12.87695801 -25.1170166 12.44141602 -24.43676758 11.99267578 C-5.84921235 0 -5.84921235 0 0 0 Z " fill="#ECDAB1" transform="translate(241,59)"/>
<path d="M0 0 C0.96550781 0.48984375 1.93101562 0.9796875 2.92578125 1.484375 C7.11152306 3.67768199 10.69883066 5.60960986 14 9 C15.37229925 9.9314842 16.76940337 10.82734303 18.1875 11.6875 C18.90292969 12.12449219 19.61835938 12.56148437 20.35546875 13.01171875 C20.89816406 13.33785156 21.44085938 13.66398437 22 14 C20.68 14.99 19.36 15.98 18 17 C19.65 18.65 21.3 20.3 23 22 C19.42489911 20.71020879 16.7002677 19.17604816 13.6875 16.875 C3.54516197 9.63479148 -8.00647224 4.32787446 -20 1 C-21.85625 0.46632813 -21.85625 0.46632813 -23.75 -0.078125 C-41.39466539 -4.39782513 -59.33267205 0.41274893 -75.3046875 7.92578125 C-76.19414062 8.28027344 -77.08359375 8.63476562 -78 9 C-78.66 8.67 -79.32 8.34 -80 8 C-79.67 7.34 -79.34 6.68 -79 6 C-80.15628906 6.55880859 -80.15628906 6.55880859 -81.3359375 7.12890625 C-82.33882812 7.60199219 -83.34171875 8.07507812 -84.375 8.5625 C-85.37273437 9.03816406 -86.37046875 9.51382813 -87.3984375 10.00390625 C-88.25695312 10.33261719 -89.11546875 10.66132812 -90 11 C-90.66 10.67 -91.32 10.34 -92 10 C-65.05036251 -5.36982202 -29.55168556 -15.69116047 0 0 Z " fill="#E5C25F" transform="translate(303,52)"/>
<path d="M0 0 C-2 1 -4 2 -6 3 C-6.65213292 5.02463255 -6.65213292 5.02463255 -7 7 C-6.154375 6.79503906 -5.30875 6.59007812 -4.4375 6.37890625 C-3.303125 6.10949219 -2.16875 5.84007812 -1 5.5625 C0.11375 5.29566406 1.2275 5.02882813 2.375 4.75390625 C9.58650435 3.25409985 16.53283518 2.81820044 23.875 2.8125 C24.72835937 2.80025391 25.58171875 2.78800781 26.4609375 2.77539062 C27.68296875 2.77249023 27.68296875 2.77249023 28.9296875 2.76953125 C29.66429199 2.76542236 30.39889648 2.76131348 31.15576172 2.75708008 C33 3 33 3 35 5 C34.32235596 5.00410889 33.64471191 5.00821777 32.9465332 5.01245117 C6.99845923 5.28591119 -14.59411587 10.32622728 -37.5480957 22.28442383 C-46.12091278 26.7272545 -53.36513694 28.05877616 -63 27 C-68.29433003 25.20296892 -72.59886636 22.39544473 -77 19 C-76.505 17.515 -76.505 17.515 -76 16 C-75.18917969 16.30035156 -74.37835938 16.60070312 -73.54296875 16.91015625 C-59.66036183 21.677757 -51.01371725 19.0894062 -38.18847656 13.03222656 C-9.66261195 -0.42240927 -9.66261195 -0.42240927 0 0 Z " fill="#3A80A8" transform="translate(242,29)"/>
<path d="M0 0 C0.82338867 -0.00128906 1.64677734 -0.00257812 2.49511719 -0.00390625 C7.78193449 0.09031002 12.41773626 0.91792897 17.5 2.375 C17.5 3.035 17.5 3.695 17.5 4.375 C18.82 4.705 20.14 5.035 21.5 5.375 C21.5 6.365 21.5 7.355 21.5 8.375 C22.16 8.375 22.82 8.375 23.5 8.375 C23.5 7.715 23.5 7.055 23.5 6.375 C24.82 6.705 26.14 7.035 27.5 7.375 C27.995 9.355 27.995 9.355 28.5 11.375 C26.025 10.88 26.025 10.88 23.5 10.375 C24.551875 11.9528125 24.551875 11.9528125 25.625 13.5625 C26.8203125 15.35546875 26.8203125 15.35546875 27.5 17.375 C26.65625 19.75 26.65625 19.75 25.5 22.375 C25.2240522 24.30403132 25.01550097 26.2439032 24.875 28.1875 C24.80023438 29.16332031 24.72546875 30.13914062 24.6484375 31.14453125 C24.59945312 31.88058594 24.55046875 32.61664063 24.5 33.375 C25.16 33.375 25.82 33.375 26.5 33.375 C26.17 35.685 25.84 37.995 25.5 40.375 C24.18 40.375 22.86 40.375 21.5 40.375 C21.65984375 39.86582031 21.8196875 39.35664062 21.984375 38.83203125 C23.31777677 32.4781698 23.72094867 23.59650364 21.5 17.375 C17.77378773 11.78568159 12.49398753 7.40316606 6.5 4.375 C-2.04699973 3.03077986 -9.46556427 4.28680056 -16.5 9.375 C-22.18890034 14.67360157 -24.6568274 19.3221233 -25.125 27.125 C-25.23714844 28.88070312 -25.23714844 28.88070312 -25.3515625 30.671875 C-25.40054688 31.56390625 -25.44953125 32.4559375 -25.5 33.375 C-26.985 33.87 -26.985 33.87 -28.5 34.375 C-29.16 35.035 -29.82 35.695 -30.5 36.375 C-31.22096128 19.87299733 -31.22096128 19.87299733 -26.5 12.375 C-25.79094062 10.38963373 -25.10578253 8.39427511 -24.5 6.375 C-25.16 5.715 -25.82 5.055 -26.5 4.375 C-17.64052476 1.6033206 -9.31589216 -0.01393031 0 0 Z " fill="#131C34" transform="translate(265.5,49.625)"/>
<path d="M0 0 C1.33514648 -0.01836914 1.33514648 -0.01836914 2.69726562 -0.03710938 C8.45253798 -0.04972137 14.08439297 0.27393 19.5625 2.1875 C20.5525 3.1775 20.5525 3.1775 21.5625 4.1875 C20.6653125 4.043125 19.768125 3.89875 18.84375 3.75 C6.16272296 1.86356622 -6.94915066 0.56465947 -19.4375 4.1875 C-20.07381348 4.37054688 -20.71012695 4.55359375 -21.36572266 4.7421875 C-32.47512267 8.00625062 -42.43450949 12.37455271 -52.4375 18.1875 C-51.81101563 17.89875 -51.18453125 17.61 -50.5390625 17.3125 C-49.72179687 16.94125 -48.90453125 16.57 -48.0625 16.1875 C-47.25039062 15.81625 -46.43828125 15.445 -45.6015625 15.0625 C-43.4375 14.1875 -43.4375 14.1875 -41.4375 14.1875 C-41.4375 15.5075 -41.4375 16.8275 -41.4375 18.1875 C-43.73841369 19.85482876 -45.89883132 21.20818015 -48.375 22.5625 C-49.75508389 23.34688997 -51.13399456 24.13334775 -52.51171875 24.921875 C-53.18509277 25.30408203 -53.8584668 25.68628906 -54.55224609 26.08007812 C-57.74005447 27.95263689 -60.72301077 30.10595557 -63.703125 32.2890625 C-64.56164062 32.73378906 -64.56164062 32.73378906 -65.4375 33.1875 C-66.4275 32.8575 -67.4175 32.5275 -68.4375 32.1875 C-68.4375 31.1975 -68.4375 30.2075 -68.4375 29.1875 C-68.98535156 29.2596875 -69.53320312 29.331875 -70.09765625 29.40625 C-90.22434105 31.76254481 -90.22434105 31.76254481 -99.4375 28.1875 C-96.4375 26.1875 -96.4375 26.1875 -94.5 26.55078125 C-93.819375 26.76089844 -93.13875 26.97101563 -92.4375 27.1875 C-78.45608004 28.39959891 -67.41809527 23.68705168 -55.4375 17.1875 C-34.48584996 5.91636745 -34.48584996 5.91636745 -25.4375 3.1875 C-23.6121875 2.5996875 -23.6121875 2.5996875 -21.75 2 C-14.52673436 0.2282556 -7.40026987 0.00533545 0 0 Z " fill="#948159" transform="translate(265.4375,43.8125)"/>
<path d="M0 0 C7.75967305 1.42002017 13.93753907 4.18451261 20.89453125 7.81054688 C25.73983435 10.23319843 29.73346398 11.5206501 35.16992188 11.74194336 C37 12 37 12 39 14 C39.125 16.625 39.125 16.625 39 19 C35.81511826 21.2559579 33.17995231 21.11566231 29.40820312 20.58178711 C24.48178394 19.39163535 20.03228068 16.96647742 15.5 14.75 C3.0025869 8.83082438 -9.27517622 4.21048845 -23 2 C-23 1.67 -23 1.34 -23 1 C-14.12994977 1.31964145 -6.37461115 3.09590097 2 6 C2 4.35 2 2.7 2 1 C1.34 0.67 0.68 0.34 0 0 Z " fill="#3F6789" transform="translate(301,33)"/>
<path d="M0 0 C10.08156647 2.89544989 18.53428797 10.53604347 26.75 16.875 C27.3584375 17.33898193 27.966875 17.80296387 28.59375 18.28100586 C32.88170192 21.64510575 32.88170192 21.64510575 34 25 C33.47792969 25.17015625 32.95585937 25.3403125 32.41796875 25.515625 C28.01306265 26.96592683 23.65450771 28.49526012 19.3125 30.125 C15.54832081 31.51013335 12.0108913 32.56639013 8 33 C8 32.34 8 31.68 8 31 C6.68 31 5.36 31 4 31 C5 28 5 28 7 26.4375 C10.88884074 24.57409715 14.77829972 23.78179635 19 23 C18.278125 22.29875 17.55625 21.5975 16.8125 20.875 C14.88665978 18.95461542 13.10250503 16.97531006 11.375 14.875 C9.64912868 12.78578735 7.96092626 10.85771961 6 9 C6.66 9 7.32 9 8 9 C8.33 8.34 8.66 7.68 9 7 C8.3503125 6.57847656 7.700625 6.15695313 7.03125 5.72265625 C5.77828125 4.90087891 5.77828125 4.90087891 4.5 4.0625 C3.6646875 3.51722656 2.829375 2.97195312 1.96875 2.41015625 C1.3190625 1.94480469 0.669375 1.47945312 0 1 C0 0.67 0 0.34 0 0 Z " fill="#927647" transform="translate(314,59)"/>
<path d="M0 0 C2.31537625 2.5932214 2.00038684 3.98916835 1.875 7.5 C0.92278406 11.30886374 0.25699232 12.82867179 -3 15 C-5.625 14.9375 -5.625 14.9375 -8 14 C-10 11 -10 11 -10 7 C-10.66 7 -11.32 7 -12 7 C-10.90213575 12.40787385 -10.90213575 12.40787385 -7 16 C-7 16.66 -7 17.32 -7 18 C-11.95 18.495 -11.95 18.495 -17 19 C-20.11747321 14.32379018 -19.58432711 9.47344383 -19 4 C-17.06287178 0.12574356 -15.6580358 -0.69629117 -11.75 -2.5 C-7.07787728 -3.1229497 -4.04576336 -2.36317954 0 0 Z " fill="#726246" transform="translate(218,119)"/>
<path d="M0 0 C8.91 0 17.82 0 27 0 C27 0.66 27 1.32 27 2 C25.68644531 1.98839844 24.37289062 1.97679687 23.01953125 1.96484375 C21.28385559 1.95546172 19.54817839 1.94636196 17.8125 1.9375 C16.94818359 1.92912109 16.08386719 1.92074219 15.19335938 1.91210938 C13.93168945 1.90727539 13.93168945 1.90727539 12.64453125 1.90234375 C11.87471924 1.89710693 11.10490723 1.89187012 10.31176758 1.88647461 C7.529454 1.96602967 7.529454 1.96602967 3 3 C2.67 38.64 2.34 74.28 2 111 C9.92 111 17.84 111 26 111 C26 111.33 26 111.66 26 112 C17.42 112 8.84 112 0 112 C0 75.04 0 38.08 0 0 Z " fill="#3F4C60" transform="translate(43,14)"/>
<path d="M0 0 C-1.45537568 0.83848804 -2.91440373 1.67063934 -4.375 2.5 C-5.18710938 2.9640625 -5.99921875 3.428125 -6.8359375 3.90625 C-9 5 -9 5 -11 5 C-10.505 6.98 -10.505 6.98 -10 9 C-8.8553125 8.4740625 -8.8553125 8.4740625 -7.6875 7.9375 C-5 7 -5 7 -2 8 C-4.43656685 9.14785376 -6.87419281 10.29335402 -9.3125 11.4375 C-10.00279297 11.76298828 -10.69308594 12.08847656 -11.40429688 12.42382812 C-19.63437767 16.28043603 -28.1035265 17.98593841 -37.00390625 14.98828125 C-40.98181745 13.01414648 -44.4866493 10.71052622 -48 8 C-47.67 7.01 -47.34 6.02 -47 5 C-45.78376953 5.45052734 -45.78376953 5.45052734 -44.54296875 5.91015625 C-31.19962085 10.49256327 -22.95453404 8.49618392 -10.6015625 2.69140625 C-2.3590604 -1.1795302 -2.3590604 -1.1795302 0 0 Z " fill="#336699" transform="translate(213,40)"/>
<path d="M0 0 C0.66 0.33 1.32 0.66 2 1 C-1.6493516 5.19182278 -6.11673188 7.69496207 -10.875 10.4375 C-11.71329346 10.92323486 -12.55158691 11.40896973 -13.4152832 11.90942383 C-20.38274214 15.84772578 -27.32719552 18.7344574 -35 21 C-35.33 19.02 -35.66 17.04 -36 15 C-36.99 14.67 -37.98 14.34 -39 14 C-36.19422642 11.72191778 -33.64275744 10.34596048 -30.25 9.125 C-25.97794889 7.50326125 -22.40769312 5.5010926 -18.69140625 2.85546875 C-18.13324219 2.57316406 -17.57507813 2.29085937 -17 2 C-16.01 2.33 -15.02 2.66 -14 3 C-14 3.33 -14 3.66 -14 4 C-11.34267375 4.99649734 -9.59673094 5.22657829 -6.921875 4.2109375 C-3.21555997 2.46592473 -3.21555997 2.46592473 0 0 Z " fill="#585655" transform="translate(274,122)"/>
<path d="M0 0 C-0.4375 2.3125 -0.4375 2.3125 -2 5 C-4.09201355 5.92469746 -6.20020047 6.49349103 -8.40234375 7.109375 C-12.98651738 8.68109167 -16.94613998 11.38487945 -21 14 C-20.67 14.9075 -20.34 15.815 -20 16.75 C-19 20 -19 20 -19 24 C-18.01 24.33 -17.02 24.66 -16 25 C-15.67 25.99 -15.34 26.98 -15 28 C-14.34 28 -13.68 28 -13 28 C-13 28.66 -13 29.32 -13 30 C-12.01 29.67 -11.02 29.34 -10 29 C-9.67 30.32 -9.34 31.64 -9 33 C-13.44067619 32.4836423 -16.24568155 31.3711485 -20 29 C-20.60070312 28.87753906 -21.20140625 28.75507812 -21.8203125 28.62890625 C-24.75429182 27.78236383 -26.78326095 26.2226401 -29.25 24.4375 C-30.58804688 23.47650391 -30.58804688 23.47650391 -31.953125 22.49609375 C-32.62859375 22.00238281 -33.3040625 21.50867188 -34 21 C-32.63797042 16.91391127 -29.89665822 15.56841632 -26.4375 13.3125 C-25.7772583 12.87695801 -25.1170166 12.44141602 -24.43676758 11.99267578 C-5.84921235 0 -5.84921235 0 0 0 Z " fill="#D7B687" transform="translate(241,59)"/>
<path d="M0 0 C5.4027837 3.3952425 11.78835563 8.62537217 14.08984375 14.75390625 C14.52430928 17.74689104 14.49897718 20.66087548 14.46875 23.68359375 C14.45972656 24.8540625 14.45070313 26.02453125 14.44140625 27.23046875 C14.42980469 28.1225 14.41820312 29.01453125 14.40625 29.93359375 C14.07625 29.93359375 13.74625 29.93359375 13.40625 29.93359375 C13.34566406 29.17433594 13.28507812 28.41507813 13.22265625 27.6328125 C13.13886719 26.63894531 13.05507813 25.64507812 12.96875 24.62109375 C12.88753906 23.63496094 12.80632812 22.64882812 12.72265625 21.6328125 C12.48812441 18.83983776 12.48812441 18.83983776 11.40625 15.93359375 C5.46625 15.60359375 -0.47375 15.27359375 -6.59375 14.93359375 C-6.59375 14.60359375 -6.59375 14.27359375 -6.59375 13.93359375 C-0.98375 13.93359375 4.62625 13.93359375 10.40625 13.93359375 C7.27861297 8.7655439 7.27861297 8.7655439 3.15625 5.55859375 C2.24875 5.02234375 1.34125 4.48609375 0.40625 3.93359375 C-2.80899305 5.34204093 -4.91558868 7.03704161 -7.34375 9.55859375 C-7.95734375 10.19023438 -8.5709375 10.821875 -9.203125 11.47265625 C-9.66203125 11.95476562 -10.1209375 12.436875 -10.59375 12.93359375 C-10.59375 9.93359375 -10.59375 9.93359375 -9.28125 8.3984375 C-8.724375 7.89441406 -8.1675 7.39039063 -7.59375 6.87109375 C-5.92926793 5.3981179 -5.92926793 5.3981179 -4.59375 3.93359375 C-4.59375 3.27359375 -4.59375 2.61359375 -4.59375 1.93359375 C-9.21375 1.93359375 -13.83375 1.93359375 -18.59375 1.93359375 C-18.59375 5.23359375 -18.59375 8.53359375 -18.59375 11.93359375 C-17.789375 12.07796875 -16.985 12.22234375 -16.15625 12.37109375 C-13.59375 12.93359375 -13.59375 12.93359375 -12.59375 13.93359375 C-12.55311168 15.5997649 -12.551029 17.2674747 -12.59375 18.93359375 C-17.34375 20.05859375 -17.34375 20.05859375 -19.59375 18.93359375 C-20.83399621 13.97260893 -20.69526176 9.00918183 -20.59375 3.93359375 C-24.7963893 6.57246029 -28.16013098 9.29799714 -31.59375 12.93359375 C-30.76152731 7.52414626 -26.76464076 5.0561051 -22.59375 1.93359375 C-15.997752 -2.07573837 -7.22050133 -2.96866997 0 0 Z " fill="#4E96A8" transform="translate(274.59375,54.06640625)"/>
<path d="M0 0 C12.74651028 3.5162787 23.61483882 11.03097836 34 19 C32.47392329 23.16628303 29.82126004 24.79934451 26.1875 27.1875 C25.14980469 27.88230469 24.11210937 28.57710937 23.04296875 29.29296875 C20.19501624 30.89060065 18.19864252 31.58515899 15 32 C14.071875 32.185625 13.14375 32.37125 12.1875 32.5625 C11.465625 32.706875 10.74375 32.85125 10 33 C9.67 32.34 9.34 31.68 9 31 C9.99 31 10.98 31 12 31 C12.226875 30.401875 12.45375 29.80375 12.6875 29.1875 C14.35899637 26.40167272 16.2056404 25.62462768 19 24 C19.886875 23.113125 20.77375 22.22625 21.6875 21.3125 C22.450625 20.549375 23.21375 19.78625 24 19 C24.66 19 25.32 19 26 19 C20.6912272 13.19352975 14.22280251 9.11893745 7 6 C5.68 6 4.36 6 3 6 C2.01 4.02 1.02 2.04 0 0 Z " fill="#DABB8B" transform="translate(288,59)"/>
<path d="M0 0 C6.74720271 0.447144 11.77562784 1.82389572 17.8125 4.8125 C18.54919922 5.15603516 19.28589844 5.49957031 20.04492188 5.85351562 C24.06677952 7.7899656 26.95010019 9.67839419 30 13 C31.38661445 13.96152097 32.80309097 14.88185458 34.25 15.75 C34.95640625 16.17796875 35.6628125 16.6059375 36.390625 17.046875 C36.92171875 17.36140625 37.4528125 17.6759375 38 18 C36.68 18.99 35.36 19.98 34 21 C35.65 22.65 37.3 24.3 39 26 C35.42489911 24.71020879 32.7002677 23.17604816 29.6875 20.875 C22.30520628 15.56688548 13.6416358 10.88054527 5 8 C5 7.34 5 6.68 5 6 C8.465 5.505 8.465 5.505 12 5 C8.04 3.68 4.08 2.36 0 1 C0 0.67 0 0.34 0 0 Z " fill="#CFA853" transform="translate(287,48)"/>
<path d="M0 0 C1.34243265 0.01509628 2.68488201 0.02877582 4.02734375 0.04101562 C7.26866944 0.07599396 10.50910662 0.12507663 13.75 0.1875 C13.75 0.5175 13.75 0.8475 13.75 1.1875 C12.1 1.5175 10.45 1.8475 8.75 2.1875 C9.41 2.8475 10.07 3.5075 10.75 4.1875 C9.63927124 4.26266846 9.63927124 4.26266846 8.50610352 4.33935547 C5.10770903 4.57336155 1.71014452 4.81785499 -1.6875 5.0625 C-2.85216797 5.14113281 -4.01683594 5.21976563 -5.21679688 5.30078125 C-11.07368319 5.7297363 -16.68012366 6.2922757 -22.36743164 7.78955078 C-24.25 8.1875 -24.25 8.1875 -28.25 8.1875 C-27.92 6.5375 -27.59 4.8875 -27.25 3.1875 C-18.05111236 0.32655563 -9.59086591 -0.18796169 0 0 Z " fill="#48B4C5" transform="translate(263.25,27.8125)"/>
<path d="M0 0 C5.39919427 0.41532264 9.03631613 3.54191931 13.3125 6.5625 C20.5855716 11.57732777 27.95192795 15.72162043 35.9375 19.4765625 C39 21 39 21 41 23 C34.97229862 22.52412884 30.23321711 19.80277043 25 17 C27.66817421 20.28617044 31.17968662 21.5320261 35 23.0625 C38.53156318 24.49900674 41.80745941 25.8716396 45 28 C34.2243739 29.50858765 23.34936682 21.85941756 14.89453125 15.75390625 C13 14 13 14 11.5 10.4375 C9.45587663 5.7530506 6.47997103 4.51718049 2.08203125 2.1640625 C1.39496094 1.77992187 0.70789063 1.39578125 0 1 C0 0.67 0 0.34 0 0 Z " fill="#A68750" transform="translate(198,81)"/>
<path d="M0 0 C13.87665293 -0.52474738 26.21965445 1.19878324 39 7 C39 7.33 39 7.66 39 8 C37.9275 7.979375 36.855 7.95875 35.75 7.9375 C32.26914154 7.80506952 32.26914154 7.80506952 30.1640625 8.62109375 C26.97850081 9.17885455 24.68545446 8.12222673 21.625 7.125 C11.63770412 4.11488498 1.35594604 4.16462789 -9 4 C-9 3.67 -9 3.34 -9 3 C-5.92382812 2.70703125 -5.92382812 2.70703125 -2.84765625 2.4140625 C-2.23792969 2.27742188 -1.62820313 2.14078125 -1 2 C-0.67 1.34 -0.34 0.68 0 0 Z " fill="#F0CD69" transform="translate(262,46)"/>
<path d="M0 0 C2.125 0.9375 2.125 0.9375 4 2 C0.32442148 6.00972202 -3.18966896 8.45335415 -8 11 C-8.33 10.34 -8.66 9.68 -9 9 C-9.7425 9.45375 -10.485 9.9075 -11.25 10.375 C-12.1575 10.91125 -13.065 11.4475 -14 12 C-14.598125 12.4125 -15.19625 12.825 -15.8125 13.25 C-19.31921466 14.45230217 -22.37445245 13.60425792 -26 13 C-25.67 12.34 -25.34 11.68 -25 11 C-24.34 11 -23.68 11 -23 11 C-22.67 10.01 -22.34 9.02 -22 8 C-19.78515625 6.17578125 -19.78515625 6.17578125 -17.0625 4.3125 C-16.16660156 3.68988281 -15.27070313 3.06726563 -14.34765625 2.42578125 C-12 1 -12 1 -10 1 C-9.67 2.65 -9.34 4.3 -9 6 C-8.34 6 -7.68 6 -7 6 C-7 5.01 -7 4.02 -7 3 C-4.525 3.495 -4.525 3.495 -2 4 C-2 3.01 -2 2.02 -2 1 C-1.34 0.67 -0.68 0.34 0 0 Z " fill="#7D6A49" transform="translate(283,114)"/>
<path d="M0 0 C-2 1 -4 2 -6 3 C-6.65213292 5.02463255 -6.65213292 5.02463255 -7 7 C-6.154375 6.79503906 -5.30875 6.59007812 -4.4375 6.37890625 C-3.303125 6.10949219 -2.16875 5.84007812 -1 5.5625 C0.11375 5.29566406 1.2275 5.02882813 2.375 4.75390625 C9.58650435 3.25409985 16.53283518 2.81820044 23.875 2.8125 C24.72835937 2.80025391 25.58171875 2.78800781 26.4609375 2.77539062 C27.68296875 2.77249023 27.68296875 2.77249023 28.9296875 2.76953125 C29.66429199 2.76542236 30.39889648 2.76131348 31.15576172 2.75708008 C33 3 33 3 35 5 C34.32235596 5.00410889 33.64471191 5.00821777 32.9465332 5.01245117 C13.83309177 5.21388277 -4.39940348 6.74695763 -21.8203125 15.1796875 C-24 16 -24 16 -27 15 C-24.73192796 13.9932996 -22.46092246 12.99448234 -20.1875 12 C-19.54490234 11.71382812 -18.90230469 11.42765625 -18.24023438 11.1328125 C-15.32243531 9.86288959 -13.21734286 9 -10 9 C-9.67 7.68 -9.34 6.36 -9 5 C-11.08473947 5.45189439 -13.16775036 5.91176825 -15.25 6.375 C-16.41015625 6.63023438 -17.5703125 6.88546875 -18.765625 7.1484375 C-21.91169922 7.84935664 -21.91169922 7.84935664 -24.234375 9.1640625 C-26 10 -26 10 -29 9 C-9.61474324 -0.47896322 -9.61474324 -0.47896322 0 0 Z " fill="#4E8591" transform="translate(242,29)"/>
<path d="M0 0 C2 1.375 2 1.375 4 3 C4 5 4 5 2.42578125 6.62109375 C-1.2491259 9.77974777 -4.78010286 12.58863021 -9 15 C-10.75149165 16.58245275 -10.75149165 16.58245275 -12 18 C-8.97580475 17.41196203 -5.98241547 16.77321882 -3 16 C-6.53546485 20.18772976 -10.74775389 22.07436777 -15.625 24.3125 C-16.40101563 24.68439453 -17.17703125 25.05628906 -17.9765625 25.43945312 C-22.26933712 27.44051213 -22.26933712 27.44051213 -24 28 C-24.66 27.67 -25.32 27.34 -26 27 C-25.59007812 26.55269531 -25.18015625 26.10539062 -24.7578125 25.64453125 C-21.26042277 21.82693447 -21.26042277 21.82693447 -19.125 17.1875 C-18 15 -18 15 -16.14453125 14.3203125 C-14.69841866 13.98757863 -13.24154962 13.69797652 -11.77734375 13.45703125 C-11.19082031 13.30621094 -10.60429687 13.15539062 -10 13 C-9.67 12.34 -9.34 11.68 -9 11 C-8.34 11 -7.68 11 -7 11 C-7 10.01 -7 9.02 -7 8 C-6.21625 7.731875 -5.4325 7.46375 -4.625 7.1875 C-1.71885077 6.15185568 -1.71885077 6.15185568 0 3 C0 2.01 0 1.02 0 0 Z " fill="#E3C999" transform="translate(310,73)"/>
<path d="M0 0 C8.87005023 0.31964145 16.62538885 2.09590097 25 5 C25 3.68 25 2.36 25 1 C30.56472574 1.56002831 34.9267939 3.6345243 39.875 6.0625 C40.65875 6.43955078 41.4425 6.81660156 42.25 7.20507812 C44.16995053 8.12993234 46.085439 9.06403978 48 10 C45.23367041 12.76632959 43.93313198 12.9297655 40 13 C37.45377515 11.8937092 35.06263724 10.58616264 32.62109375 9.265625 C29.38140634 7.701305 26.37878118 7.11352102 22.8515625 6.53125 C17.96729118 5.62130356 13.20574876 4.21712272 8.41796875 2.90234375 C5.61820404 2.16320587 2.84587674 1.52580961 0 1 C0 0.67 0 0.34 0 0 Z " fill="#42869D" transform="translate(278,34)"/>
<path d="M0 0 C4.29238623 1.65091778 6.8793915 4.73754566 10 8 C8.75928315 13.79001199 5.80261285 16.80580938 1 20 C0.34 20 -0.32 20 -1 20 C-1.02689449 17.04160645 -1.04678741 14.08345573 -1.0625 11.125 C-1.07087891 10.28324219 -1.07925781 9.44148438 -1.08789062 8.57421875 C-1.09111328 7.76855469 -1.09433594 6.96289062 -1.09765625 6.1328125 C-1.10289307 5.38918457 -1.10812988 4.64555664 -1.11352539 3.87939453 C-1 2 -1 2 0 0 Z " fill="#26455F" transform="translate(276,78)"/>
<path d="M0 0 C0.66 0 1.32 0 2 0 C2.04898438 1.07121094 2.09796875 2.14242187 2.1484375 3.24609375 C2.22345294 4.64325639 2.2990013 6.0403905 2.375 7.4375 C2.4059375 8.14455078 2.436875 8.85160156 2.46875 9.58007812 C2.57280629 11.39239188 2.77919892 13.19817988 3 15 C3.66 15.33 4.32 15.66 5 16 C4.01 17.32 3.02 18.64 2 20 C-1.98145181 17.83864045 -5.1359398 15.53795672 -8 12 C-8.125 9.5 -8.125 9.5 -7 7 C-4.5625 4.3125 -4.5625 4.3125 -2 2 C-1.34 1.34 -0.68 0.68 0 0 Z " fill="#253F59" transform="translate(252,58)"/>
<path d="M0 0 C8.98106552 2.59247252 16.53723656 8.46515387 22 16 C21.34 16 20.68 16 20 16 C20.33 16.99 20.66 17.98 21 19 C21.66 18.34 22.32 17.68 23 17 C25.125 21.625 25.125 21.625 24 25 C20.97484531 24.67587628 20.08758661 24.10171348 18.0625 21.75 C17.381875 20.8425 16.70125 19.935 16 19 C14.3545622 17.31237149 12.68711423 15.6459651 11 14 C9.33333333 12.33333333 7.66666667 10.66666667 6 9 C6.66 9 7.32 9 8 9 C8.33 8.34 8.66 7.68 9 7 C8.3503125 6.57847656 7.700625 6.15695313 7.03125 5.72265625 C5.77828125 4.90087891 5.77828125 4.90087891 4.5 4.0625 C3.6646875 3.51722656 2.829375 2.97195312 1.96875 2.41015625 C1.3190625 1.94480469 0.669375 1.47945312 0 1 C0 0.67 0 0.34 0 0 Z " fill="#BA9549" transform="translate(314,59)"/>
<path d="M0 0 C0.89203125 0.00902344 1.7840625 0.01804688 2.703125 0.02734375 C3.37859375 0.03894531 4.0540625 0.05054688 4.75 0.0625 C4.75 4.0625 4.75 4.0625 3.47265625 5.51953125 C2.92480469 5.96683594 2.37695312 6.41414063 1.8125 6.875 C-0.93800459 9.40546423 -1.24100436 10.02266215 -2.125 13.9375 C-2.16625 14.96875 -2.2075 16 -2.25 17.0625 C-2.476875 16.44375 -2.70375 15.825 -2.9375 15.1875 C-4.62929835 12.44839791 -6.24244161 12.01225528 -9.25 11.0625 C-9.25 7.7625 -9.25 4.4625 -9.25 1.0625 C-5.84112017 0.21028004 -3.44565369 -0.04533755 0 0 Z " fill="#213650" transform="translate(265.25,54.9375)"/>
<path d="M0 0 C2 1 2 1 3.33203125 3.26171875 C5.14923356 6.24499467 7.18569064 8.38320685 9.6875 10.8125 C10.49574219 11.60269531 11.30398437 12.39289063 12.13671875 13.20703125 C12.75160156 13.79871094 13.36648437 14.39039062 14 15 C13.67 15.66 13.34 16.32 13 17 C12.54109375 16.52949219 12.0821875 16.05898437 11.609375 15.57421875 C7.77414308 11.66905586 7.77414308 11.66905586 3.5625 8.1875 C3.046875 7.795625 2.53125 7.40375 2 7 C2 6.34 2 5.68 2 5 C1.34 5 0.68 5 0 5 C0.33 10.28 0.66 15.56 1 21 C6.94 21 12.88 21 19 21 C19 21.33 19 21.66 19 22 C13.39 22 7.78 22 2 22 C6.61358798 28.33323203 6.61358798 28.33323203 12 34 C7.80614912 32.64359718 5.61163385 30.88833018 2.75 27.5625 C2.06421875 26.78003906 1.3784375 25.99757813 0.671875 25.19140625 C-2.45567357 21.09197926 -2.18308276 16.99655299 -2.1875 12.0625 C-2.20586914 10.98838867 -2.20586914 10.98838867 -2.22460938 9.89257812 C-2.23515333 6.10026892 -2.12309215 3.21400906 0 0 Z " fill="#457C9E" transform="translate(242,66)"/>
<path d="M0 0 C0 1.32 0 2.64 0 4 C-5.44617725 8.74484123 -11.62460718 12.55611469 -19 12.375 C-19.845625 12.27960938 -20.69125 12.18421875 -21.5625 12.0859375 C-24.48162226 11.98301973 -26.31984816 12.91559646 -29 14 C-29.99 13.67 -30.98 13.34 -32 13 C-25.04184704 9.74764985 -18.00731323 6.68782402 -10.9375 3.6875 C-10.0921167 3.32591797 -9.2467334 2.96433594 -8.37573242 2.59179688 C-7.58013916 2.25599609 -6.7845459 1.92019531 -5.96484375 1.57421875 C-5.2493335 1.27088623 -4.53382324 0.96755371 -3.79663086 0.6550293 C-2 0 -2 0 0 0 Z " fill="#C59D4E" transform="translate(224,58)"/>
<path d="M0 0 C-1 3 -1 3 -3.515625 5.1328125 C-6.89079906 9.02806054 -6.7417991 11.88065436 -6.75 16.875 C-6.78363096 18.43495935 -6.82005165 19.99486126 -6.859375 21.5546875 C-6.88161133 22.67375488 -6.88161133 22.67375488 -6.90429688 23.81542969 C-7.04059824 26.92671699 -7.49225773 29.92897822 -8 33 C-8.33 33 -8.66 33 -9 33 C-9.33 26.07 -9.66 19.14 -10 12 C-13.465 13.485 -13.465 13.485 -17 15 C-17.33 13.68 -17.66 12.36 -18 11 C-17.21625 10.7525 -16.4325 10.505 -15.625 10.25 C-12.88752074 9.28917624 -12.88752074 9.28917624 -12.1171875 7.09375 C-10.67999485 4.40027007 -9.1789066 3.65903529 -6.5 2.25 C-5.30890625 1.60804687 -5.30890625 1.60804687 -4.09375 0.953125 C-2 0 -2 0 0 0 Z " fill="#A68750" transform="translate(317,90)"/>
<path d="M0 0 C0.39832031 0.74765625 0.79664063 1.4953125 1.20703125 2.265625 C1.73683594 3.25046875 2.26664063 4.2353125 2.8125 5.25 C3.33457031 6.22453125 3.85664063 7.1990625 4.39453125 8.203125 C5.78965188 10.63355412 7.26195961 12.80787699 9 15 C2.96368881 13.30559686 -2.41086892 10.91398164 -7.9375 8 C-8.60015869 7.65582031 -9.26281738 7.31164062 -9.94555664 6.95703125 C-13.17839947 5.21707099 -14.92790391 4.10814413 -17 1 C-14.55853792 1.94945748 -12.19182705 2.8984445 -9.875 4.125 C-7.89176146 5.21144273 -7.89176146 5.21144273 -5 5 C-5.33 3.68 -5.66 2.36 -6 1 C-4 0 -4 0 0 0 Z " fill="#E0C99D" transform="translate(236,86)"/>
<path d="M0 0 C2 0 4 0 6 0 C6 0.66 6 1.32 6 2 C6.66 2.33 7.32 2.66 8 3 C8.144375 4.134375 8.28875 5.26875 8.4375 6.4375 C8.623125 7.613125 8.80875 8.78875 9 10 C9.99 10.66 10.98 11.32 12 12 C12 12.66 12 13.32 12 14 C8.7 14.33 5.4 14.66 2 15 C-0.35119399 11.47320901 -0.21443452 9.97120515 -0.125 5.8125 C-0.10695312 4.72582031 -0.08890625 3.63914062 -0.0703125 2.51953125 C-0.04710937 1.68808594 -0.02390625 0.85664062 0 0 Z " fill="#615A50" transform="translate(199,123)"/>
<path d="M0 0 C1.07765625 0.00902344 2.1553125 0.01804688 3.265625 0.02734375 C4.08546875 0.03894531 4.9053125 0.05054688 5.75 0.0625 C3.16798111 1.48343973 1.95451088 2.06704469 -1.0625 2 C-5.04611277 2.07811005 -7.6679236 3.36915479 -11.25 5.0625 C-12.03761719 5.31644531 -12.82523438 5.57039063 -13.63671875 5.83203125 C-19.07099005 8.39076886 -23.41271692 13.79263385 -26.25 19.0625 C-27.28731611 23.46875719 -27.49733893 27.55220179 -27.25 32.0625 C-29.58944729 29.72305271 -29.56880066 29.18650261 -29.625 26 C-29.48073234 19.60069894 -26.84085221 14.79876581 -23.6875 9.375 C-16.94969846 2.98272675 -9.14322668 -0.0993829 0 0 Z " fill="#526F95" transform="translate(592.25,41.9375)"/>
<path d="M0 0 C0 0.99 0 1.98 0 3 C-0.99 3.33 -1.98 3.66 -3 4 C-2.67 4.66 -2.34 5.32 -2 6 C0.32156597 6.40729228 2.6568787 6.74438677 5 7 C1.7469538 9.30424106 -1.0427913 9.15616867 -4.90234375 8.54296875 C-8.47486252 7.61823856 -10.96662717 6.12336098 -14 4 C-15.1953125 1.86328125 -15.1953125 1.86328125 -16 0 C-10.39436958 -0.82622671 -5.57710648 -1.06795656 0 0 Z " fill="#4E5054" transform="translate(218,137)"/>
<path d="M0 0 C1.32451172 0.433125 1.32451172 0.433125 2.67578125 0.875 C10.33096702 3.24309184 16.989138 4.58855313 25 4 C22.08235 5.9451 20.37462715 6.45276317 17 7 C17 7.99 17 8.98 17 10 C19.64 10 22.28 10 25 10 C25 10.33 25 10.66 25 11 C15.52109143 11.81093324 9.58628908 9.61915139 1.71484375 4.51953125 C1.14894531 4.01808594 0.58304688 3.51664063 0 3 C0 2.01 0 1.02 0 0 Z " fill="#475F7C" transform="translate(165,45)"/>
<path d="M0 0 C0.33 0 0.66 0 1 0 C1 16.5 1 33 1 50 C-7.91 50 -16.82 50 -26 50 C-26 49.67 -26 49.34 -26 49 C-18.08 48.67 -10.16 48.34 -2 48 C-0.67884521 44.03653564 -0.8968947 40.26159305 -0.9375 36.1328125 C-0.94128662 35.26107391 -0.94507324 34.38933533 -0.94897461 33.49118042 C-0.96532143 29.76147746 -0.99341133 26.03188397 -1.02050781 22.30224609 C-1.03861443 19.57910673 -1.0506971 16.85598531 -1.0625 14.1328125 C-1.07079834 13.29307892 -1.07909668 12.45334534 -1.08764648 11.58816528 C-1.10436995 7.58467915 -1.00489499 3.90781505 0 0 Z " fill="#364D6B" transform="translate(393,76)"/>
<path d="M0 0 C7.92 0 15.84 0 24 0 C24 17.16 24 34.32 24 52 C23.67 52 23.34 52 23 52 C23 35.5 23 19 23 2 C17.06 2.495 17.06 2.495 11 3 C5.375 2.9375 5.375 2.9375 2.9609375 2.83984375 C0.76202811 2.8065052 0.76202811 2.8065052 -1 5 C-0.67 3.35 -0.34 1.7 0 0 Z " fill="#3D5777" transform="translate(452,42)"/>
<path d="M0 0 C0.66 0.33 1.32 0.66 2 1 C-2.64219127 6.44952888 -8.99854917 9.8292656 -16 11 C-17.3303125 11.3403125 -17.3303125 11.3403125 -18.6875 11.6875 C-19.8321875 11.8421875 -19.8321875 11.8421875 -21 12 C-21.66 11.34 -22.32 10.68 -23 10 C-21.75237172 6.15314615 -20.6129609 3.97070595 -17 2 C-16.01 2.33 -15.02 2.66 -14 3 C-14 3.33 -14 3.66 -14 4 C-11.34267375 4.99649734 -9.59673094 5.22657829 -6.921875 4.2109375 C-3.21555997 2.46592473 -3.21555997 2.46592473 0 0 Z " fill="#655D4E" transform="translate(274,122)"/>
<path d="M0 0 C-1.38188453 3.21043882 -2.92421903 5.04936365 -5.625 7.25 C-6.25664062 7.77078125 -6.88828125 8.2915625 -7.5390625 8.828125 C-8.02117187 9.21484375 -8.50328125 9.6015625 -9 10 C-12.3922861 8.99148251 -13.71288601 8.4823515 -15.5625 5.375 C-16.2740625 4.199375 -16.2740625 4.199375 -17 3 C-18.32 3 -19.64 3 -21 3 C-21 2.34 -21 1.68 -21 1 C-18.25008168 0.83188272 -15.50007888 0.6654519 -12.75 0.5 C-11.97269531 0.45230469 -11.19539062 0.40460938 -10.39453125 0.35546875 C-9.26337891 0.28779297 -9.26337891 0.28779297 -8.109375 0.21875 C-7.41811523 0.17685547 -6.72685547 0.13496094 -6.01464844 0.09179688 C-4.01161035 0.00052902 -2.0051163 0 0 0 Z " fill="#1D2945" transform="translate(265,87)"/>
<path d="M0 0 C0 2 0 2 -1.12109375 3.453125 C-3.58515183 5.48174662 -6.11620957 6.53282048 -9.0625 7.75 C-10.12597656 8.19859375 -11.18945312 8.6471875 -12.28515625 9.109375 C-15 10 -15 10 -17 9 C-16.67 8.34 -16.34 7.68 -16 7 C-16.77085937 7.37253906 -17.54171875 7.74507812 -18.3359375 8.12890625 C-19.33882812 8.60199219 -20.34171875 9.07507812 -21.375 9.5625 C-22.37273437 10.03816406 -23.37046875 10.51382813 -24.3984375 11.00390625 C-25.25695312 11.33261719 -26.11546875 11.66132812 -27 12 C-27.66 11.67 -28.32 11.34 -29 11 C-25.89779023 9.35045833 -22.79290789 7.7060119 -19.6875 6.0625 C-18.80642578 5.59392578 -17.92535156 5.12535156 -17.01757812 4.64257812 C-16.17001953 4.19462891 -15.32246094 3.74667969 -14.44921875 3.28515625 C-13.27879028 2.66459351 -13.27879028 2.66459351 -12.0847168 2.03149414 C-7.9291849 -0.02461574 -4.58465216 -0.08650287 0 0 Z " fill="#E0B95A" transform="translate(240,51)"/>
<path d="M0 0 C0 1.65 0 3.3 0 5 C-0.99 4.34 -1.98 3.68 -3 3 C-5.64632287 3.3121764 -5.64632287 3.3121764 -8 4 C-8.33 5.65 -8.66 7.3 -9 9 C-11 7.625 -11 7.625 -13 6 C-13 5.34 -13 4.68 -13 4 C-16.27773504 4.75150023 -16.27773504 4.75150023 -18 8 C-18.3125 5.25 -18.3125 5.25 -18 2 C-15.71534676 -0.41520486 -13.75648457 -1.69331707 -10.6875 -2.9375 C-6.74350721 -3.02922076 -3.57173836 -1.56872876 0 0 Z " fill="#A08755" transform="translate(218,119)"/>
<path d="M0 0 C1.32 0 2.64 0 4 0 C4.33 2.97 4.66 5.94 5 9 C5.99 9.33 6.98 9.66 8 10 C8.33 10.99 8.66 11.98 9 13 C9.66 13 10.32 13 11 13 C11 13.66 11 14.32 11 15 C11.99 14.67 12.98 14.34 14 14 C14.33 15.32 14.66 16.64 15 18 C10.55932381 17.4836423 7.75431845 16.3711485 4 14 C3.34 13.87625 2.68 13.7525 2 13.625 C-1.12836168 12.64738697 -2.82105537 10.36052334 -5 8 C-1.9168649 9.19899698 1.06279492 10.47700477 4 12 C4 11.34 4 10.68 4 10 C3.34 10 2.68 10 2 10 C1.34 8.02 0.68 6.04 0 4 C-0.66 4 -1.32 4 -2 4 C-1.34 2.68 -0.68 1.36 0 0 Z " fill="#E1C494" transform="translate(217,74)"/>
<path d="M0 0 C4.00695297 1.36649195 6.6767174 3.17103527 9.8125 6 C10.60269531 6.70125 11.39289063 7.4025 12.20703125 8.125 C14 10 14 10 14 12 C12.58344207 12.0272415 11.16672955 12.04650467 9.75 12.0625 C8.56664062 12.07990234 8.56664062 12.07990234 7.359375 12.09765625 C5.03714857 12.00153761 3.1699279 11.84012695 1 11 C-0.28317892 7.15046324 -0.06643637 4.05261865 0 0 Z " fill="#223A54" transform="translate(244,74)"/>
<path d="M0 0 C4.49457587 1.46761661 7.75984913 3.97830424 11.3125 7 C12.13717773 7.67675781 12.13717773 7.67675781 12.97851562 8.3671875 C14.36189971 9.52888643 15.68650591 10.75982695 17 12 C17 12.66 17 13.32 17 14 C13.55965059 16.16614592 11.87260168 15.8500833 8 15 C5.27497035 15.37722015 5.27497035 15.37722015 3 16 C3.680625 15.2575 4.36125 14.515 5.0625 13.75 C7.28353676 11.24050936 7.28353676 11.24050936 6.75 8.6875 C6.5025 8.130625 6.255 7.57375 6 7 C5.01 7.66 4.02 8.32 3 9 C3.2475 8.2575 3.495 7.515 3.75 6.75 C3.8325 5.8425 3.915 4.935 4 4 C2.16641665 1.66545339 2.16641665 1.66545339 0 0 Z " fill="#A78952" transform="translate(331,70)"/>
<path d="M0 0 C4.76954733 2.51028807 4.76954733 2.51028807 6 5.125 C6.495 6.053125 6.495 6.053125 7 7 C9.55519921 7.81171228 9.55519921 7.81171228 12 8 C12 8.33 12 8.66 12 9 C5.4 9.33 -1.2 9.66 -8 10 C-5.77502475 5.55004949 -3.55366005 3.39915309 0 0 Z " fill="#263A53" transform="translate(273,59)"/>
<path d="M0 0 C0 7.59 0 15.18 0 23 C-5.28 23 -10.56 23 -16 23 C-16 22.67 -16 22.34 -16 22 C-11.38 21.67 -6.76 21.34 -2 21 C-2 14.73 -2 8.46 -2 2 C-3.32 2.33 -4.64 2.66 -6 3 C-7.134375 3.12375 -8.26875 3.2475 -9.4375 3.375 C-12.99660257 3.99940396 -15.0658817 4.95500845 -18 7 C-18.33 5.68 -18.66 4.36 -19 3 C-13.02822245 -1.09493318 -7.06623415 -0.21631329 0 0 Z " fill="#3A5375" transform="translate(421,41)"/>
<path d="M0 0 C0.73734375 0.22623047 1.4746875 0.45246094 2.234375 0.68554688 C7.74169726 2.42919726 7.74169726 2.42919726 10 4.6875 C8.9275 4.666875 7.855 4.64625 6.75 4.625 C3.27619072 4.49820265 3.27619072 4.49820265 1.1875 5.28125 C-2.02658165 5.87815088 -4.5996965 5.03757587 -7.75 4.25 C-8.92046875 3.96253906 -10.0909375 3.67507812 -11.296875 3.37890625 C-12.63492187 3.03666016 -12.63492187 3.03666016 -14 2.6875 C-8.82149577 -2.66362104 -6.88875531 -2.22198489 0 0 Z " fill="#E8C661" transform="translate(291,49.3125)"/>
<path d="M0 0 C-1.45537568 0.83848804 -2.91440373 1.67063934 -4.375 2.5 C-5.59316406 3.19609375 -5.59316406 3.19609375 -6.8359375 3.90625 C-9 5 -9 5 -11 5 C-10.67 6.32 -10.34 7.64 -10 9 C-9.236875 8.649375 -8.47375 8.29875 -7.6875 7.9375 C-5 7 -5 7 -2 8 C-3.90607285 9.06092734 -5.82532746 10.09820101 -7.75 11.125 C-8.81734375 11.70507812 -9.8846875 12.28515625 -10.984375 12.8828125 C-14 14 -14 14 -16.390625 13.1796875 C-16.92171875 12.79039063 -17.4528125 12.40109375 -18 12 C-17.34 12 -16.68 12 -16 12 C-16.33 11.34 -16.66 10.68 -17 10 C-19.02463255 9.34786708 -19.02463255 9.34786708 -21 9 C-18.41210938 7.97460938 -18.41210938 7.97460938 -15.82421875 6.94921875 C-13.93646874 6.0856568 -13.93646874 6.0856568 -12.5546875 4.53515625 C-10.67415524 2.67824877 -8.84921567 1.81481021 -6.4375 0.75 C-5.65246094 0.39421875 -4.86742187 0.0384375 -4.05859375 -0.328125 C-2 -1 -2 -1 0 0 Z " fill="#3E6F93" transform="translate(213,40)"/>
<path d="M0 0 C0 5.0715362 -2.42819673 9.00262798 -4.9375 13.3125 C-5.44152344 14.19550781 -5.94554687 15.07851562 -6.46484375 15.98828125 C-7.22474609 16.98408203 -7.22474609 16.98408203 -8 18 C-8.99 18 -9.98 18 -11 18 C-12.39151652 13.20699867 -11.68662689 8.84864218 -11 4 C-10.67 4 -10.34 4 -10 4 C-10 6.31 -10 8.62 -10 11 C-9.01 11 -8.02 11 -7 11 C-6.938125 10.278125 -6.87625 9.55625 -6.8125 8.8125 C-5.75187255 5.1410973 -3.80330069 3.52297062 -1 1 C-0.67 0.67 -0.34 0.34 0 0 Z " fill="#595551" transform="translate(320,122)"/>
<path d="M0 0 C4.03119644 0.52672427 6.13732125 1.57672358 9.125 4.3125 C10.11886719 5.20388672 10.11886719 5.20388672 11.1328125 6.11328125 C15.33095038 10.35533271 16.91729053 13.2606622 17.09765625 19.234375 C17.08605469 20.39453125 17.07445312 21.5546875 17.0625 22.75 C17.05347656 23.92046875 17.04445313 25.0909375 17.03515625 26.296875 C17.02355469 27.18890625 17.01195312 28.0809375 17 29 C16.67 29 16.34 29 16 29 C15.93941406 28.24074219 15.87882812 27.48148438 15.81640625 26.69921875 C15.69072266 25.20841797 15.69072266 25.20841797 15.5625 23.6875 C15.48128906 22.70136719 15.40007812 21.71523437 15.31640625 20.69921875 C15.08187441 17.90624401 15.08187441 17.90624401 14 15 C8.06 14.67 2.12 14.34 -4 14 C-4 13.67 -4 13.34 -4 13 C1.61 13 7.22 13 13 13 C9.10909673 7.16364509 6.57254546 4.19084849 0 2 C0 1.34 0 0.68 0 0 Z " fill="#5AA7BD" transform="translate(272,55)"/>
<path d="M0 0 C6.20951767 0.32681672 10.62726592 1.92782493 16 5 C13.29035117 7.70964883 11.82413857 7.85836524 8 8 C5.11005557 7.01731323 2.4638041 5.81110182 0 4 C-0.33 3.01 -0.66 2.02 -1 1 C-0.67 0.67 -0.34 0.34 0 0 Z " fill="#3983AD" transform="translate(310,39)"/>
<path d="M0 0 C0.66 0 1.32 0 2 0 C2 2.64 2 5.28 2 8 C-0.475 7.01 -0.475 7.01 -3 6 C-3.33 7.98 -3.66 9.96 -4 12 C-3.34 12 -2.68 12 -2 12 C-2 13.65 -2 15.3 -2 17 C-3.98 15.35 -5.96 13.7 -8 12 C-7.58388059 7.1452735 -5.54108048 5.19560921 -2 2 C-1.34 1.34 -0.68 0.68 0 0 Z " fill="#112139" transform="translate(252,58)"/>
<path d="M0 0 C6.8366214 0.44085356 11.89312423 1.89483262 18 4.9375 C18.76183594 5.29779297 19.52367187 5.65808594 20.30859375 6.02929688 C25.85732198 8.71464396 25.85732198 8.71464396 27 11 C25.7625 10.566875 25.7625 10.566875 24.5 10.125 C20.69204819 8.90101549 16.88729173 7.9383118 13 7 C12.67 7.99 12.34 8.98 12 10 C9.69 9.34 7.38 8.68 5 8 C5 7.34 5 6.68 5 6 C8.465 5.505 8.465 5.505 12 5 C8.04 3.68 4.08 2.36 0 1 C0 0.67 0 0.34 0 0 Z " fill="#A6925D" transform="translate(287,48)"/>
<path d="M0 0 C8.58 0 17.16 0 26 0 C26 0.33 26 0.66 26 1 C24.35 1.33 22.7 1.66 21 2 C21.66 2.66 22.32 3.32 23 4 C16.73 4 10.46 4 4 4 C5.32 3.34 6.64 2.68 8 2 C5.36 1.67 2.72 1.34 0 1 C0 0.67 0 0.34 0 0 Z " fill="#4FC4D3" transform="translate(251,28)"/>
<path d="M0 0 C-0.26171875 1.88671875 -0.26171875 1.88671875 -1 4 C-2.70703125 5.08203125 -2.70703125 5.08203125 -4.8125 5.8125 C-5.49957031 6.06644531 -6.18664062 6.32039063 -6.89453125 6.58203125 C-10.77794804 7.35295072 -13.61270307 5.81462335 -17 4 C-5.47835991 -0.59225513 -5.47835991 -0.59225513 0 0 Z " fill="#3F9DBB" transform="translate(233,34)"/>
<path d="M0 0 C-0.33 0.66 -0.66 1.32 -1 2 C-9.75418631 4.79416195 -22.65530432 7.69701233 -31.3984375 3.98046875 C-32.19121094 3.49513672 -32.19121094 3.49513672 -33 3 C-19.29609328 1.92216464 -19.29609328 1.92216464 -14.375 2.0625 C-9.22481214 1.96712615 -5.46709134 -0.21027274 0 0 Z " fill="#496A95" transform="translate(623,123)"/>
<path d="M0 0 C5.54372103 1.10874421 8.0966565 1.84482789 12 6 C14.28824482 7.18151203 16.5901807 8.07314642 19 9 C19 9.66 19 10.32 19 11 C14.21357393 10.4253379 10.46211213 9.01754357 6.125 6.9375 C4.97257813 6.38964844 3.82015625 5.84179688 2.6328125 5.27734375 C1.76398438 4.85582031 0.89515625 4.43429688 0 4 C0 2.68 0 1.36 0 0 Z " fill="#1B1C2D" transform="translate(224,93)"/>
<path d="M0 0 C0.33 0 0.66 0 1 0 C1.12117187 1.16917969 1.24234375 2.33835937 1.3671875 3.54296875 C1.53608401 5.09118671 1.70537568 6.63936161 1.875 8.1875 C1.95363281 8.95642578 2.03226563 9.72535156 2.11328125 10.51757812 C2.75806289 16.29581363 4.32215845 20.83559129 7 26 C2.50417591 24.19398519 1.16445302 21.4810288 -1.02734375 17.33203125 C-2.23336785 14.44047949 -2.39707561 12.09718975 -2 9 C-1.67 9 -1.34 9 -1 9 C-0.67 6.03 -0.34 3.06 0 0 Z " fill="#111227" transform="translate(238,73)"/>
<path d="M0 0 C0 2.97 0 5.94 0 9 C-2.90600261 10.25664978 -4.79604584 11 -8 11 C-7.71915428 6.97454466 -7.21634296 5.25517374 -4.5625 2.125 C-2 0 -2 0 0 0 Z " fill="#213551" transform="translate(272,85)"/>
<path d="M0 0 C3.20825562 -0.05849554 6.41637233 -0.09376162 9.625 -0.125 C10.52863281 -0.14175781 11.43226563 -0.15851562 12.36328125 -0.17578125 C17.32750152 -0.21201643 21.34411907 0.03555854 26 2 C26 2.33 26 2.66 26 3 C22.22918278 3.02899599 18.45839417 3.04679729 14.6875 3.0625 C13.0797168 3.07506836 13.0797168 3.07506836 11.43945312 3.08789062 C10.41142578 3.09111328 9.38339844 3.09433594 8.32421875 3.09765625 C7.37635498 3.10289307 6.42849121 3.10812988 5.4519043 3.11352539 C3 3 3 3 0 2 C0 1.34 0 0.68 0 0 Z " fill="#222125" transform="translate(255,50)"/>
<path d="M0 0 C4.29238623 1.65091778 6.8793915 4.73754566 10 8 C8.74186681 13.87128823 5.73769335 16.65155507 1 20 C0.67 20 0.34 20 0 20 C0 18.02 0 16.04 0 14 C1.32 14.33 2.64 14.66 4 15 C4 14.01 4 13.02 4 12 C4.66 11.67 5.32 11.34 6 11 C5.55530671 5.96014269 3.28656638 3.62365012 0 0 Z " fill="#0A1734" transform="translate(276,78)"/>
<path d="M0 0 C3.41437991 1.31228836 6.63624609 2.80301712 9.875 4.5 C12.87011527 6.03321377 15.59300089 7.26437951 18.875 8 C22.63612623 9.20356039 23.86278875 10.75143891 26 14 C19.96368881 12.30559686 14.58913108 9.91398164 9.0625 7 C8.39984131 6.65582031 7.73718262 6.31164062 7.05444336 5.95703125 C3.82160053 4.21707099 2.07209609 3.10814413 0 0 Z " fill="#E2D8BD" transform="translate(219,87)"/>
<path d="M0 0 C2 1 2 1 3.33203125 3.26171875 C5.14923356 6.24499467 7.18569064 8.38320685 9.6875 10.8125 C10.49574219 11.60269531 11.30398437 12.39289063 12.13671875 13.20703125 C12.75160156 13.79871094 13.36648437 14.39039062 14 15 C13.67 15.66 13.34 16.32 13 17 C12.54109375 16.52949219 12.0821875 16.05898437 11.609375 15.57421875 C7.77414308 11.66905586 7.77414308 11.66905586 3.5625 8.1875 C3.046875 7.795625 2.53125 7.40375 2 7 C2 6.34 2 5.68 2 5 C1.34 5 0.68 5 0 5 C-0.33 8.96 -0.66 12.92 -1 17 C-1.33 17 -1.66 17 -2 17 C-2.05418326 14.91695462 -2.09287551 12.83350232 -2.125 10.75 C-2.14820313 9.58984375 -2.17140625 8.4296875 -2.1953125 7.234375 C-2.0103949 4.17213954 -1.60823023 2.55797249 0 0 Z " fill="#4F93AA" transform="translate(242,66)"/>
<path d="M0 0 C0.66 0 1.32 0 2 0 C2.25136719 0.58523437 2.50273437 1.17046875 2.76171875 1.7734375 C5.40819019 6.532077 10.15002112 10.11355178 15 12.4375 C15.66 12.623125 16.32 12.80875 17 13 C15.78065514 17.03321763 14.44045073 20.54269479 12 24 C11.34 24 10.68 24 10 24 C10.309375 23.2575 10.61875 22.515 10.9375 21.75 C11.288125 20.8425 11.63875 19.935 12 19 C12.25136719 18.35546875 12.50273437 17.7109375 12.76171875 17.046875 C13.2401339 14.91956046 13.2401339 14.91956046 11.7421875 13.21875 C11.12601562 12.6515625 10.50984375 12.084375 9.875 11.5 C9.23046875 10.89542969 8.5859375 10.29085937 7.921875 9.66796875 C6.37258024 8.32335724 4.75757314 7.05467522 3.125 5.8125 C0.84794828 3.87030883 0.31375715 2.92840005 0 0 Z " fill="#4B86A3" transform="translate(272,71)"/>
<path d="M0 0 C2.125 0.9375 2.125 0.9375 4 2 C0.32442148 6.00972202 -3.18966896 8.45335415 -8 11 C-8.33 9.35 -8.66 7.7 -9 6 C-8.34 6 -7.68 6 -7 6 C-7 5.01 -7 4.02 -7 3 C-5.35 3.33 -3.7 3.66 -2 4 C-2 3.01 -2 2.02 -2 1 C-1.34 0.67 -0.68 0.34 0 0 Z " fill="#82714F" transform="translate(283,114)"/>
<path d="M0 0 C6.10642479 -0.78287497 10.00459579 1.89174849 15 5 C12.3333581 6.33332095 10.83319697 5.67102033 8 5 C8.33 5.66 8.66 6.32 9 7 C5.04179141 6.43454163 2.3340947 5.19097652 -1 3 C-0.67 2.01 -0.34 1.02 0 0 Z " fill="#E0BA59" transform="translate(300,55)"/>
<path d="M0 0 C0.66 0.33 1.32 0.66 2 1 C-4.60734511 5.40489674 -11.55381078 9.19449528 -19 12 C-19.66 11.67 -20.32 11.34 -21 11 C-19.02 8.69 -17.04 6.38 -15 4 C-13.92298828 4.32484375 -13.92298828 4.32484375 -12.82421875 4.65625 C-9.29207499 5.08616515 -7.87137017 4.23999272 -4.8125 2.5 C-2.20703125 1.03125 -2.20703125 1.03125 0 0 Z " fill="#DFD5B8" transform="translate(305,89)"/>
<path d="M0 0 C1.44632813 0.6496875 1.44632813 0.6496875 2.921875 1.3125 C4.19774701 1.87538471 5.47379817 2.43786348 6.75 3 C7.38421875 3.28617187 8.0184375 3.57234375 8.671875 3.8671875 C12.08417104 5.36006702 14.20781917 6 18 6 C18.12375 6.639375 18.2475 7.27875 18.375 7.9375 C18.58125 8.618125 18.7875 9.29875 19 10 C19.66 10.33 20.32 10.66 21 11 C16.07102954 10.43971764 12.06586674 8.85331704 7.6875 6.625 C7.05521484 6.32078125 6.42292969 6.0165625 5.77148438 5.703125 C1.12396437 3.3718931 1.12396437 3.3718931 0 0 Z " fill="#A27D3A" transform="translate(222,97)"/>
<path d="M0 0 C1.67374877 0.2957261 3.33916057 0.63875038 5 1 C8.25009316 1.02402392 11.48792136 0.97523698 14.73632812 0.87304688 C16.49114463 0.84336341 18.24699476 0.91494294 20 1 C20.66 1.66 21.32 2.32 22 3 C18.41786361 4.19404546 15.46378742 4.168824 11.6875 4.1875 C10.39199219 4.20167969 9.09648437 4.21585937 7.76171875 4.23046875 C4.1337412 4.00819391 1.3667272 3.32059222 -2 2 C-1.34 1.34 -0.68 0.68 0 0 Z " fill="#AC8F58" transform="translate(168,70)"/>
<path d="M0 0 C0 0.66 0 1.32 0 2 C0.66 2.33 1.32 2.66 2 3 C1.34 3 0.68 3 0 3 C0 3.66 0 4.32 0 5 C-3.71888239 4.49287967 -6.73454239 3.88391785 -10 2 C-10 1.01 -10 0.02 -10 -1 C-6.06329512 -2.31223496 -3.87511856 -1.24296256 0 0 Z " fill="#409FBB" transform="translate(303,34)"/>
<path d="M0 0 C8.58 0 17.16 0 26 0 C25.01 1.485 25.01 1.485 24 3 C22.1081543 3.26464844 22.1081543 3.26464844 19.82421875 3.109375 C18.99599609 3.05910156 18.16777344 3.00882812 17.31445312 2.95703125 C16.44755859 2.88871094 15.58066406 2.82039063 14.6875 2.75 C13.83220703 2.69714844 12.97691406 2.64429687 12.09570312 2.58984375 C7.99177035 2.31646016 4.01157933 1.95947052 0 1 C0 0.67 0 0.34 0 0 Z " fill="#726348" transform="translate(251,112)"/>
<path d="M0 0 C6.15222436 0.43173504 9.81917949 1.65405342 15 5 C14.67 4.34 14.34 3.68 14 3 C16.91517292 4.07401108 18.77810176 4.77810176 21 7 C21 8.32 21 9.64 21 11 C17.48039315 9.71565224 14.65725064 8.18935064 11.625 6 C7.77401799 3.35527199 4.55225945 1.96856584 0 1 C0 0.67 0 0.34 0 0 Z " fill="#8B7245" transform="translate(190,83)"/>
<path d="M0 0 C1 1 1 1 1.0625 3.5625 C1.041875 4.366875 1.02125 5.17125 1 6 C-3.75 7.125 -3.75 7.125 -6 6 C-6 4.02 -6 2.04 -6 0 C-3.49749232 -1.25125384 -2.59701335 -0.83774624 0 0 Z " fill="#EFF2F3" transform="translate(261,67)"/>
<path d="M0 0 C0.66 0.33 1.32 0.66 2 1 C1.43410156 1.4846875 0.86820312 1.969375 0.28515625 2.46875 C-4.91779496 7.09303535 -4.91779496 7.09303535 -7 13.5 C-7 14.655 -7 15.81 -7 17 C-6.34 17 -5.68 17 -5 17 C-5 17.99 -5 18.98 -5 20 C-4.34 20 -3.68 20 -3 20 C-3 20.66 -3 21.32 -3 22 C-6 21 -6 21 -8 18 C-8.65192402 13.62867786 -9.00981874 9.00798572 -6.984375 4.98046875 C-4.86447542 2.35613523 -3.20940964 1.06980321 0 0 Z " fill="#F6EFDF" transform="translate(328,90)"/>
<path d="M0 0 C1.00496852 3.01490557 1.10335303 5.04181692 1.0625 8.1875 C1.05347656 9.08855469 1.04445313 9.98960938 1.03515625 10.91796875 C1.02355469 11.60503906 1.01195312 12.29210937 1 13 C-0.32 13 -1.64 13 -3 13 C-2.67 9.04 -2.34 5.08 -2 1 C-3.65 1 -5.3 1 -7 1 C-3.375 -1.125 -3.375 -1.125 0 0 Z " fill="#0D1D39" transform="translate(287,70)"/>
<path d="M0 0 C1.32 0 2.64 0 4 0 C4 3.3 4 6.6 4 10 C1 10 1 10 -0.8125 8.375 C-2 6 -2 6 -1.1875 2.75 C-0.795625 1.8425 -0.40375 0.935 0 0 Z " fill="#1B2C47" transform="translate(281,71)"/>
<path d="M0 0 C6.51819877 1.89536276 12.17814801 4.5178994 18 8 C18 8.33 18 8.66 18 9 C16.741875 8.87625 15.48375 8.7525 14.1875 8.625 C13.47980469 8.55539063 12.77210938 8.48578125 12.04296875 8.4140625 C10 8 10 8 7 6 C5.68 6 4.36 6 3 6 C2.01 4.02 1.02 2.04 0 0 Z " fill="#D8BE91" transform="translate(288,59)"/>
<path d="M0 0 C0.33 0 0.66 0 1 0 C1.01417969 0.73605469 1.02835937 1.47210938 1.04296875 2.23046875 C1.2709922 8.68004111 1.2709922 8.68004111 4.5625 14.0625 C5.366875 14.701875 6.17125 15.34125 7 16 C7 16.66 7 17.32 7 18 C3.82966958 17.66032174 3.00117393 17.00130809 0.8125 14.5625 C-1.41369126 11.41512615 -2.15265712 9.79090486 -2.1875 6 C-2.20167969 5.29875 -2.21585937 4.5975 -2.23046875 3.875 C-2 2 -2 2 0 0 Z " fill="#A18B5D" transform="translate(319,97)"/>
<path d="M0 0 C0.66 0 1.32 0 2 0 C1.52433594 1.05767578 1.52433594 1.05767578 1.0390625 2.13671875 C-0.04538286 5.12505879 -0.3964359 7.65069658 -0.625 10.8125 C-0.69976562 11.78832031 -0.77453125 12.76414062 -0.8515625 13.76953125 C-0.90054687 14.50558594 -0.94953125 15.24164063 -1 16 C-0.34 16 0.32 16 1 16 C0.67 18.31 0.34 20.62 0 23 C-1.32 23 -2.64 23 -4 23 C-3.84402344 22.4946875 -3.68804687 21.989375 -3.52734375 21.46875 C-2.55094721 16.89776768 -2.59442774 12.19018272 -2.37890625 7.53125 C-2.04373154 4.40755988 -1.64719914 2.61417839 0 0 Z " fill="#0D1939" transform="translate(291,67)"/>
<path d="M0 0 C-0.4375 2.3125 -0.4375 2.3125 -2 5 C-4.20076223 6.02501254 -6.37027481 6.68621203 -8.7109375 7.32421875 C-10.97864339 7.99369506 -12.92081758 8.88445692 -15 10 C-15.33 9.01 -15.66 8.02 -16 7 C-13.71070947 5.82845707 -11.41881638 4.66261926 -9.125 3.5 C-8.47402344 3.16613281 -7.82304687 2.83226562 -7.15234375 2.48828125 C-2.2265625 0 -2.2265625 0 0 0 Z " fill="#D3BD95" transform="translate(241,59)"/>
<path d="M0 0 C-1.15173355 2.46800047 -2.04783565 4.04783565 -4 6 C-4.99 6 -5.98 6 -7 6 C-7.33 5.01 -7.66 4.02 -8 3 C-12.29 3 -16.58 3 -21 3 C-21 2.34 -21 1.68 -21 1 C-18.25008168 0.83188272 -15.50007888 0.6654519 -12.75 0.5 C-11.97269531 0.45230469 -11.19539062 0.40460938 -10.39453125 0.35546875 C-9.26337891 0.28779297 -9.26337891 0.28779297 -8.109375 0.21875 C-7.41811523 0.17685547 -6.72685547 0.13496094 -6.01464844 0.09179688 C-4.01161035 0.00052902 -2.0051163 0 0 0 Z " fill="#2A5069" transform="translate(265,87)"/>
<path d="M0 0 C2 3 2 3 3 5 C3.66 4.34 4.32 3.68 5 3 C7.125 7.625 7.125 7.625 6 11 C2.90001254 10.66785849 1.9454988 9.9454988 -0.3125 7.6875 C-2 5 -2 5 -1.8125 2.75 C-1 1 -1 1 0 0 Z " fill="#B89048" transform="translate(332,73)"/>
<path d="M0 0 C4.29 0 8.58 0 13 0 C10.08235 1.9451 8.37462715 2.45276317 5 3 C5 3.99 5 4.98 5 6 C7.64 6 10.28 6 13 6 C13 6.33 13 6.66 13 7 C11.25034642 7.05429959 9.50020213 7.09292823 7.75 7.125 C6.77546875 7.14820313 5.8009375 7.17140625 4.796875 7.1953125 C1.9803502 6.99862781 0.39050964 6.44568916 -2 5 C0 4 0 4 3 4 C3 3.34 3 2.68 3 2 C2.01 2 1.02 2 0 2 C0 1.34 0 0.68 0 0 Z " fill="#365575" transform="translate(177,49)"/>
<path d="M0 0 C0 0.66 0 1.32 0 2 C0.99 2.33 1.98 2.66 3 3 C0.03 3.99 -2.94 4.98 -6 6 C-5.67 5.01 -5.34 4.02 -5 3 C-5.77085937 3.37253906 -6.54171875 3.74507812 -7.3359375 4.12890625 C-8.33882812 4.60199219 -9.34171875 5.07507812 -10.375 5.5625 C-11.37273437 6.03816406 -12.37046875 6.51382813 -13.3984375 7.00390625 C-14.25695312 7.33261719 -15.11546875 7.66132812 -16 8 C-16.66 7.67 -17.32 7.34 -18 7 C-6.21755725 0 -6.21755725 0 0 0 Z " fill="#D8B159" transform="translate(229,55)"/>
<path d="M0 0 C1.32 0 2.64 0 4 0 C3.84152588 0.51208008 3.68305176 1.02416016 3.51977539 1.55175781 C2.8357732 4.77353987 2.77804763 7.8794827 2.68359375 11.171875 C2.66281265 11.8542926 2.64203156 12.53671021 2.62062073 13.23980713 C2.55547948 15.40977356 2.49640596 17.57985624 2.4375 19.75 C2.39428103 21.22527221 2.35066568 22.70053287 2.30664062 24.17578125 C2.19983482 27.78373166 2.09846847 31.39181133 2 35 C1.67 35 1.34 35 1 35 C0.505 17.675 0.505 17.675 0 0 Z " fill="#3E597D" transform="translate(367,42)"/>
<path d="M0 0 C0.33 0.66 0.66 1.32 1 2 C-6.13846154 5.2 -6.13846154 5.2 -10.5 4.1875 C-11.325 3.795625 -12.15 3.40375 -13 3 C-12 1 -12 1 -9.875 -0.1875 C-6.24156633 -1.21433995 -3.65407699 -0.84324854 0 0 Z " fill="#0D1C39" transform="translate(258,52)"/>
<path d="M0 0 C1.07765625 0.00902344 2.1553125 0.01804688 3.265625 0.02734375 C4.08546875 0.03894531 4.9053125 0.05054688 5.75 0.0625 C3.16798111 1.48343973 1.95451088 2.06704469 -1.0625 2 C-5.02550834 2.07770605 -7.67734186 3.4084916 -11.25 5.0625 C-14.88934426 6.24282787 -14.88934426 6.24282787 -17.25 5.0625 C-11.09887209 1.39548144 -7.26714163 -0.07899067 0 0 Z " fill="#486890" transform="translate(592.25,41.9375)"/>
<path d="M0 0 C0.66 0.99 1.32 1.98 2 3 C-4.625 6 -4.625 6 -8 6 C-8 5.01 -8 4.02 -8 3 C-8.66 2.67 -9.32 2.34 -10 2 C-6.32003497 -0.45331002 -4.34586828 -0.39507893 0 0 Z " fill="#3A8CB3" transform="translate(220,39)"/>
<path d="M0 0 C-0.33 0.99 -0.66 1.98 -1 3 C-1.5671875 2.67644531 -2.134375 2.35289063 -2.71875 2.01953125 C-6.40489455 0.3721276 -10.03522936 0.49803821 -14 1 C-16.5189267 2.31763329 -16.5189267 2.31763329 -18 4 C-16.63016497 0.83884224 -16.0109362 0.0072908 -13 -2 C-8.10871671 -3.81676237 -4.52496816 -1.98739296 0 0 Z " fill="#81714E" transform="translate(218,119)"/>
<path d="M0 0 C0 0.66 0 1.32 0 2 C1.32 2.33 2.64 2.66 4 3 C1.7234058 3.61292921 -0.39665947 4.04056745 -2.75 4.28125 C-6.67108946 5.14841401 -9.0952424 6.76666968 -12.375 9.0625 C-13.43460938 9.79597656 -14.49421875 10.52945313 -15.5859375 11.28515625 C-16.38257813 11.85105469 -17.17921875 12.41695312 -18 13 C-18.66 12.67 -19.32 12.34 -20 12 C-2 0 -2 0 0 0 Z " fill="#10101A" transform="translate(222,63)"/>
<path d="M0 0 C1.32 0.66 2.64 1.32 4 2 C4 2.66 4 3.32 4 4 C7.96 4 11.92 4 16 4 C16 4.33 16 4.66 16 5 C9.4 5.33 2.8 5.66 -4 6 C-2 2 -2 2 0 0 Z " fill="#2D576F" transform="translate(269,63)"/>
<path d="M0 0 C3 1 3 1 4.9375 3 C7.05674715 5.05502754 8.13747914 5.59106845 11 6 C11 6.66 11 7.32 11 8 C13.97 8.495 13.97 8.495 17 9 C17 9.99 17 10.98 17 12 C10.97046983 10.74384788 6.46739344 8.29280565 2 4 C0.76953125 1.8046875 0.76953125 1.8046875 0 0 Z " fill="#4D6A8E" transform="translate(566,79)"/>
<path d="M0 0 C1.98 0 3.96 0 6 0 C6.33 0.66 6.66 1.32 7 2 C9.12576782 2.46651207 9.12576782 2.46651207 11.5625 2.625 C12.38878906 2.69976562 13.21507812 2.77453125 14.06640625 2.8515625 C14.70449219 2.90054688 15.34257812 2.94953125 16 3 C16 3.33 16 3.66 16 4 C7.75 4 -0.5 4 -9 4 C-9 3.67 -9 3.34 -9 3 C-5.92382812 2.70703125 -5.92382812 2.70703125 -2.84765625 2.4140625 C-2.23792969 2.27742188 -1.62820313 2.14078125 -1 2 C-0.67 1.34 -0.34 0.68 0 0 Z " fill="#1C1E2C" transform="translate(261,103)"/>
<path d="M0 0 C4.5076467 0.53031138 7.41954788 2.25221116 11 5 C11 5.66 11 6.32 11 7 C8.8125 7.8125 8.8125 7.8125 6 8 C2.91382062 5.47494414 1.26710868 3.80132605 0 0 Z " fill="#A07E40" transform="translate(209,90)"/>
<path d="M0 0 C0.33 0.99 0.66 1.98 1 3 C-3.1196377 4.29243536 -6.66831683 5.26252625 -11 5 C-9.07089686 -0.78730941 -5.38986894 -0.20339128 0 0 Z " fill="#AF8642" transform="translate(329,85)"/>
<path d="M0 0 C2.375 0.3125 2.375 0.3125 5 1 C5.66 1.99 6.32 2.98 7 4 C6.01 4.33 5.02 4.66 4 5 C4 9.29 4 13.58 4 18 C3.67 18 3.34 18 3 18 C2.87625 16.700625 2.7525 15.40125 2.625 14.0625 C2.10136672 9.28150048 1.13686165 4.66885899 0 0 Z " fill="#F4ECC8" transform="translate(292,64)"/>
<path d="M0 0 C-0.66 3.63 -1.32 7.26 -2 11 C-2.66 9.68 -3.32 8.36 -4 7 C-4.99 6.34 -5.98 5.68 -7 5 C-7 3.68 -7 2.36 -7 1 C-3.375 -1.125 -3.375 -1.125 0 0 Z " fill="#284A63" transform="translate(265,61)"/>
<path d="M0 0 C2 0 4 0 6 0 C5.75 3.375 5.75 3.375 5 7 C2.9375 8.4375 2.9375 8.4375 1 9 C0 8 0 8 -0.09765625 6.15234375 C-0.06510417 4.1015625 -0.03255208 2.05078125 0 0 Z " fill="#7A6949" transform="translate(199,123)"/>
<path d="M0 0 C0.66 0.33 1.32 0.66 2 1 C1.67 2.65 1.34 4.3 1 6 C0.34 6 -0.32 6 -1 6 C-1 6.99 -1 7.98 -1 9 C-1.99 9.33 -2.98 9.66 -4 10 C-4.8125 7.8125 -4.8125 7.8125 -5 5 C-2.5625 2.1875 -2.5625 2.1875 0 0 Z " fill="#1E2D48" transform="translate(281,84)"/>
<path d="M0 0 C5.00655974 1.34322334 9.19711129 3.46949451 13 7 C13.33 7.99 13.66 8.98 14 10 C11.69 10.33 9.38 10.66 7 11 C6.67 10.34 6.34 9.68 6 9 C6.66 9 7.32 9 8 9 C8.33 8.34 8.66 7.68 9 7 C8.3503125 6.57847656 7.700625 6.15695313 7.03125 5.72265625 C5.77828125 4.90087891 5.77828125 4.90087891 4.5 4.0625 C3.6646875 3.51722656 2.829375 2.97195312 1.96875 2.41015625 C1.3190625 1.94480469 0.669375 1.47945312 0 1 C0 0.67 0 0.34 0 0 Z " fill="#A3884F" transform="translate(314,59)"/>
<path d="M0 0 C0.89203125 0.00902344 1.7840625 0.01804688 2.703125 0.02734375 C3.37859375 0.03894531 4.0540625 0.05054688 4.75 0.0625 C5.08 1.0525 5.41 2.0425 5.75 3.0625 C4.89535156 3.05089844 4.04070312 3.03929687 3.16015625 3.02734375 C1.50306641 3.01380859 1.50306641 3.01380859 -0.1875 3 C-1.84072266 2.98259766 -1.84072266 2.98259766 -3.52734375 2.96484375 C-6.16447634 2.74987429 -6.16447634 2.74987429 -7.25 4.0625 C-7.61760731 6.39067964 -7.95241581 8.7243385 -8.25 11.0625 C-8.58 11.0625 -8.91 11.0625 -9.25 11.0625 C-9.25 7.7625 -9.25 4.4625 -9.25 1.0625 C-5.84112017 0.21028004 -3.44565369 -0.04533755 0 0 Z " fill="#061730" transform="translate(265.25,54.9375)"/>
<path d="M0 0 C-0.99 0.66 -1.98 1.32 -3 2 C-2.67 2.66 -2.34 3.32 -2 4 C-7.61 3.67 -13.22 3.34 -19 3 C-19 2.34 -19 1.68 -19 1 C-12.61773055 0.17648136 -6.43255401 -0.12086218 0 0 Z " fill="#4AAAC0" transform="translate(296,32)"/>
<path d="M0 0 C2.64 0 5.28 0 8 0 C8.33 0.99 8.66 1.98 9 3 C5.00439392 5.83022097 1.57262677 4.76210446 -3 4 C-2.67 3.34 -2.34 2.68 -2 2 C-1.34 2 -0.68 2 0 2 C0 1.34 0 0.68 0 0 Z " fill="#746348" transform="translate(260,123)"/>
<path d="M0 0 C0.66 0.33 1.32 0.66 2 1 C2.66 1 3.32 1 4 1 C5.33783393 1.31478446 6.67203709 1.64587656 8 2 C7.67 2.99 7.34 3.98 7 5 C5.15234375 5.73046875 5.15234375 5.73046875 2.9375 6.1875 C2.20402344 6.34605469 1.47054688 6.50460938 0.71484375 6.66796875 C-0.13400391 6.83232422 -0.13400391 6.83232422 -1 7 C-1.625 5.1875 -1.625 5.1875 -2 3 C-1.34 2.01 -0.68 1.02 0 0 Z " fill="#0D1023" transform="translate(284,98)"/>
<path d="M0 0 C3 4 6 8 9 12 C7.68 13.32 6.36 14.64 5 16 C4.731875 15.319375 4.46375 14.63875 4.1875 13.9375 C3.30269977 11.74878365 2.35474195 9.58539581 1.375 7.4375 C0 4 0 4 0 0 Z " fill="#0D1838" transform="translate(240,86)"/>
<path d="M0 0 C0.99 0.66 1.98 1.32 3 2 C1.35 5.3 -0.3 8.6 -2 12 C-2.66 12 -3.32 12 -4 12 C-4.75 10.4375 -4.75 10.4375 -5 8 C-3.73618458 5.13451752 -2.22863155 2.22863155 0 0 Z " fill="#11162C" transform="translate(241,60)"/>
<path d="M0 0 C0.33 0.66 0.66 1.32 1 2 C2.64363134 2.72159424 4.31050386 3.39351421 6 4 C6 4.99 6 5.98 6 7 C0.06 6.01 0.06 6.01 -6 5 C-2 1 -2 1 0 0 Z " fill="#D5B75E" transform="translate(283,47)"/>
<path d="M0 0 C0.33 0.66 0.66 1.32 1 2 C3.64 1.34 6.28 0.68 9 0 C9 1.32 9 2.64 9 4 C5.32589215 5.17571451 1.83070817 5.07366746 -2 5 C-1.34 3.35 -0.68 1.7 0 0 Z " fill="#1D2846" transform="translate(263,94)"/>
<path d="M0 0 C0.33 0.66 0.66 1.32 1 2 C0.06421005 4.35981813 -0.93347808 6.69631264 -2 9 C-2.33 7.68 -2.66 6.36 -3 5 C-6.14737182 5.69941596 -9.02588876 6.76078698 -12 8 C-12 7.34 -12 6.68 -12 6 C-8.04 4.02 -4.08 2.04 0 0 Z " fill="#F7E5BD" transform="translate(237,63)"/>
<path d="M0 0 C1.65 0.33 3.3 0.66 5 1 C4.67 2.32 4.34 3.64 4 5 C4.99 5 5.98 5 7 5 C7 5.66 7 6.32 7 7 C7.66 7.33 8.32 7.66 9 8 C4.428721 7.45144652 0.32564205 6.58255197 -4 5 C-0.86650268 3.95550089 -0.01031744 4.06576355 3 5 C3 4.34 3 3.68 3 3 C2.34 3 1.68 3 1 3 C0.67 2.01 0.34 1.02 0 0 Z " fill="#8A734A" transform="translate(240,104)"/>
<path d="M0 0 C0 0.99 0 1.98 0 3 C-3.96 4.98 -3.96 4.98 -8 7 C-8.33 5.68 -8.66 4.36 -9 3 C-5.55930376 0.70620251 -4.27709699 0 0 0 Z " fill="#A6803D" transform="translate(308,98)"/>
<path d="M0 0 C5.44567686 1.02862785 10.11817117 2.24614784 15 5 C14.01 6.485 14.01 6.485 13 8 C12.34 8 11.68 8 11 8 C10.67 6.68 10.34 5.36 10 4 C8.68 3.67 7.36 3.34 6 3 C6 3.66 6 4.32 6 5 C5.34 5 4.68 5 4 5 C4 4.01 4 3.02 4 2 C2.68 1.34 1.36 0.68 0 0 Z " fill="#0D0F20" transform="translate(283,53)"/>
<path d="M0 0 C3.94949704 0.62816498 7.19892028 1.8645529 10.8125 3.5625 C12.27623047 4.24505859 12.27623047 4.24505859 13.76953125 4.94140625 C14.87361328 5.46541016 14.87361328 5.46541016 16 6 C16 6.66 16 7.32 16 8 C16.99 8.33 17.98 8.66 19 9 C16.25 9.25 16.25 9.25 13 9 C11.62298702 7.71182656 10.29355827 6.37195574 9 5 C6.68351201 3.96157435 4.35096976 2.9578025 2 2 C1.34 1.34 0.68 0.68 0 0 Z " fill="#0F1022" transform="translate(231,96)"/>
<path d="M0 0 C5.72210596 1.86763181 11.37661751 3.85289032 17 6 C12.49866167 7.2902543 8.92764635 6.8623681 4.625 4.9375 C4.08875 4.628125 3.5525 4.31875 3 4 C3 3.34 3 2.68 3 2 C2.01 1.67 1.02 1.34 0 1 C0 0.67 0 0.34 0 0 Z " fill="#A48C5C" transform="translate(226,102)"/>
<path d="M0 0 C1.17219543 0.78345715 2.33763668 1.57702836 3.5 2.375 C4.47453125 3.03628906 4.47453125 3.03628906 5.46875 3.7109375 C5.9740625 4.13632813 6.479375 4.56171875 7 5 C7 5.66 7 6.32 7 7 C4.69 7 2.38 7 0 7 C-0.38133299 5.0085944 -0.71325582 3.00720923 -1 1 C-0.67 0.67 -0.34 0.34 0 0 Z " fill="#2B516A" transform="translate(250,78)"/>
<path d="M0 0 C0.66 0 1.32 0 2 0 C3.35091528 2.70183055 3.33858058 5.11808206 3.5625 8.125 C3.64628906 9.22070312 3.73007812 10.31640625 3.81640625 11.4453125 C3.87699219 12.28835937 3.93757813 13.13140625 4 14 C3.01 14.33 2.02 14.66 1 15 C0.67 10.05 0.34 5.1 0 0 Z " fill="#4A6890" transform="translate(504,110)"/>
<path d="M0 0 C3.34373475 0.55728913 6.03312999 1.35173889 9 3 C9 3.33 9 3.66 9 4 C5.37 4.33 1.74 4.66 -2 5 C-2 4.01 -2 3.02 -2 2 C-1.34 2 -0.68 2 0 2 C0 1.34 0 0.68 0 0 Z " fill="#161A35" transform="translate(249,101)"/>
<path d="M0 0 C2.31 0.66 4.62 1.32 7 2 C2.71264217 4.85823855 -2.0311969 5.80748725 -7 7 C-6.67 6.01 -6.34 5.02 -6 4 C-4.35 3.67 -2.7 3.34 -1 3 C-0.67 2.01 -0.34 1.02 0 0 Z " fill="#9E8356" transform="translate(329,85)"/>
<path d="M0 0 C2.375 -0.1875 2.375 -0.1875 5 0 C5.66 0.99 6.32 1.98 7 3 C4 5 4 5 0 5 C-0.33 4.01 -0.66 3.02 -1 2 C-0.67 1.34 -0.34 0.68 0 0 Z " fill="#876E43" transform="translate(210,121)"/>
<path d="M0 0 C0.99 0.33 1.98 0.66 3 1 C1.948125 1.721875 0.89625 2.44375 -0.1875 3.1875 C-3.4835665 5.53226275 -6.2286754 8.06071633 -9 11 C-8.44848637 7.23132354 -6.9602745 5.65408496 -4.125 3.1875 C-3.42632812 2.56230469 -2.72765625 1.93710937 -2.0078125 1.29296875 C-1.34523437 0.86628906 -0.68265625 0.43960938 0 0 Z " fill="#5BB2C1" transform="translate(252,56)"/>
<path d="M0 0 C0 0.66 0 1.32 0 2 C-5.22512279 3.46670113 -9.5814234 4.22577402 -15 4 C-15 3.67 -15 3.34 -15 3 C-13.25183142 2.49363393 -11.50137737 1.99515381 -9.75 1.5 C-8.77546875 1.2215625 -7.8009375 0.943125 -6.796875 0.65625 C-4 0 -4 0 0 0 Z " fill="#3C4149" transform="translate(234,142)"/>
<path d="M0 0 C0.33 0 0.66 0 1 0 C1 5.28 1 10.56 1 16 C0.67 16 0.34 16 0 16 C-0.33 12.7 -0.66 9.4 -1 6 C-1.99 6.66 -2.98 7.32 -4 8 C-2.87548273 5.0280615 -1.77706209 2.66559313 0 0 Z " fill="#D4E8FA" transform="translate(504,111)"/>
<path d="M0 0 C4.43458973 1.3937282 6.87378374 3.60582235 10 7 C9.34 7.66 8.68 8.32 8 9 C7.01 9 6.02 9 5 9 C4.9175 8.2575 4.835 7.515 4.75 6.75 C3.8603054 3.48778646 2.51496251 2.19045122 0 0 Z " fill="#CFAA78" transform="translate(311,73)"/>
<path d="M0 0 C3.93673644 1.31224548 6.22719294 2.91910327 9 6 C8.67 6.99 8.34 7.98 8 9 C7.34 8.34 6.68 7.68 6 7 C5.01 7.66 4.02 8.32 3 9 C3.2475 8.2575 3.495 7.515 3.75 6.75 C3.8325 5.8425 3.915 4.935 4 4 C2.16641665 1.66545339 2.16641665 1.66545339 0 0 Z " fill="#9B814E" transform="translate(331,70)"/>
<path d="M0 0 C2.13533172 2.59953427 3.56459104 4.62558054 4 8 C3.67 8.99 3.34 9.98 3 11 C2.01 10.67 1.02 10.34 0 10 C-0.19412181 8.52168779 -0.38012131 7.04230684 -0.5625 5.5625 C-0.66691406 4.73878906 -0.77132812 3.91507813 -0.87890625 3.06640625 C-0.91886719 2.38449219 -0.95882812 1.70257813 -1 1 C-0.67 0.67 -0.34 0.34 0 0 Z " fill="#4D6D97" transform="translate(634,55)"/>
<path d="M0 0 C0.5775 0.309375 1.155 0.61875 1.75 0.9375 C0.48392393 1.46979326 -0.78810412 1.98794544 -2.0625 2.5 C-2.77019531 2.79003906 -3.47789062 3.08007812 -4.20703125 3.37890625 C-6.25 3.9375 -6.25 3.9375 -9.25 2.9375 C-7.93 2.6075 -6.61 2.2775 -5.25 1.9375 C-5.25 1.2775 -5.25 0.6175 -5.25 -0.0625 C-6.57 -0.3925 -7.89 -0.7225 -9.25 -1.0625 C-5.37331765 -2.35472745 -3.62094106 -1.70988884 0 0 Z " fill="#EAC66B" transform="translate(245.25,51.0625)"/>
<path d="M0 0 C5 2 5 2 10 4 C10 4.66 10 5.32 10 6 C8.37373596 7.38232443 6.7074998 8.71937515 5 10 C4.34 9.67 3.68 9.34 3 9 C3.66 7.68 4.32 6.36 5 5 C3.35 3.35 1.7 1.7 0 0 Z " fill="#121221" transform="translate(316,73)"/>
<path d="M0 0 C5.41538462 -0.36923077 5.41538462 -0.36923077 8.375 1.5 C8.91125 1.995 9.4475 2.49 10 3 C7.69 2.67 5.38 2.34 3 2 C3.66 3.32 4.32 4.64 5 6 C3.02 5.01 1.04 4.02 -1 3 C-0.67 2.01 -0.34 1.02 0 0 Z " fill="#E3BF66" transform="translate(300,55)"/>
<path d="M0 0 C1.65 0 3.3 0 5 0 C5 1.32 5 2.64 5 4 C5.66 4.33 6.32 4.66 7 5 C5.35 5.33 3.7 5.66 2 6 C1.34 4.02 0.68 2.04 0 0 Z " fill="#243654" transform="translate(253,89)"/>
<path d="M0 0 C0 1.98 0 3.96 0 6 C-2.31 6 -4.62 6 -7 6 C-3.61538462 0 -3.61538462 0 0 0 Z " fill="#37647B" transform="translate(272,85)"/>
<path d="M0 0 C4.62 0 9.24 0 14 0 C14 0.33 14 0.66 14 1 C11.36 1.33 8.72 1.66 6 2 C6 2.33 6 2.66 6 3 C3.69 3 1.38 3 -1 3 C-0.67 2.01 -0.34 1.02 0 0 Z " fill="#F2CF63" transform="translate(262,46)"/>
<path d="M0 0 C-0.33 0.99 -0.66 1.98 -1 3 C-2.98 3.33 -4.96 3.66 -7 4 C-7.66 3.01 -8.32 2.02 -9 1 C-2.25 -1.125 -2.25 -1.125 0 0 Z " fill="#7E7766" transform="translate(218,130)"/>
<path d="M0 0 C0 0.33 0 0.66 0 1 C2.31 1.33 4.62 1.66 7 2 C7 2.33 7 2.66 7 3 C-4.52164009 3.18451025 -4.52164009 3.18451025 -10 2 C-10 1.67 -10 1.34 -10 1 C-6.59437148 0.22157062 -3.49234244 -0.09978121 0 0 Z " fill="#061029" transform="translate(272,103)"/>
<path d="M0 0 C4.99275057 1.27721526 7.57611908 3.17330957 11 7 C6.4923533 6.46968862 3.58045212 4.74778884 0 2 C0 1.34 0 0.68 0 0 Z " fill="#917E54" transform="translate(218,98)"/>
<path d="M0 0 C0.33 0 0.66 0 1 0 C1 1.65 1 3.3 1 5 C1.66 5.33 2.32 5.66 3 6 C2.01 7.32 1.02 8.64 0 10 C-0.99 9.01 -1.98 8.02 -3 7 C-2.67 6.01 -2.34 5.02 -2 4 C-1.34 4 -0.68 4 0 4 C0 2.68 0 1.36 0 0 Z " fill="#3E667A" transform="translate(254,68)"/>
<path d="M0 0 C4.51478398 0.53115106 7.34666857 2.36620292 11 5 C9.234375 5.6484375 9.234375 5.6484375 7 6 C5.078125 5.0390625 5.078125 5.0390625 3.25 3.625 C2.63640625 3.16351563 2.0228125 2.70203125 1.390625 2.2265625 C0.93171875 1.82179688 0.4728125 1.41703125 0 1 C0 0.67 0 0.34 0 0 Z " fill="#0F1639" transform="translate(315,71)"/>
<path d="M0 0 C5.28 0 10.56 0 16 0 C16 0.33 16 0.66 16 1 C15.39671875 1.04898438 14.7934375 1.09796875 14.171875 1.1484375 C12.97304688 1.26058594 12.97304688 1.26058594 11.75 1.375 C10.56664062 1.47941406 10.56664062 1.47941406 9.359375 1.5859375 C6.914123 2.01507113 5.15163097 2.78600638 3 4 C3 3.34 3 2.68 3 2 C2.01 1.34 1.02 0.68 0 0 Z " fill="#D9BB5E" transform="translate(256,45)"/>
<path d="M0 0 C4.29 0 8.58 0 13 0 C9 3 9 3 6.89453125 3.14453125 C4.9179679 2.82931946 2.95757875 2.41718891 1 2 C0.67 1.34 0.34 0.68 0 0 Z " fill="#4C627F" transform="translate(408,41)"/>
<path d="M0 0 C0.33 0 0.66 0 1 0 C1.33 4.62 1.66 9.24 2 14 C0.68 13.67 -0.64 13.34 -2 13 C-1.84660156 12.43796875 -1.69320312 11.8759375 -1.53515625 11.296875 C-0.98639581 8.94161122 -0.68502401 6.65451896 -0.4375 4.25 C-0.35371094 3.45078125 -0.26992187 2.6515625 -0.18359375 1.828125 C-0.12300781 1.22484375 -0.06242188 0.6215625 0 0 Z " fill="#030923" transform="translate(238,73)"/>
<path d="M0 0 C0.33 0.99 0.66 1.98 1 3 C3.01508358 3.73323796 3.01508358 3.73323796 5 4 C5 4.66 5 5.32 5 6 C3.02 6.33 1.04 6.66 -1 7 C-0.67 4.69 -0.34 2.38 0 0 Z " fill="#D8BF8F" transform="translate(292,88)"/>
<path d="M0 0 C2 1 2 1 2.6875 2.875 C3 5 3 5 2 8 C1.01 8 0.02 8 -1 8 C-1.625 5.6875 -1.625 5.6875 -2 3 C-1.34 2.01 -0.68 1.02 0 0 Z " fill="#B4893A" transform="translate(336,76)"/>
<path d="M0 0 C0.66 0 1.32 0 2 0 C1.68289063 0.70511719 1.36578125 1.41023438 1.0390625 2.13671875 C-0.04538286 5.12505879 -0.3964359 7.65069658 -0.625 10.8125 C-0.69976562 11.78832031 -0.77453125 12.76414062 -0.8515625 13.76953125 C-0.90054687 14.50558594 -0.94953125 15.24164063 -1 16 C-1.33 16 -1.66 16 -2 16 C-2.05423638 14.08364783 -2.09289963 12.16685075 -2.125 10.25 C-2.14820313 9.18265625 -2.17140625 8.1153125 -2.1953125 7.015625 C-2.00487687 4.07529894 -1.52670104 2.47638122 0 0 Z " fill="#1F3B56" transform="translate(291,67)"/>
<path d="M0 0 C0 1.32 0 2.64 0 4 C-1.65 4.33 -3.3 4.66 -5 5 C-5.66 4.01 -6.32 3.02 -7 2 C-2.25 0 -2.25 0 0 0 Z " fill="#CDA451" transform="translate(224,58)"/>
<path d="M0 0 C0.33 0.66 0.66 1.32 1 2 C-3.29 2 -7.58 2 -12 2 C-7.35103382 -1.09931079 -5.53872731 -1.10774546 0 0 Z " fill="#0E1327" transform="translate(258,52)"/>
<path d="M0 0 C0.66 0 1.32 0 2 0 C2.99 2.97 3.98 5.94 5 9 C3.68 8.34 2.36 7.68 1 7 C0.25 3.375 0.25 3.375 0 0 Z " fill="#F7F3ED" transform="translate(206,126)"/>
<path d="M0 0 C1.093125 0.33 2.18625 0.66 3.3125 1 C6.84578884 2.13086649 6.84578884 2.13086649 10 2 C8.35 3.32 6.7 4.64 5 6 C4.67 4.68 4.34 3.36 4 2 C2.68 1.67 1.36 1.34 0 1 C0 0.67 0 0.34 0 0 Z " fill="#8A6D3B" transform="translate(316,89)"/>
<path d="M0 0 C2 2 2 2 2.125 5.125 C2.08375 6.07375 2.0425 7.0225 2 8 C0.68 7.67 -0.64 7.34 -2 7 C-1.34 4.69 -0.68 2.38 0 0 Z " fill="#213652" transform="translate(281,71)"/>
<path d="M0 0 C0.66 0 1.32 0 2 0 C2 0.66 2 1.32 2 2 C2.99 2 3.98 2 5 2 C5.33 2.99 5.66 3.98 6 5 C3.69 5 1.38 5 -1 5 C-0.67 3.35 -0.34 1.7 0 0 Z " fill="#38659A" transform="translate(175,49)"/>
<path d="M0 0 C0 0.66 0 1.32 0 2 C-4.43076923 4.09230769 -4.43076923 4.09230769 -7.3125 3.625 C-7.869375 3.41875 -8.42625 3.2125 -9 3 C-5.55930376 0.70620251 -4.27709699 0 0 0 Z " fill="#3A75A3" transform="translate(328,45)"/>
<path d="M0 0 C3.63 0 7.26 0 11 0 C9.35 1.32 7.7 2.64 6 4 C5.34 3.34 4.68 2.68 4 2 C2.68 1.34 1.36 0.68 0 0 Z " fill="#FAF3DD" transform="translate(262,114)"/>
<path d="M0 0 C1.65 0 3.3 0 5 0 C4.875 1.875 4.875 1.875 4 4 C0.9375 5.25 0.9375 5.25 -2 6 C-1.67 5.34 -1.34 4.68 -1 4 C-0.34 4 0.32 4 1 4 C0.67 2.68 0.34 1.36 0 0 Z " fill="#337AAF" transform="translate(202,45)"/>
<path d="M0 0 C0 3.20395416 -0.74335022 5.09399739 -2 8 C-2.99 8 -3.98 8 -5 8 C-4.64950425 4.75791433 -4.43778819 3.38472296 -1.9375 1.1875 C-1.298125 0.795625 -0.65875 0.40375 0 0 Z " fill="#696151" transform="translate(320,122)"/>
<path d="M0 0 C0.66 0 1.32 0 2 0 C2 0.66 2 1.32 2 2 C1.01 1.67 0.02 1.34 -1 1 C-0.67 0.67 -0.34 0.34 0 0 Z M-2 2 C-1.67 3.32 -1.34 4.64 -1 6 C-1.66 6 -2.32 6 -3 6 C-3.33 6.66 -3.66 7.32 -4 8 C-4.33 6.68 -4.66 5.36 -5 4 C-4.01 3.34 -3.02 2.68 -2 2 Z " fill="#B98D42" transform="translate(202,69)"/>
<path d="M0 0 C1.65 0 3.3 0 5 0 C5 2.64 5 5.28 5 8 C4.731875 7.38125 4.46375 6.7625 4.1875 6.125 C3.04443152 3.7004767 3.04443152 3.7004767 0 2 C0 1.34 0 0.68 0 0 Z " fill="#436476" transform="translate(258,64)"/>
<path d="M0 0 C5.75 1.75 5.75 1.75 8 4 C6.35 4.66 4.7 5.32 3 6 C2.01 4.02 1.02 2.04 0 0 Z " fill="#E5D0AB" transform="translate(288,59)"/>
<path d="M0 0 C0.598125 0.226875 1.19625 0.45375 1.8125 0.6875 C1.8125 1.3475 1.8125 2.0075 1.8125 2.6875 C1.07 2.790625 0.3275 2.89375 -0.4375 3 C-3.35764018 3.73003504 -4.91937554 4.75539398 -7.1875 6.6875 C-3.9375 -0.5625 -3.9375 -0.5625 0 0 Z " fill="#050E28" transform="translate(275.1875,57.3125)"/>
<path d="M0 0 C0.33 0.66 0.66 1.32 1 2 C0.06421005 4.35981813 -0.93347808 6.69631264 -2 9 C-2.82638376 6.10765685 -3 4.11257569 -3 1 C-2.01 0.67 -1.02 0.34 0 0 Z " fill="#F3EBCD" transform="translate(237,63)"/>
<path d="M0 0 C3.37503669 1.1858237 5.64722731 2.27573689 8 5 C5.03 4.505 5.03 4.505 2 4 C1.67 4.66 1.34 5.32 1 6 C0.67 4.02 0.34 2.04 0 0 Z " fill="#DBB159" transform="translate(317,62)"/>
<path d="M0 0 C-0.33 0.66 -0.66 1.32 -1 2 C-4.23097953 2.86159454 -6.22486274 3.30597523 -9.375 2.0625 C-9.91125 1.711875 -10.4475 1.36125 -11 1 C-7.27569643 0.30710631 -3.78916254 -0.11144596 0 0 Z " fill="#3C658C" transform="translate(197,53)"/>
<path d="M0 0 C0 0.99 0 1.98 0 3 C-0.99 3.33 -1.98 3.66 -3 4 C-3 3.34 -3 2.68 -3 2 C-5.31 2 -7.62 2 -10 2 C-10 1.67 -10 1.34 -10 1 C-6.7 0.67 -3.4 0.34 0 0 Z " fill="#5F7FA7" transform="translate(608,108)"/>
<path d="M0 0 C0.66 1.32 1.32 2.64 2 4 C0.02 6.97 0.02 6.97 -2 10 C-3.39195915 5.82412255 -1.82323219 3.86525224 0 0 Z " fill="#506E8E" transform="translate(503,93)"/>
<path d="M0 0 C0 0.66 0 1.32 0 2 C-1.98 2 -3.96 2 -6 2 C-6.33 1.34 -6.66 0.68 -7 0 C-4.3333581 -1.33332095 -2.83319697 -0.67102033 0 0 Z " fill="#27425C" transform="translate(272,91)"/>
<path d="M0 0 C0.66 0.33 1.32 0.66 2 1 C2 2.65 2 4.3 2 6 C-1.875 4.25 -1.875 4.25 -3 2 C-2.01 1.34 -1.02 0.68 0 0 Z " fill="#D7B17B" transform="translate(212,76)"/>
<path d="M0 0 C0.99 0 1.98 0 3 0 C3 1.98 3 3.96 3 6 C2.01 6.495 2.01 6.495 1 7 C0.67 4.69 0.34 2.38 0 0 Z " fill="#202F4A" transform="translate(244,78)"/>
<path d="M0 0 C2.5 0.3125 2.5 0.3125 5 1 C5.33 1.66 5.66 2.32 6 3 C5.01 3.33 4.02 3.66 3 4 C2.67 3.34 2.34 2.68 2 2 C1.01 2.66 0.02 3.32 -1 4 C-1 1 -1 1 0 0 Z " fill="#C69C4B" transform="translate(330,72)"/>
</svg>
