<?xml version="1.0" encoding="UTF-8"?>
<svg version="1.1" xmlns="http://www.w3.org/2000/svg" width="664" height="194">
<path d="M0 0 C219.12 0 438.24 0 664 0 C664 64.02 664 128.04 664 194 C444.88 194 225.76 194 0 194 C0 129.98 0 65.96 0 0 Z " fill="#FBFCFC" transform="translate(0,0)"/>
<path d="M0 0 C3.83895524 1.11374578 7.65752397 2.20671336 11.5625 3.0625 C12.70525391 3.31773438 12.70525391 3.31773438 13.87109375 3.578125 C16.15352449 4.06575502 16.15352449 4.06575502 19.125 4.3125 C22.53319171 5.12750236 24.34470721 6.62774406 27.078125 8.73828125 C29.78215684 10.51348914 32.5841306 11.30219988 35.69140625 12.12890625 C41.48122617 14.31355911 46.15710663 18.65437943 50.8125 22.625 C51.68938477 23.35976562 51.68938477 23.35976562 52.58398438 24.109375 C56.87415902 27.74831803 56.87415902 27.74831803 58 30 C57.42032471 30.20157715 56.84064941 30.4031543 56.2434082 30.61083984 C53.5993569 31.53103841 50.9559246 32.45300277 48.3125 33.375 C47.40048828 33.69210938 46.48847656 34.00921875 45.54882812 34.3359375 C44.66259766 34.6453125 43.77636719 34.9546875 42.86328125 35.2734375 C42.05157471 35.55622559 41.23986816 35.83901367 40.40356445 36.13037109 C35.46042953 37.60109527 35.46042953 37.60109527 31.7109375 40.7890625 C29.88680522 46.46191344 30.14353057 52.25647296 32.75 57.5625 C34.80174762 59.78522658 36.17919248 60.99256874 39 62 C37.59360975 65.25540078 35.94017357 67.14593487 33.3125 69.5 C28.95671358 73.68155496 26.31814453 78.3300219 23.54296875 83.65625 C23.03378906 84.4296875 22.52460938 85.203125 22 86 C21.01 86 20.02 86 19 86 C19 73.79 19 61.58 19 49 C14.23169376 51.72474642 10.1087922 54.27921759 5.75 57.5 C-2.89027297 63.77147106 -11.88848239 69.44228079 -21 75 C-21.70447266 75.4326416 -22.40894531 75.8652832 -23.13476562 76.31103516 C-38.80762809 85.84924172 -57.23808327 94.00025833 -76 92 C-81.67670227 90.54822469 -86.35332186 87.79462146 -89.9609375 83.12890625 C-92.04303228 78.86296018 -91.92598417 74.58044077 -91 70 C-88.98263222 66.84786284 -87.63572185 65.52105656 -84.0625 64.3828125 C-80.66726285 63.75263591 -78.31160283 63.87129448 -75.125 65.1875 C-72.82762407 67.14702653 -71.80680612 68.09549797 -71 71 C-71.1875 74.625 -71.1875 74.625 -72 78 C-75 80 -75 80 -77.5625 79.75 C-80 79 -80 79 -82 77 C-82 75.68 -82 74.36 -82 73 C-82.66 73 -83.32 73 -84 73 C-84.31364861 76.45013471 -84.44797604 78.3549145 -82.4375 81.25 C-76.93856554 85.19795294 -70.55152898 85.76044533 -64 85 C-47.94259096 81.82866171 -27.68160967 72.68160967 -16 61 C-16.73935791 60.96559814 -17.47871582 60.93119629 -18.24047852 60.89575195 C-45.98984048 59.50342691 -45.98984048 59.50342691 -58 54 C-59.02867187 53.52949219 -60.05734375 53.05898437 -61.1171875 52.57421875 C-69.0024279 48.61193461 -76.17487599 43.604229 -83.37792969 38.53125 C-84.14911133 37.98984375 -84.92029297 37.4484375 -85.71484375 36.890625 C-86.39667725 36.40625977 -87.07851074 35.92189453 -87.78100586 35.42285156 C-92.82733016 32.18707446 -96.60048077 30.63058234 -102.640625 30.55859375 C-104.49300781 30.51895508 -104.49300781 30.51895508 -106.3828125 30.47851562 C-107.65898437 30.46498047 -108.93515625 30.45144531 -110.25 30.4375 C-112.79700628 30.40318405 -115.34391952 30.36064905 -117.890625 30.30859375 C-119.01500977 30.29626709 -120.13939453 30.28394043 -121.29785156 30.27124023 C-124 30 -124 30 -126 28 C-126.1953125 25.3984375 -126.1953125 25.3984375 -126.125 22.375 C-126.10695312 21.37210938 -126.08890625 20.36921875 -126.0703125 19.3359375 C-126.04710937 18.56507812 -126.02390625 17.79421875 -126 17 C-124.72769531 17.23589844 -124.72769531 17.23589844 -123.4296875 17.4765625 C-110.78512437 19.40637054 -96.91024967 18.27349978 -86 11 C-83.84375 10.48046875 -83.84375 10.48046875 -81.5 10.1875 C-80.7265625 10.07792969 -79.953125 9.96835937 -79.15625 9.85546875 C-76.3981026 10.04034457 -75.81377694 11.01918173 -74 13 C-75.04800781 13.68707031 -76.09601563 14.37414062 -77.17578125 15.08203125 C-78.55480967 15.99200238 -79.93370919 16.90216888 -81.3125 17.8125 C-82.34793945 18.49022461 -82.34793945 18.49022461 -83.40429688 19.18164062 C-84.07138672 19.62314453 -84.73847656 20.06464844 -85.42578125 20.51953125 C-86.03848877 20.92276611 -86.65119629 21.32600098 -87.2824707 21.74145508 C-89.0370079 23.02711809 -90.50453032 24.42445162 -92 26 C-83.86506901 31.3576301 -75.72428249 36.70869318 -67.3125 41.625 C-66.23613281 42.25664063 -65.15976563 42.88828125 -64.05078125 43.5390625 C-60.96690543 45.0158481 -58.38275561 45.62470178 -55 46 C-55 45.34 -55 44.68 -55 44 C-54.05125 44.33 -53.1025 44.66 -52.125 45 C-49.22937548 46.10159191 -49.22937548 46.10159191 -47 46 C-47.86625 45.0409375 -47.86625 45.0409375 -48.75 44.0625 C-54.99978038 35.55585449 -56.3507097 27.53776823 -55 17 C-53.7163434 13.37555782 -52.11298313 10.20720654 -50 7 C-51.98994028 7.48642985 -53.96492496 7.98963369 -55.9296875 8.5703125 C-60.31272325 9.82009378 -63.47052871 10.13236782 -68 9 C-49.60092464 -6.34774356 -21.55519801 -6.43368655 0 0 Z " fill="#8E774B" transform="translate(290,54)"/>
<path d="M0 0 C9.24 0 18.48 0 28 0 C28 14.85 28 29.7 28 45 C42.52 45 57.04 45 72 45 C72 30.15 72 15.3 72 0 C80.91 0 89.82 0 99 0 C99 36.96 99 73.92 99 112 C90.09 112 81.18 112 72 112 C72 97.15 72 82.3 72 67 C57.48 67 42.96 67 28 67 C28 81.85 28 96.7 28 112 C18.76 112 9.52 112 0 112 C0 75.04 0 38.08 0 0 Z " fill="#243E5D" transform="translate(43,14)"/>
<path d="M0 0 C8.91 0 17.82 0 27 0 C27.04898437 3.5165625 27.09796875 7.033125 27.1484375 10.65625 C27.20251461 14.07849218 27.2597957 17.50066686 27.31738281 20.92285156 C27.35556274 23.29324269 27.3904344 25.66368959 27.421875 28.03417969 C27.4677644 31.45007193 27.52571962 34.86558389 27.5859375 38.28125 C27.59748871 39.33364868 27.60903992 40.38604736 27.62094116 41.47033691 C27.72347452 51.58224606 27.72347452 51.58224606 31.9375 60.5 C37.31647406 63.13459954 42.86988284 62.54316739 48.65625 61.5390625 C52.44536589 59.0508764 53.01449578 55.29036216 54 51 C54.43029108 46.9860663 54.48760398 42.99953481 54.51171875 38.96484375 C54.52966995 37.84557999 54.54762115 36.72631622 54.56611633 35.57313538 C54.61993176 32.02796094 54.65402311 28.48291891 54.6875 24.9375 C54.7206984 22.52146606 54.75519037 20.10544954 54.79101562 17.68945312 C54.87805631 11.7929527 54.93837329 5.89703883 55 0 C63.58 0 72.16 0 81 0 C81 27.72 81 55.44 81 84 C72.75 84 64.5 84 56 84 C55.67 79.38 55.34 74.76 55 70 C54.175 71.381875 53.35 72.76375 52.5 74.1875 C48.76509311 79.82091063 44.36996666 82.87667778 38 85 C27.07566521 85.81611893 17.92115193 85.94103237 9.20703125 78.4609375 C3.12504541 72.12365843 -0.13166521 62.80430399 -0.11352539 54.15161133 C-0.11344986 52.9505928 -0.11337433 51.74957428 -0.11329651 50.51216125 C-0.10813522 49.21521835 -0.10297394 47.91827545 -0.09765625 46.58203125 C-0.09579077 45.24110466 -0.09436748 43.90017739 -0.09336853 42.55924988 C-0.08955356 39.03290927 -0.07973199 35.50660996 -0.06866455 31.98028564 C-0.0584285 28.38074309 -0.0538114 24.78119365 -0.04882812 21.18164062 C-0.03863969 14.1210573 -0.01906549 7.06058732 0 0 Z " fill="#396191" transform="translate(449,42)"/>
<path d="M0 0 C6.3252364 5.33799442 8.81042874 11.884122 10.0625 19.875 C5.97970499 20.04921117 1.89786319 20.15582588 -2.1875 20.25 C-3.34636719 20.30027344 -4.50523437 20.35054687 -5.69921875 20.40234375 C-8.88524693 20.45759279 -11.80217406 20.45074733 -14.9375 19.875 C-17.625 16.9375 -17.625 16.9375 -18.9375 13.875 C-22.43787115 11.12470838 -26.67838041 11.46410164 -30.9375 11.875 C-33.34899534 12.40180501 -35.58996437 13.09248812 -37.9375 13.875 C-38.35964981 17.95020943 -38.35964981 17.95020943 -36.6875 21.48046875 C-31.93204071 25.26997537 -24.95001747 25.90908929 -19.12548828 26.8972168 C-8.26849661 28.75382662 1.58579435 30.90053145 8.7578125 39.91015625 C12.30722803 45.25553354 12.81886505 49.51593086 12.0625 55.875 C9.37721498 64.94690886 4.12826665 70.95621171 -4.01171875 75.55078125 C-16.66657225 81.27841187 -32.65406826 81.75016655 -45.9375 77.875 C-55.33074795 74.13951388 -61.52103394 69.56282615 -65.95703125 60.375 C-66.93658898 57.87732292 -67.49876423 55.51684978 -67.9375 52.875 C-63.61505724 52.54432132 -59.29247897 52.24695816 -54.96484375 51.99511719 C-53.1009215 51.88468249 -51.23789111 51.75945641 -49.375 51.6328125 C-48.323125 51.58898437 -47.27125 51.54515625 -46.1875 51.5 C-45.24390625 51.45101562 -44.3003125 51.40203125 -43.328125 51.3515625 C-40.9375 51.875 -40.9375 51.875 -39.359375 54.2109375 C-38.89015625 55.09007812 -38.4209375 55.96921875 -37.9375 56.875 C-35.50894498 59.32485814 -34.3104578 59.83544387 -30.84375 60.203125 C-29.7196875 60.17734375 -28.595625 60.1515625 -27.4375 60.125 C-26.3134375 60.10953125 -25.189375 60.0940625 -24.03125 60.078125 C-21.49792012 59.91179526 -19.35330507 59.60921527 -16.9375 58.875 C-16.9375 56.235 -16.9375 53.595 -16.9375 50.875 C-24.65307238 47.54810182 -32.43236919 45.83066536 -40.67871094 44.44628906 C-48.27815171 43.08381577 -55.38235301 40.43014699 -60.9375 34.875 C-64.82918282 28.39324449 -66.81128048 22.4637236 -65.9375 14.875 C-63.04541602 5.61433731 -58.38669213 0.80887835 -49.984375 -3.79296875 C-34.69515581 -10.47710175 -13.75532857 -9.47639086 0 0 Z " fill="#406CA1" transform="translate(628.9375,48.125)"/>
<path d="M0 0 C1.7634375 0.56074219 1.7634375 0.56074219 3.5625 1.1328125 C11.17404285 3.89565618 11.17404285 3.89565618 13.40234375 6.875 C14.25 8.8125 14.25 8.8125 15 12 C9.80355921 10.40109514 4.93387858 8.25861997 0 6 C0.3609375 6.63164063 0.721875 7.26328125 1.09375 7.9140625 C5.51272997 16.43287388 6.64179611 24.51141218 4.265625 33.90234375 C2.33239424 39.17118988 -0.35230472 42.78972485 -4 47 C5.71458957 43.07631512 14.53469077 38.71517762 23.20703125 32.8203125 C26 31 26 31 29 30 C29.495 31.98 29.495 31.98 30 34 C22.86856375 39.9024359 16.22455684 43.29742573 7.44921875 46.11328125 C4.72514825 47.09950773 2.17287093 48.30701835 -0.4375 49.5625 C-8.83360075 53.39675784 -16.4181867 54.16784958 -25.5625 54.25 C-26.35398437 54.25942627 -27.14546875 54.26885254 -27.9609375 54.27856445 C-35.45840448 54.23737812 -42.54663106 53.30520666 -49.0625 49.375 C-50.19365234 48.70597656 -50.19365234 48.70597656 -51.34765625 48.0234375 C-51.89292969 47.68570313 -52.43820313 47.34796875 -53 47 C-52.67 46.34 -52.34 45.68 -52 45 C-50.02 45.66 -48.04 46.32 -46 47 C-47.11375 45.7934375 -47.11375 45.7934375 -48.25 44.5625 C-54.30667207 37.10813438 -55.69500956 30.27769483 -55.47265625 20.6875 C-54.79872991 15.42976065 -52.89439122 11.39327239 -50 7 C-51.98994028 7.48642985 -53.96492496 7.98963369 -55.9296875 8.5703125 C-60.31272325 9.82009378 -63.47052871 10.13236782 -68 9 C-49.83412647 -6.15321629 -21.32990961 -6.79890869 0 0 Z " fill="#1B2535" transform="translate(290,54)"/>
<path d="M0 0 C3.09375 0.061875 3.09375 0.061875 6.25 0.125 C6.25 7.715 6.25 15.305 6.25 23.125 C-1.4375 23.4375 -1.4375 23.4375 -3.83081055 23.51293945 C-8.28932392 23.74463107 -10.9938281 24.52564542 -14.75 27.125 C-15.41 27.125 -16.07 27.125 -16.75 27.125 C-18.55399751 31.57486053 -19.87028703 35.23270733 -19.95532227 40.05541992 C-19.97526749 41.05623093 -19.99521271 42.05704193 -20.01576233 43.08818054 C-20.03247482 44.16638565 -20.04918732 45.24459076 -20.06640625 46.35546875 C-20.08718735 47.46102615 -20.10796844 48.56658356 -20.12937927 49.7056427 C-20.19482332 53.2411979 -20.25373603 56.77682806 -20.3125 60.3125 C-20.3556901 62.70769008 -20.39930454 65.10287255 -20.44335938 67.49804688 C-20.55129889 73.37362217 -20.65041108 79.24925344 -20.75 85.125 C-29.66 85.125 -38.57 85.125 -47.75 85.125 C-47.75 57.405 -47.75 29.685 -47.75 1.125 C-39.17 1.125 -30.59 1.125 -21.75 1.125 C-21.255 8.055 -21.255 8.055 -20.75 15.125 C-20.21375 13.908125 -19.6775 12.69125 -19.125 11.4375 C-15.1053097 3.38386518 -8.88392237 -0.17767845 0 0 Z " fill="#345884" transform="translate(414.75,40.875)"/>
<path d="M0 0 C1.01320313 0.433125 2.02640625 0.86625 3.0703125 1.3125 C9.13169691 3.99995719 14.97943912 6.99317812 20.75 10.25 C21.35884033 10.5912793 21.96768066 10.93255859 22.5949707 11.28417969 C26.8766614 13.75332279 26.8766614 13.75332279 28 16 C24.05596551 15.71141211 21.70604948 14.94728194 18.6875 12.5 C15.20755261 9.81304947 12.43386341 9.4368526 8.1171875 9.16796875 C5.2011526 8.93662281 2.74006855 8.0065558 0 7 C-3.31326493 5.92591961 -6.64904708 4.94943666 -10 4 C-10.969375 3.71640625 -11.93875 3.4328125 -12.9375 3.140625 C-34.6046303 -2.60116453 -53.13676379 3.24837613 -73 12 C-69.60129282 13.17409884 -67.80569633 12.81322183 -64.5 11.5 C-61.19430367 10.18677817 -59.39870718 9.82590116 -56 11 C-56.3609375 11.54785156 -56.721875 12.09570312 -57.09375 12.66015625 C-61.56604951 20.30033458 -62.03358359 27.28153103 -61 36 C-59.34070472 42.13409693 -55.82444499 47.0069746 -52 52 C-53.11375 51.67 -54.2275 51.34 -55.375 51 C-59.17276733 49.84015314 -59.17276733 49.84015314 -62.75390625 50.66015625 C-73.85614744 52.33997361 -91.48478374 35.86167693 -100 30 C-96.38759436 26.11547341 -92.7490213 23.36745733 -88.1875 20.6875 C-87.59001953 20.32849609 -86.99253906 19.96949219 -86.37695312 19.59960938 C-84.92186044 18.72655376 -83.46147271 17.86233309 -82 17 C-85.21639654 15.25434889 -87.32013404 14.795563 -91 15 C-65.8883041 -4.57146563 -29.88128437 -13.16508761 0 0 Z " fill="#E3CEA5" transform="translate(297,50)"/>
<path d="M0 0 C4.919184 2.55844085 8.70840793 3.95166816 14.25 4.0625 C14.25 5.7125 14.25 7.3625 14.25 9.0625 C10.72489864 10.82505068 7.00678179 10.6350129 3.28271484 9.42138672 C1.13607504 8.5049546 -0.96249178 7.5187126 -3.0625 6.5 C-4.65609759 5.76247405 -6.25119638 5.02818457 -7.84765625 4.296875 C-8.6586377 3.92369141 -9.46961914 3.55050781 -10.30517578 3.16601562 C-21.52470629 -1.89812237 -32.58179982 -5.88845075 -44.75 -7.9375 C-46.12285156 -8.21207031 -46.12285156 -8.21207031 -47.5234375 -8.4921875 C-74.21257731 -12.17567653 -97.56744074 -3.5025629 -121.27783203 7.68579102 C-130.29866082 11.91633482 -139.60187807 15.57535519 -149.5390625 12.08203125 C-153.88593682 9.99835256 -157.65994355 7.85484201 -160.75 4.0625 C-159.76 4.3925 -158.77 4.7225 -157.75 5.0625 C-143.34504966 8.48019472 -132.62182196 5.27857421 -119.75 -0.9375 C-118.4109982 -1.56689849 -117.07117 -2.19454225 -115.73046875 -2.8203125 C-113.81454988 -3.71674719 -111.89893466 -4.61372535 -109.98535156 -5.51513672 C-104.65431383 -8.01592453 -99.38657389 -10.22744568 -93.75 -11.9375 C-92.55375 -12.31003906 -91.3575 -12.68257812 -90.125 -13.06640625 C-58.91115613 -21.82430135 -27.9566397 -14.60375661 0 0 Z " fill="#6AA9B3" transform="translate(325.75,42.9375)"/>
<path d="M0 0 C-3.4445057 3.82722856 -7.89864217 6.2873567 -12.1875 9.0625 C-14.43868642 10.61331731 -16.12988339 12.05265143 -18 14 C-9.86506901 19.3576301 -1.72428249 24.70869318 6.6875 29.625 C7.76386719 30.25664063 8.84023437 30.88828125 9.94921875 31.5390625 C13.03309457 33.0158481 15.61724439 33.62470178 19 34 C19 33.34 19 32.68 19 32 C19.66 32 20.32 32 21 32 C21.33 32.99 21.66 33.98 22 35 C22.66 35.66 23.32 36.32 24 37 C23.34 37 22.68 37 22 37 C22 37.66 22 38.32 22 39 C24.31 39.33 26.62 39.66 29 40 C29 41.32 29 42.64 29 44 C29.99 43.34 30.98 42.68 32 42 C34.6875 42.375 34.6875 42.375 37 43 C36.67 44.32 36.34 45.64 36 47 C18.57401127 45.37897779 4.55402389 36.34373991 -9.37744141 26.53149414 C-10.14878418 25.99000732 -10.92012695 25.44852051 -11.71484375 24.890625 C-12.39667725 24.40625977 -13.07851074 23.92189453 -13.78100586 23.42285156 C-18.82733016 20.18707446 -22.60048077 18.63058234 -28.640625 18.55859375 C-29.87554687 18.53216797 -31.11046875 18.50574219 -32.3828125 18.47851562 C-33.65898437 18.46498047 -34.93515625 18.45144531 -36.25 18.4375 C-38.79700628 18.40318405 -41.34391952 18.36064905 -43.890625 18.30859375 C-45.01500977 18.29626709 -46.13939453 18.28394043 -47.29785156 18.27124023 C-50 18 -50 18 -52 16 C-52.1953125 13.3984375 -52.1953125 13.3984375 -52.125 10.375 C-52.10695312 9.37210938 -52.08890625 8.36921875 -52.0703125 7.3359375 C-52.04710937 6.56507812 -52.02390625 5.79421875 -52 5 C-50.72769531 5.23589844 -50.72769531 5.23589844 -49.4296875 5.4765625 C-36.78512437 7.40637054 -22.91024967 6.27349978 -12 -1 C-7.28727465 -2.0472723 -4.33042455 -2.23082477 0 0 Z " fill="#957F58" transform="translate(216,66)"/>
<path d="M0 0 C9.21153495 3.5236357 9.21153495 3.5236357 13 5.8125 C13.66 6.204375 14.32 6.59625 15 7 C15.66 6.67 16.32 6.34 17 6 C16.67 5.01 16.34 4.02 16 3 C26.61789211 6.1210643 37.18364469 14.19903122 45 22 C45 22.99 45 23.98 45 25 C41.37 25.66 37.74 26.32 34 27 C34.33 25.68 34.66 24.36 35 23 C30.57094001 24.51520473 27.03794972 26.95065016 23.25 29.625 C17.61551728 33.49511391 11.86998784 36.77055945 5.6875 39.6875 C4.95241211 40.03828613 4.21732422 40.38907227 3.45996094 40.75048828 C1.67006346 41.56955818 -0.16247261 42.29423688 -2 43 C-2.66 42.67 -3.32 42.34 -4 42 C-3.60167969 41.5153125 -3.20335937 41.030625 -2.79296875 40.53125 C3.67975926 32.34191042 5.61886051 26.03376709 5.4375 15.4921875 C4.87606031 11.01069568 3.38841078 7.74055587 1.09375 3.890625 C0 2 0 2 0 0 Z " fill="#C6AF8B" transform="translate(289,59)"/>
<path d="M0 0 C1.01320313 0.433125 2.02640625 0.86625 3.0703125 1.3125 C9.13169691 3.99995719 14.97943912 6.99317812 20.75 10.25 C21.35884033 10.5912793 21.96768066 10.93255859 22.5949707 11.28417969 C26.8766614 13.75332279 26.8766614 13.75332279 28 16 C24.05596551 15.71141211 21.70604948 14.94728194 18.6875 12.5 C15.20755261 9.81304947 12.43386341 9.4368526 8.1171875 9.16796875 C5.2011526 8.93662281 2.74006855 8.0065558 0 7 C-3.31326493 5.92591961 -6.64904708 4.94943666 -10 4 C-10.969375 3.71640625 -11.93875 3.4328125 -12.9375 3.140625 C-34.6046303 -2.60116453 -53.13676379 3.24837613 -73 12 C-69.34142468 13.31534494 -66.91973519 12.65468309 -63.25 11.5625 C-62.26515625 11.27503906 -61.2803125 10.98757812 -60.265625 10.69140625 C-59.14414063 10.34916016 -59.14414063 10.34916016 -58 10 C-58.95676578 12.40686392 -59.51631205 13.72792553 -61.8125 15.01953125 C-62.8953125 15.41205078 -62.8953125 15.41205078 -64 15.8125 C-71.08867924 18.69835972 -76.92583585 23.42700228 -83 28 C-82.42547254 31.93075644 -82.42547254 31.93075644 -80 35 C-79.67 35.99 -79.34 36.98 -79 38 C-83.84146109 36.53289058 -87.55948972 33.6487256 -91 30 C-91 29.34 -91 28.68 -91 28 C-89.34765625 26.67138672 -89.34765625 26.67138672 -87.0625 25.1796875 C-86.25039062 24.64472656 -85.43828125 24.10976562 -84.6015625 23.55859375 C-83.74304688 23.00300781 -82.88453125 22.44742188 -82 21.875 C-80.71222656 21.03001953 -80.71222656 21.03001953 -79.3984375 20.16796875 C-77.26960002 18.77239751 -75.13673026 17.38344445 -73 16 C-76.67807136 14.91961619 -79.22836793 15.35802007 -83 16 C-83.99 15.67 -84.98 15.34 -86 15 C-87.66621616 14.96125079 -89.33394172 14.9549714 -91 15 C-65.8883041 -4.57146563 -29.88128437 -13.16508761 0 0 Z " fill="#D3BD82" transform="translate(297,50)"/>
<path d="M0 0 C1.9375 1.0625 1.9375 1.0625 3 3 C3.7840465 5.70957247 4.18700527 8.17792053 4 11 C2.375 13.5625 2.375 13.5625 0 15 C-3.39154295 14.83849795 -4.58296757 14.41703243 -7 12 C-7 10.68 -7 9.36 -7 8 C-7.66 8 -8.32 8 -9 8 C-9.31364861 11.45013471 -9.44797604 13.3549145 -7.4375 16.25 C-1.93856554 20.19795294 4.44847102 20.76044533 11 20 C20.69257038 18.08571735 28.94358657 14.29485012 37.6015625 9.70703125 C40.24203718 8.38072385 42.18697308 7.61892739 45 7 C45.495 7.99 45.495 7.99 46 9 C43.69 9.99 41.38 10.98 39 12 C39 12.66 39 13.32 39 14 C39.66 14.33 40.32 14.66 41 15 C41 14.34 41 13.68 41 13 C42.65 13 44.3 13 46 13 C37.58369979 22.18624566 20.0696316 26.25337716 8.10546875 27.23828125 C0.18792897 27.43966446 -5.52633159 26.40850926 -11.88671875 21.5625 C-15.41097221 18.1450421 -16.43709353 15.27110541 -16.6875 10.375 C-16.46765613 6.37384163 -16.14860902 5.20082299 -13.6875 1.875 C-8.95165541 -1.42907762 -5.40937881 -1.23094424 0 0 Z " fill="#5B5B57" transform="translate(215,119)"/>
<path d="M0 0 C0.35453928 10.14376273 0.35453928 10.14376273 -2 15 C-2 15.99 -2 16.98 -2 18 C-0.68 18.33 0.64 18.66 2 19 C2 18.01 2 17.02 2 16 C2.94875 15.7525 3.8975 15.505 4.875 15.25 C8.08693191 14.3142923 8.08693191 14.3142923 9.375 11.875 C9.684375 10.946875 9.684375 10.946875 10 10 C16.04292191 10.94790932 16.04292191 10.94790932 18.61328125 13.7734375 C19.98032264 15.84517911 21.15356193 17.66347825 22 20 C21.68577799 21.33796615 21.34953778 22.67082272 21 24 C20.85870882 25.51270605 20.75537183 27.02928128 20.68359375 28.546875 C20.62075195 29.81337891 20.62075195 29.81337891 20.55664062 31.10546875 C20.51732422 31.97816406 20.47800781 32.85085937 20.4375 33.75 C20.37272461 35.08224609 20.37272461 35.08224609 20.30664062 36.44140625 C20.20086385 38.62745963 20.09877454 40.81362089 20 43 C16.93466836 44.53266582 13.73245728 44.10276471 10.375 44.0625 C9.66859375 44.05798828 8.9621875 44.05347656 8.234375 44.04882812 C6.48954725 44.03703875 4.744763 44.01910324 3 44 C4.61594832 41.95880212 6.2856382 39.95927063 8 38 C8.66 38 9.32 38 10 38 C10.66 36.68 11.32 35.36 12 34 C14 35 14 35 15 36 C15.99 36 16.98 36 18 36 C18.33 33.36 18.66 30.72 19 28 C18.01 28.66 17.02 29.32 16 30 C13.1809082 30.22705078 13.1809082 30.22705078 9.80078125 30.1953125 C8.59228516 30.18886719 7.38378906 30.18242188 6.13867188 30.17578125 C4.2447168 30.15064453 4.2447168 30.15064453 2.3125 30.125 C1.03826172 30.11597656 -0.23597656 30.10695313 -1.54882812 30.09765625 C-4.69940627 30.07405641 -7.84960983 30.04113194 -11 30 C-12.99815357 24.40043131 -13.92414396 19.77243189 -12 14 C-11.34 14 -10.68 14 -10 14 C-9.67 18.62 -9.34 23.24 -9 28 C-5.04 28 -1.08 28 3 28 C0.42262373 23.70437288 -2.15204009 20.60435093 -5.6875 17.1875 C-6.19861328 16.68541016 -6.70972656 16.18332031 -7.23632812 15.66601562 C-8.48634362 14.43936491 -9.7425468 13.21902509 -11 12 C-9.71999703 8.2943914 -8.30815163 5.91830847 -5.5 3.1875 C-4.8915625 2.58292969 -4.283125 1.97835937 -3.65625 1.35546875 C-2 0 -2 0 0 0 Z " fill="#0A1A35" transform="translate(254,58)"/>
<path d="M0 0 C15.07004868 -0.82005288 27.36937276 0.18468638 41 7 C42.05352843 9.30965848 43.05719096 11.6429774 44 14 C38.80355921 12.40109514 33.93387858 10.25861997 29 8 C29.54140625 8.94746094 29.54140625 8.94746094 30.09375 9.9140625 C34.51272997 18.43287388 35.64179611 26.51141218 33.265625 35.90234375 C31.33239424 41.17118988 28.64769528 44.78972485 25 49 C34.71458957 45.07631512 43.53469077 40.71517762 52.20703125 34.8203125 C55 33 55 33 58 32 C58.495 33.98 58.495 33.98 59 36 C51.87360753 41.89826134 45.23622075 45.28338851 36.47265625 48.109375 C32.69651797 49.46950064 29.10187779 51.189582 25.48046875 52.9140625 C21.33566797 54.7286367 17.88214512 55.12171354 13.359375 55.09765625 C12.28945313 55.09443359 11.21953125 55.09121094 10.1171875 55.08789062 C9.00601562 55.07951172 7.89484375 55.07113281 6.75 55.0625 C5.06003906 55.05573242 5.06003906 55.05573242 3.3359375 55.04882812 C0.55723783 55.03705397 -2.22135409 55.0206084 -5 55 C-5 54.67 -5 54.34 -5 54 C-3.7934375 53.91363281 -2.586875 53.82726562 -1.34375 53.73828125 C8.87472756 52.88629716 16.82107243 52.16845543 24 44 C28.37060708 35.60960379 29.81325706 26.32896455 27.1875 17.1640625 C23.87197735 9.49691637 18.4276688 5.89757234 10.9375 2.6875 C7.29324313 1.83458882 3.72318177 1.38515674 0 1 C0 0.67 0 0.34 0 0 Z " fill="#0B172B" transform="translate(261,52)"/>
<path d="M0 0 C4.5111138 -0.39803945 7.03078899 0.97489234 11 3 C24.5713463 6.00912291 38.96295099 4.345683 52 0 C52.66 0.99 53.32 1.98 54 3 C54.99 3 55.98 3 57 3 C57.495 5.475 57.495 5.475 58 8 C51.00868999 13.41949324 43.67063364 18.23131807 36.1875 22.9375 C35.28040283 23.51717529 34.37330566 24.09685059 33.4387207 24.6940918 C25.10195038 29.87985988 25.10195038 29.87985988 20 30 C19.34 29.67 18.68 29.34 18 29 C18 29.66 18 30.32 18 31 C17.01 30.67 16.02 30.34 15 30 C16 27 16 27 19.0625 25.3125 C20.031875 24.879375 21.00125 24.44625 22 24 C21.67 23.34 21.34 22.68 21 22 C21.99902344 21.36191406 22.99804688 20.72382812 24.02734375 20.06640625 C25.33077171 19.23183727 26.63415481 18.39719823 27.9375 17.5625 C28.9265332 16.93118164 28.9265332 16.93118164 29.93554688 16.28710938 C33.13128813 14.35604912 33.13128813 14.35604912 36 12 C34.24623047 11.90912109 34.24623047 11.90912109 32.45703125 11.81640625 C30.90884386 11.73195966 29.36066732 11.64731375 27.8125 11.5625 C27.04357422 11.52318359 26.27464844 11.48386719 25.48242188 11.44335938 C21.56748925 11.22492966 17.82879312 10.91307892 14 10 C13.67 8.68 13.34 7.36 13 6 C11.02 6.33 9.04 6.66 7 7 C6.67 6.01 6.34 5.02 6 4 C3.69 3.67 1.38 3.34 -1 3 C-0.67 2.01 -0.34 1.02 0 0 Z " fill="#83714D" transform="translate(238,103)"/>
<path d="M0 0 C6.92674234 3.80023402 11.51211874 9.48557497 14.0078125 16.97265625 C14.68002394 25.02817366 14.48391211 31.12685685 10.0078125 37.97265625 C9.0178125 38.46765625 9.0178125 38.46765625 8.0078125 38.97265625 C8.4409375 37.94140625 8.8740625 36.91015625 9.3203125 35.84765625 C10.38116073 32.21224518 10.38116073 32.21224518 9.02734375 30.171875 C7.49273796 28.3201128 7.49273796 28.3201128 5.0078125 25.97265625 C7.47581297 27.1243898 9.05564815 28.0204919 11.0078125 29.97265625 C11.0078125 24.69265625 11.0078125 19.41265625 11.0078125 13.97265625 C7.23579725 13.83804825 3.46855127 13.73871863 -0.3046875 13.66015625 C-1.37654297 13.61826172 -2.44839844 13.57636719 -3.55273438 13.53320312 C-5.09477539 13.5090332 -5.09477539 13.5090332 -6.66796875 13.484375 C-8.0897644 13.44509888 -8.0897644 13.44509888 -9.5402832 13.4050293 C-12.24958635 13.73630454 -12.24958635 13.73630454 -13.65698242 16.48364258 C-14.31790894 17.71570435 -14.31790894 17.71570435 -14.9921875 18.97265625 C-17.6796875 19.28515625 -17.6796875 19.28515625 -19.9921875 18.97265625 C-19.9921875 19.96265625 -19.9921875 20.95265625 -19.9921875 21.97265625 C-21.3121875 21.64265625 -22.6321875 21.31265625 -23.9921875 20.97265625 C-23.9921875 19.98265625 -23.9921875 18.99265625 -23.9921875 17.97265625 C-24.6521875 17.64265625 -25.3121875 17.31265625 -25.9921875 16.97265625 C-25.3321875 16.64265625 -24.6721875 16.31265625 -23.9921875 15.97265625 C-23.29880958 12.93269145 -23.29880958 12.93269145 -22.8671875 9.41015625 C-22.69960937 8.21261719 -22.53203125 7.01507813 -22.359375 5.78125 C-22.23820313 4.85441406 -22.11703125 3.92757812 -21.9921875 2.97265625 C-23.26419721 4.07546752 -24.53474603 5.17996394 -25.8046875 6.28515625 C-26.51238281 6.90003906 -27.22007812 7.51492187 -27.94921875 8.1484375 C-29.69355489 9.7059996 -31.35996791 11.299245 -32.9921875 12.97265625 C-31.64705714 7.42399353 -27.46604966 4.17287837 -22.9921875 0.97265625 C-16.21864961 -2.47132163 -7.12209167 -2.44531346 0 0 Z " fill="#32536A" transform="translate(275.9921875,55.02734375)"/>
<path d="M0 0 C1.07314453 1.07894531 1.07314453 1.07894531 2.16796875 2.1796875 C3.98824218 3.99242877 5.82312478 5.79068044 7.67578125 7.5703125 C8.54589844 8.41335937 9.41601562 9.25640625 10.3125 10.125 C11.19550781 10.97320312 12.07851562 11.82140625 12.98828125 12.6953125 C15 15 15 15 15 18 C11.04 18 7.08 18 3 18 C1.61773984 15.23547967 1.90474613 12.9538637 1.9375 9.875 C1.94652344 8.77929688 1.95554688 7.68359375 1.96484375 6.5546875 C1.97644531 5.71164063 1.98804688 4.86859375 2 4 C1.34 4 0.68 4 0 4 C-0.02741912 5.5415636 -0.04658248 7.08327474 -0.0625 8.625 C-0.07410156 9.48351562 -0.08570313 10.34203125 -0.09765625 11.2265625 C0.00785006 14.22294183 0.48445459 17.04943907 1 20 C5.43775675 19.86138974 9.87512777 19.71288136 14.3125 19.5625 C15.57513672 19.52318359 16.83777344 19.48386719 18.13867188 19.44335938 C19.34716797 19.40146484 20.55566406 19.35957031 21.80078125 19.31640625 C22.91622314 19.27974854 24.03166504 19.24309082 25.1809082 19.20532227 C28.07873571 19.11068791 28.07873571 19.11068791 31 18 C30.67 20.64 30.34 23.28 30 26 C28.02 26.33 26.04 26.66 24 27 C24 26.34 24 25.68 24 25 C23.2575 25.7425 22.515 26.485 21.75 27.25 C19.5 29.5 17.25 31.75 15 34 C8.48831468 32.29455861 4.09225378 29.16535293 0.6875 23.4375 C-1.62018701 18.73665608 -2.15479075 15.23347988 -2.1875 10 C-2.20167969 8.96875 -2.21585938 7.9375 -2.23046875 6.875 C-2.00276947 4.03454797 -1.46504061 2.40892052 0 0 Z " fill="#294A66" transform="translate(242,68)"/>
<path d="M0 0 C0.58007812 0.13277344 1.16015625 0.26554687 1.7578125 0.40234375 C2.53898437 0.57894531 3.32015625 0.75554688 4.125 0.9375 C4.95 1.12570313 5.775 1.31390625 6.625 1.5078125 C9.11030291 2.06599353 9.11030291 2.06599353 12.125 2.3125 C15.53319171 3.12750236 17.34470721 4.62774406 20.078125 6.73828125 C22.78215684 8.51348914 25.5841306 9.30219988 28.69140625 10.12890625 C34.48122617 12.31355911 39.15710663 16.65437943 43.8125 20.625 C44.39708984 21.11484375 44.98167969 21.6046875 45.58398438 22.109375 C49.87415902 25.74831803 49.87415902 25.74831803 51 28 C40.605 31.465 40.605 31.465 30 35 C29.01 34.01 28.02 33.02 27 32 C26.01 31.67 25.02 31.34 24 31 C28.39251833 28.97944157 32.15340923 27.59104765 37 27 C28.5770659 18.01553696 18.73248267 11.81471683 8 6 C8.66 7.32 9.32 8.64 10 10 C9.01 10 8.02 10 7 10 C5.5393715 7.35261084 5 6.10551666 5 3 C2.525 2.01 2.525 2.01 0 1 C0 0.67 0 0.34 0 0 Z " fill="#B4975D" transform="translate(297,56)"/>
<path d="M0 0 C5.75 0.875 5.75 0.875 8 2 C16.09826049 2.90091897 23.92962802 3.27426926 32 2 C31.67 2.99 31.34 3.98 31 5 C31.66 5.33 32.32 5.66 33 6 C32.67 6.66 32.34 7.32 32 8 C32 9.32 32 10.64 32 12 C26.68706874 13.77097709 20.99743748 13.18464142 15.4375 13.1875 C14.18001953 13.19974609 12.92253906 13.21199219 11.62695312 13.22460938 C10.42876953 13.22654297 9.23058594 13.22847656 7.99609375 13.23046875 C6.89450928 13.23457764 5.7929248 13.23868652 4.65795898 13.24291992 C2 13 2 13 0 11 C-0.1953125 8.3984375 -0.1953125 8.3984375 -0.125 5.375 C-0.10695312 4.37210937 -0.08890625 3.36921875 -0.0703125 2.3359375 C-0.04710937 1.56507812 -0.02390625 0.79421875 0 0 Z " fill="#A37F45" transform="translate(164,71)"/>
<path d="M0 0 C-0.33 1.65 -0.66 3.3 -1 5 C-0.34 5.33 0.32 5.66 1 6 C-2.57152574 7.67905008 -6.14622658 9.35112814 -9.72387695 11.01708984 C-11.53178905 11.86067013 -13.33720791 12.70958714 -15.14257812 13.55859375 C-16.86831055 14.36103516 -16.86831055 14.36103516 -18.62890625 15.1796875 C-19.68150635 15.67194824 -20.73410645 16.16420898 -21.81860352 16.67138672 C-29.58176208 19.91343329 -37.62626298 21.88908682 -45.7890625 19.01953125 C-50.13593682 16.93585256 -53.90994355 14.79234201 -57 11 C-56.01 11.33 -55.02 11.66 -54 12 C-39.60138718 15.41619109 -28.87180395 12.20956053 -16 6 C-13.54438907 4.84826409 -11.08437176 3.7062034 -8.625 2.5625 C-7.60664063 2.06878906 -6.58828125 1.57507812 -5.5390625 1.06640625 C-3 0 -3 0 0 0 Z " fill="#457296" transform="translate(222,36)"/>
<path d="M0 0 C6.6 0 13.2 0 20 0 C21.53266582 3.06533164 21.10276471 6.26754272 21.0625 9.625 C21.05798828 10.33140625 21.05347656 11.0378125 21.04882812 11.765625 C21.03703875 13.51045275 21.01910324 15.255237 21 17 C19.02 15.68 17.04 14.36 15 13 C15.350625 13.61875 15.70125 14.2375 16.0625 14.875 C16.5265625 15.926875 16.5265625 15.926875 17 17 C15.73577236 19.52845528 14.47154472 19.76422764 12 21 C11.67 21.66 11.34 22.32 11 23 C10.34 23 9.68 23 9 23 C9 25.31 9 27.62 9 30 C10.32 29.67 11.64 29.34 13 29 C9.75483582 32.89419701 6.93131773 33.99702012 2 35 C-2.18955417 35.21670108 -5.92406983 34.98810428 -10 34 C-10 33.67 -10 33.34 -10 33 C-1.585 32.505 -1.585 32.505 7 32 C6.98839844 30.68644531 6.97679687 29.37289062 6.96484375 28.01953125 C6.95546172 26.28385559 6.94636196 24.54817839 6.9375 22.8125 C6.92912109 21.94818359 6.92074219 21.08386719 6.91210938 20.19335938 C6.89866826 16.68522963 6.89455842 13.49689343 7.625 10.0546875 C7.74875 9.37664062 7.8725 8.69859375 8 8 C6.12802546 5.30566683 6.12802546 5.30566683 4 3 C4 2.34 4 1.68 4 1 C2.68 0.67 1.36 0.34 0 0 Z " fill="#2C4F6A" transform="translate(267,69)"/>
<path d="M0 0 C0.66 0.99 1.32 1.98 2 3 C-3.61 5.31 -9.22 7.62 -15 10 C-10.74412077 11.06396981 -9.32535515 10.77540332 -5.25 9.5625 C-4.26515625 9.27503906 -3.2803125 8.98757812 -2.265625 8.69140625 C-1.51796875 8.46324219 -0.7703125 8.23507813 0 8 C-0.95676578 10.40686392 -1.51631205 11.72792553 -3.8125 13.01953125 C-4.534375 13.28121094 -5.25625 13.54289062 -6 13.8125 C-13.08867924 16.69835972 -18.92583585 21.42700228 -25 26 C-24.42547254 29.93075644 -24.42547254 29.93075644 -22 33 C-21.67 33.99 -21.34 34.98 -21 36 C-25.84146109 34.53289058 -29.55948972 31.6487256 -33 28 C-33 27.34 -33 26.68 -33 26 C-31.34765625 24.67138672 -31.34765625 24.67138672 -29.0625 23.1796875 C-28.25039062 22.64472656 -27.43828125 22.10976562 -26.6015625 21.55859375 C-25.74304688 21.00300781 -24.88453125 20.44742188 -24 19.875 C-22.71222656 19.03001953 -22.71222656 19.03001953 -21.3984375 18.16796875 C-19.26960002 16.77239751 -17.13673026 15.38344445 -15 14 C-18.67807136 12.91961619 -21.22836793 13.35802007 -25 14 C-25.99 13.67 -26.98 13.34 -28 13 C-29.66621616 12.96125079 -31.33394172 12.9549714 -33 13 C-25.69855648 7.34224637 -18.22157568 2.57775972 -8.9609375 1.2890625 C-0.12882448 -0.01288245 -0.12882448 -0.01288245 0 0 Z " fill="#BFA66D" transform="translate(239,52)"/>
<path d="M0 0 C3 1.8125 3 1.8125 6 4 C6 4.99 6 5.98 6 7 C5.34 7 4.68 7 4 7 C4 7.66 4 8.32 4 9 C1.69 9.33 -0.62 9.66 -3 10 C-3.33 11.32 -3.66 12.64 -4 14 C-2.02 13.34 -0.04 12.68 2 12 C-1.7101243 16.06414379 -5.37156588 18.61950825 -10.25 21.125 C-10.9087915 21.47046875 -11.56758301 21.8159375 -12.24633789 22.171875 C-17.04471666 24.63722661 -21.79594176 26.53921172 -27 28 C-26.27683594 26.91332031 -26.27683594 26.91332031 -25.5390625 25.8046875 C-24.90742188 24.83789062 -24.27578125 23.87109375 -23.625 22.875 C-22.99851562 21.92367187 -22.37203125 20.97234375 -21.7265625 19.9921875 C-20.02318931 17.04018781 -18.95806591 14.26129506 -18 11 C-15.36 10.67 -12.72 10.34 -10 10 C-9.773125 9.236875 -9.54625 8.47375 -9.3125 7.6875 C-7.71052866 4.40727297 -6.27374 3.51709902 -3 2 C-2.01 2 -1.02 2 0 2 C0 1.34 0 0.68 0 0 Z " fill="#DDCBA7" transform="translate(312,74)"/>
<path d="M0 0 C8.91 0 17.82 0 27 0 C27 0.66 27 1.32 27 2 C25.68644531 1.98839844 24.37289062 1.97679687 23.01953125 1.96484375 C21.28385559 1.95546172 19.54817839 1.94636196 17.8125 1.9375 C16.94818359 1.92912109 16.08386719 1.92074219 15.19335938 1.91210938 C13.93168945 1.90727539 13.93168945 1.90727539 12.64453125 1.90234375 C11.87471924 1.89710693 11.10490723 1.89187012 10.31176758 1.88647461 C7.529454 1.96602967 7.529454 1.96602967 3 3 C2.67 38.64 2.34 74.28 2 111 C9.92 111 17.84 111 26 111 C26 111.33 26 111.66 26 112 C17.42 112 8.84 112 0 112 C0 75.04 0 38.08 0 0 Z " fill="#3F4C60" transform="translate(43,14)"/>
<path d="M0 0 C-3.58391303 2.94251162 -7.26931617 5.61221243 -11.125 8.1875 C-12.15882813 8.88230469 -13.19265625 9.57710937 -14.2578125 10.29296875 C-17 12 -17 12 -20 13 C-12.50210793 21.27353607 -2.85877926 26.96572974 7 32 C6.34 32.66 5.68 33.32 5 34 C-0.81008762 33.87675572 -5.00323312 30.89263731 -9.75 27.875 C-10.5426123 27.38088623 -11.33522461 26.88677246 -12.15185547 26.37768555 C-17.90039875 22.76853161 -23.53253333 19.02504456 -29 15 C-24.86951449 10.46228352 -20.26862819 7.33792483 -15.0625 4.125 C-13.88397461 3.35929687 -13.88397461 3.35929687 -12.68164062 2.578125 C-8.13406205 -0.23794876 -5.39665959 -1.81909874 0 0 Z " fill="#FAF5E3" transform="translate(226,65)"/>
<path d="M0 0 C0 0.66 0 1.32 0 2 C-2.97 2 -5.94 2 -9 2 C-9 2.33 -9 2.66 -9 3 C-9.70125 3.02578125 -10.4025 3.0515625 -11.125 3.078125 C-18.41591931 3.51399518 -24.42765682 4.43561304 -29.75390625 9.75 C-31.23199075 11.45959171 -32.61788333 13.21293195 -34 15 C-34.66 15.66 -35.32 16.32 -36 17 C-36 14.36 -36 11.72 -36 9 C-36.94101563 9.30035156 -37.88203125 9.60070313 -38.8515625 9.91015625 C-40.71941406 10.48056641 -40.71941406 10.48056641 -42.625 11.0625 C-43.85476562 11.44535156 -45.08453125 11.82820313 -46.3515625 12.22265625 C-50.02862498 13.0060989 -52.38247917 12.88490125 -56 12 C-43.10180206 1.24085964 -16.24051803 -5.14841164 0 0 Z " fill="#202728" transform="translate(278,51)"/>
<path d="M0 0 C10.16288452 3.58078241 19.86145034 8.27646187 29.234375 13.56640625 C29.84321533 13.90768555 30.45205566 14.24896484 31.0793457 14.60058594 C35.3610364 17.06972904 35.3610364 17.06972904 36.484375 19.31640625 C32.54034051 19.02781836 30.19042448 18.26368819 27.171875 15.81640625 C23.69192761 13.12945572 20.91823841 12.75325885 16.6015625 12.484375 C13.6855276 12.25302906 11.22444355 11.32296205 8.484375 10.31640625 C0.91828354 7.86366232 -6.75265711 6.03204649 -14.515625 4.31640625 C-11.62368898 -2.08716636 -6.25513745 -1.69976561 0 0 Z " fill="#D7C28A" transform="translate(288.515625,46.68359375)"/>
<path d="M0 0 C2.9375 2.5 2.9375 2.5 5 5 C3.73027344 5.23074219 2.46054688 5.46148437 1.15234375 5.69921875 C-8.61546367 7.53222999 -17.89872982 9.69464953 -27.2265625 13.14453125 C-30 14 -30 14 -32 13 C-32 11.02 -32 9.04 -32 7 C-22.19174305 3.05668037 -10.70209164 -1.23295987 0 0 Z " fill="#5FA6B2" transform="translate(253,28)"/>
<path d="M0 0 C3.79303725 1.00193437 6.71536341 1.81024227 10 4 C10 4.66 10 5.32 10 6 C10.763125 6.28875 11.52625 6.5775 12.3125 6.875 C15 8 15 8 18 10 C18 10.66 18 11.32 18 12 C16.906875 12.391875 15.81375 12.78375 14.6875 13.1875 C11.8023327 14.39685156 11.14536313 14.75167132 9.5 17.5625 C7.35432587 21.04922046 4.84784998 21.04245018 1 22 C0.93941406 20.98679687 0.87882812 19.97359375 0.81640625 18.9296875 C0.73193296 17.57811486 0.64728843 16.22655291 0.5625 14.875 C0.50352539 13.87726563 0.50352539 13.87726563 0.44335938 12.859375 C0.2431056 9.71693122 -0.0567612 6.67427236 -0.59765625 3.5703125 C-0.73042969 2.72210938 -0.86320312 1.87390625 -1 1 C-0.67 0.67 -0.34 0.34 0 0 Z " fill="#E9D9B5" transform="translate(294,64)"/>
<path d="M0 0 C3.13119424 0.94072164 5.84998811 2.2445735 8.75390625 3.74609375 C9.77613281 4.27074219 10.79835938 4.79539062 11.8515625 5.3359375 C13.50831944 6.19508106 15.15976158 7.06492923 16.796875 7.9609375 C19.99459665 9.39167069 23.22384034 9.46183716 26.69140625 9.80859375 C26.69140625 11.45859375 26.69140625 13.10859375 26.69140625 14.80859375 C23.06804332 16.62027521 19.34376622 16.34817797 15.53076172 15.10302734 C13.19665172 14.12875048 10.91241059 13.08356746 8.62890625 11.99609375 C7.46391602 11.46145508 7.46391602 11.46145508 6.27539062 10.91601562 C2.03957122 8.96129795 -2.14786586 6.91891494 -6.30859375 4.80859375 C-5.11558361 1.22956334 -3.9618147 -0.32847533 0 0 Z " fill="#497798" transform="translate(313.30859375,37.19140625)"/>
<path d="M0 0 C6.01960751 0 11.25378752 1.55705425 16.875 3.625 C17.85666138 3.95951172 17.85666138 3.95951172 18.8581543 4.30078125 C21.51541691 5.34206182 23.56875244 6.3115969 25.11035156 8.77246094 C25.9453125 10.7109375 25.9453125 10.7109375 27 14 C21.80355921 12.40109514 16.93387858 10.25861997 12 8 C12.3609375 8.63164063 12.721875 9.26328125 13.09375 9.9140625 C17.12215128 17.67992496 17.79907596 24.32431819 17 33 C16.67 33.99 16.34 34.98 16 36 C15.34 36 14.68 36 14 36 C12.79486699 32.12949982 13.28799897 29.15266597 13.94140625 25.21875 C14.01171614 22.55634895 13.25769029 21.31632168 12 19 C11.64570093 17.50931948 11.3336348 16.00802592 11.0625 14.5 C10.33416214 10.95153796 9.42898625 8.76021164 7 6 C7 5.34 7 4.68 7 4 C6.1646875 4.3403125 6.1646875 4.3403125 5.3125 4.6875 C2.07876916 5.12449065 0.60926022 3.81198627 -2 2 C-1.34 1.34 -0.68 0.68 0 0 Z " fill="#191C1C" transform="translate(278,52)"/>
<path d="M0 0 C1.9375 1.0625 1.9375 1.0625 3 3 C3.7840465 5.70957247 4.18700527 8.17792053 4 11 C2.375 13.5625 2.375 13.5625 0 15 C-3.39154295 14.83849795 -4.58296757 14.41703243 -7 12 C-7 10.68 -7 9.36 -7 8 C-10.41642759 7.74984127 -10.41642759 7.74984127 -14 8 C-14.66 8.99 -15.32 9.98 -16 11 C-16.3125 8.3125 -16.3125 8.3125 -16 5 C-11.11217134 -0.94465648 -7.15157943 -1.6273949 0 0 Z " fill="#887F6D" transform="translate(215,119)"/>
<path d="M0 0 C0.33 0 0.66 0 1 0 C0.85851011 1.6045556 0.71164314 3.20863767 0.5625 4.8125 C0.48128906 5.70582031 0.40007812 6.59914063 0.31640625 7.51953125 C0 10 0 10 -1 13 C-1.57706459 20.49074227 -0.89673352 26.1202579 2 33 C2.1875 36 2.1875 36 2 38 C2.66 38 3.32 38 4 38 C3.67 38.99 3.34 39.98 3 41 C-0.6297578 39.5682192 -1.90238825 37.99194181 -3.6875 34.5625 C-4.10386719 33.78003906 -4.52023438 32.99757812 -4.94921875 32.19140625 C-8.25885661 25.28915034 -8.36429407 16.09288221 -5.953125 8.859375 C-4.26886513 5.47104045 -2.68148248 2.68148248 0 0 Z " fill="#121F2F" transform="translate(242,59)"/>
<path d="M0 0 C-2.65545191 2.94227772 -5.76421926 4.95286371 -9.0625 7.125 C-10.12597656 7.82882813 -11.18945312 8.53265625 -12.28515625 9.2578125 C-15 11 -15 11 -17 12 C-19.125 11.0625 -19.125 11.0625 -21 10 C-21 9.34 -21 8.68 -21 8 C-22.794375 8.2784375 -22.794375 8.2784375 -24.625 8.5625 C-31.1126167 9.30987344 -37.52243156 8.59892169 -44 8 C-44 7.67 -44 7.34 -44 7 C-43.2471875 6.98582031 -42.494375 6.97164062 -41.71875 6.95703125 C-34.9291413 6.65215804 -28.82560374 5.6067158 -22.375 3.5625 C-21.68857422 3.34505127 -21.00214844 3.12760254 -20.29492188 2.90356445 C-17.19088042 1.87417085 -14.7386019 0.8257346 -12 -1 C-7.28727465 -2.0472723 -4.33042455 -2.23082477 0 0 Z " fill="#B29559" transform="translate(216,66)"/>
<path d="M0 0 C4.5111138 -0.39803945 7.03078899 0.97489234 11 3 C16.5527164 4.24353213 22.20952316 4.32835766 27.875 4.5625 C29.33679688 4.62727539 29.33679688 4.62727539 30.828125 4.69335938 C33.21862802 4.79882274 35.60922444 4.90094175 38 5 C37.67 5.66 37.34 6.32 37 7 C36.01 7 35.02 7 34 7 C34 7.66 34 8.32 34 9 C35.32 9 36.64 9 38 9 C38.495 10.98 38.495 10.98 39 13 C38.01 13.33 37.02 13.66 36 14 C36 13.34 36 12.68 36 12 C34.24623047 11.90912109 34.24623047 11.90912109 32.45703125 11.81640625 C30.90884386 11.73195966 29.36066732 11.64731375 27.8125 11.5625 C27.04357422 11.52318359 26.27464844 11.48386719 25.48242188 11.44335938 C21.56748925 11.22492966 17.82879312 10.91307892 14 10 C13.67 8.68 13.34 7.36 13 6 C11.02 6.33 9.04 6.66 7 7 C6.67 6.01 6.34 5.02 6 4 C3.69 3.67 1.38 3.34 -1 3 C-0.67 2.01 -0.34 1.02 0 0 Z " fill="#8A7753" transform="translate(238,103)"/>
<path d="M0 0 C1.32 0 2.64 0 4 0 C4.08636719 0.61488281 4.17273438 1.22976562 4.26171875 1.86328125 C5.07007084 7.06592658 5.07007084 7.06592658 8.3125 11 C10.8852937 11.95731859 13.28428467 12.61204067 16 13 C16 13.66 16 14.32 16 15 C16.66 15 17.32 15 18 15 C17.67 16.65 17.34 18.3 17 20 C10.13410129 19.43951847 4.87191348 17.1892051 0 12.25 C-2.71372092 7.84020351 -2.17440517 5.94927895 -1 1 C-0.67 0.67 -0.34 0.34 0 0 Z " fill="#535458" transform="translate(201,126)"/>
<path d="M0 0 C10.61789211 3.1210643 21.18364469 11.19903122 29 19 C29 19.99 29 20.98 29 22 C25.37 22.66 21.74 23.32 18 24 C18.99 22.68 19.98 21.36 21 20 C16.01869022 14.70735836 10.55880858 10.24568178 4.0625 6.9375 C1 5 1 5 0.0625 2.25 C0.041875 1.5075 0.02125 0.765 0 0 Z " fill="#F5EDDE" transform="translate(305,62)"/>
<path d="M0 0 C-0.78375 0.61875 -1.5675 1.2375 -2.375 1.875 C-4.96837647 3.89858661 -4.96837647 3.89858661 -7 6 C-6.67 6.66 -6.34 7.32 -6 8 C-7.03125 8.5775 -8.0625 9.155 -9.125 9.75 C-12.52656807 11.68979442 -15.76699717 13.79209563 -19 16 C-19.33 14.35 -19.66 12.7 -20 11 C-21.65 11.33 -23.3 11.66 -25 12 C-25 10.35 -25 8.7 -25 7 C-23.10667466 6.18167278 -21.21022267 5.37057732 -19.3125 4.5625 C-17.72888672 3.88380859 -17.72888672 3.88380859 -16.11328125 3.19140625 C-13.36826822 2.14093075 -10.87977105 1.51250163 -8 1 C-6.948125 0.62875 -5.89625 0.2575 -4.8125 -0.125 C-2 -1 -2 -1 0 0 Z " fill="#947D55" transform="translate(315,95)"/>
<path d="M0 0 C0.66 0.33 1.32 0.66 2 1 C-0.6998236 4.13179537 -3.11589649 5.52708372 -6.93359375 7.01953125 C-12.75175241 9.78013205 -17.87535283 14.13589823 -23 18 C-22.42547254 21.93075644 -22.42547254 21.93075644 -20 25 C-19.67 25.99 -19.34 26.98 -19 28 C-23.84146109 26.53289058 -27.55948972 23.6487256 -31 20 C-31 19.34 -31 18.68 -31 18 C-29.34765625 16.703125 -29.34765625 16.703125 -27.0625 15.25 C-26.25039062 14.7240625 -25.43828125 14.198125 -24.6015625 13.65625 C-22.8671875 12.55208333 -21.1328125 11.44791667 -19.3984375 10.34375 C-18.58632812 9.8178125 -17.77421875 9.291875 -16.9375 8.75 C-16.18339844 8.27046875 -15.42929688 7.7909375 -14.65234375 7.296875 C-14.10707031 6.86890625 -13.56179687 6.4409375 -13 6 C-13 5.34 -13 4.68 -13 4 C-12.14535156 3.79503906 -11.29070312 3.59007812 -10.41015625 3.37890625 C-9.30542969 3.10949219 -8.20070312 2.84007812 -7.0625 2.5625 C-5.96035156 2.29566406 -4.85820312 2.02882812 -3.72265625 1.75390625 C-1.10578746 1.27004275 -1.10578746 1.27004275 0 0 Z " fill="#CAB799" transform="translate(237,60)"/>
<path d="M0 0 C0.33 0 0.66 0 1 0 C1.03867188 1.14275391 1.03867188 1.14275391 1.078125 2.30859375 C1.65564462 12.82207595 4.65849909 19.72081826 11 28 C9.88625 27.67 8.7725 27.34 7.625 27 C3.75136049 25.86508653 3.75136049 25.86508653 0.0625 26.625 C-2 27 -2 27 -5 25 C-4.34 24.34 -3.68 23.68 -3 23 C-3.433125 22.5875 -3.86625 22.175 -4.3125 21.75 C-6.05838272 19.93945495 -7.52619271 18.03525768 -9 16 C-8.01 16 -7.02 16 -6 16 C-6.33 15.01 -6.66 14.02 -7 13 C-6.34 12.67 -5.68 12.34 -5 12 C-5 12.66 -5 13.32 -5 14 C-3.35 14 -1.7 14 0 14 C-0.185625 12.80375 -0.37125 11.6075 -0.5625 10.375 C-1.0311197 6.71716293 -0.81481013 3.62137834 0 0 Z " fill="#D4C6AA" transform="translate(234,74)"/>
<path d="M0 0 C0.58007812 0.13277344 1.16015625 0.26554687 1.7578125 0.40234375 C2.53898437 0.57894531 3.32015625 0.75554688 4.125 0.9375 C4.95 1.12570313 5.775 1.31390625 6.625 1.5078125 C9.11030291 2.06599353 9.11030291 2.06599353 12.125 2.3125 C15.53067728 3.12690109 17.34056895 4.62337332 20.0703125 6.734375 C22.85814495 8.56283191 25.80290662 9.36082962 28.9765625 10.30859375 C31.3759279 11.12845413 33.13100493 12.29352624 35 14 C33.824375 14.185625 33.824375 14.185625 32.625 14.375 C29.85942178 14.79117993 29.85942178 14.79117993 28 17 C27.67 16.34 27.34 15.68 27 15 C26.30519531 14.87753906 25.61039062 14.75507812 24.89453125 14.62890625 C21.01827279 13.78669625 18.07012576 11.95453431 14.6875 9.9375 C14.04232422 9.56044922 13.39714844 9.18339844 12.73242188 8.79492188 C11.15121848 7.86962507 9.5750854 6.93567319 8 6 C8.66 7.32 9.32 8.64 10 10 C9.01 10 8.02 10 7 10 C5.5393715 7.35261084 5 6.10551666 5 3 C2.525 2.01 2.525 2.01 0 1 C0 0.67 0 0.34 0 0 Z " fill="#C1A767" transform="translate(297,56)"/>
<path d="M0 0 C8.28007052 -0.45439411 13.82840307 -0.24983522 21 4 C21.99 4 22.98 4 24 4 C28.41841607 8.81174688 30.02244044 14.69692937 31 21 C31.33 21 31.66 21 32 21 C32.09038099 26.15171623 31.84681133 30.91913204 31 36 C31.66 36.33 32.32 36.66 33 37 C32.01 37.99 31.02 38.98 30 40 C28.4375 38.1875 28.4375 38.1875 27 36 C27.33 35.01 27.66 34.02 28 33 C28.84306138 24.41281768 28.45521419 16.98317928 23 10 C16.14926639 3.94264179 8.89877034 1.92056245 0 1 C0 0.67 0 0.34 0 0 Z " fill="#071B24" transform="translate(261,52)"/>
<path d="M0 0 C7.30935018 0.00087359 12.55646103 1.50331871 18 6.5 C24.56868065 14.41472176 25.89998035 21.31222244 25 31.5 C24.00284735 34.64268489 22.82826391 36.70383166 21 39.5 C20.01 39.995 20.01 39.995 19 40.5 C19.433125 39.46875 19.86625 38.4375 20.3125 37.375 C21.37334823 33.73958893 21.37334823 33.73958893 20.01953125 31.69921875 C18.48492546 29.84745655 18.48492546 29.84745655 16 27.5 C18.46800047 28.65173355 20.04783565 29.54783565 22 31.5 C22 26.22 22 20.94 22 15.5 C15.07 15.5 8.14 15.5 1 15.5 C1 15.17 1 14.84 1 14.5 C7.27 14.17 13.54 13.84 20 13.5 C15.11869178 6.4735643 15.11869178 6.4735643 10.75 5.625 C9.38875 5.563125 9.38875 5.563125 8 5.5 C7.34 5.17 6.68 4.84 6 4.5 C6 3.84 6 3.18 6 2.5 C1.05 2.5 -3.9 2.5 -9 2.5 C-6.13011771 -0.36988229 -4.00768701 0.09696017 0 0 Z " fill="#6088A1" transform="translate(265,53.5)"/>
<path d="M0 0 C8.38836188 0.2082889 15.3268905 2.74073249 23 6 C22.1875 8.4375 22.1875 8.4375 21 11 C17.4979746 12.1673418 16.70383962 11.79056598 13.33203125 10.56640625 C11.99301758 10.0878418 11.99301758 10.0878418 10.62695312 9.59960938 C9.69818359 9.25736328 8.76941406 8.91511719 7.8125 8.5625 C6.87212891 8.22412109 5.93175781 7.88574219 4.96289062 7.53710938 C2.63885258 6.69951191 0.31821765 5.85354717 -2 5 C-1.01 4.34 -0.02 3.68 1 3 C0.67 2.01 0.34 1.02 0 0 Z " fill="#5A9BAB" transform="translate(288,30)"/>
<path d="M0 0 C0.99 0.33 1.98 0.66 3 1 C2.67 1.66 2.34 2.32 2 3 C2.4940332 3.31227539 2.98806641 3.62455078 3.49707031 3.94628906 C5.75147874 5.37552688 8.00074308 6.81266997 10.25 8.25 C11.02730469 8.74113281 11.80460938 9.23226562 12.60546875 9.73828125 C16.45748907 12.20752505 19.9393975 14.54448104 23 18 C19.13547228 19.48635681 16.76776197 18.4583401 13 17 C11.11093026 15.91267137 9.25544165 14.76497919 7.4375 13.5625 C3.99574372 11.30216928 0.54473051 9.0960703 -3 7 C-2.01 6.67 -1.02 6.34 0 6 C-0.2784375 4.7934375 -0.2784375 4.7934375 -0.5625 3.5625 C-0.706875 2.716875 -0.85125 1.87125 -1 1 C-0.67 0.67 -0.34 0.34 0 0 Z " fill="#998258" transform="translate(196,77)"/>
<path d="M0 0 C0.35453928 10.14376273 0.35453928 10.14376273 -2 15 C-2 15.99 -2 16.98 -2 18 C-1.01 18.33 -0.02 18.66 1 19 C0.67 19.99 0.34 20.98 0 22 C-3.80635497 18.79239749 -7.54563567 15.59253891 -11 12 C-9.7698784 7.48955412 -5.21930776 0 0 0 Z " fill="#1A3951" transform="translate(254,58)"/>
<path d="M0 0 C0.66 0 1.32 0 2 0 C2.495 1.98 2.495 1.98 3 4 C-4.21954114 9.97535718 -10.96942441 13.37356436 -19.8515625 16.23828125 C-22.69568227 17.24665098 -25.31765394 18.62611543 -28 20 C-28.66 20 -29.32 20 -30 20 C-30 19.01 -30 18.02 -30 17 C-28.91203125 16.5153125 -27.8240625 16.030625 -26.703125 15.53125 C-12.38947505 9.29519399 -12.38947505 9.29519399 0 0 Z " fill="#28221D" transform="translate(317,84)"/>
<path d="M0 0 C0 2 0 2 -1.22192383 3.60668945 C-3.46603844 5.36519036 -4.62564926 5.34981914 -7.44921875 5.29296875 C-8.29677734 5.28330078 -9.14433594 5.27363281 -10.01757812 5.26367188 C-11.33918945 5.2259668 -11.33918945 5.2259668 -12.6875 5.1875 C-13.58017578 5.17396484 -14.47285156 5.16042969 -15.39257812 5.14648438 C-17.59566166 5.11114079 -19.79752582 5.06180493 -22 5 C-22.33 4.34 -22.66 3.68 -23 3 C-23.99 2.67 -24.98 2.34 -26 2 C-26 1.34 -26 0.68 -26 0 C-17.53148356 -1.97965319 -8.53458569 -1.33875854 0 0 Z " fill="#D8C489" transform="translate(278,45)"/>
<path d="M0 0 C0 3.63 0 7.26 0 11 C1.65 11 3.3 11 5 11 C5.66 11.66 6.32 12.32 7 13 C6.46428571 16.53571429 6.46428571 16.53571429 5 18 C3.33382885 18.04063832 1.66611905 18.042721 0 18 C0 18.99 0 19.98 0 21 C-1.32 20.67 -2.64 20.34 -4 20 C-4 19.01 -4 18.02 -4 17 C-4.66 16.67 -5.32 16.34 -6 16 C-5.34 15.67 -4.68 15.34 -4 15 C-3.30662208 11.9600352 -3.30662208 11.9600352 -2.875 8.4375 C-2.70742187 7.23996094 -2.53984375 6.04242188 -2.3671875 4.80859375 C-2.24601563 3.88175781 -2.12484375 2.95492187 -2 2 C-3.27200971 3.10281127 -4.54255853 4.20730769 -5.8125 5.3125 C-6.52019531 5.92738281 -7.22789062 6.54226562 -7.95703125 7.17578125 C-9.70136739 8.73334335 -11.36778041 10.32658875 -13 12 C-11.61686527 6.29456923 -6.06093799 0 0 0 Z " fill="#557C90" transform="translate(256,56)"/>
<path d="M0 0 C1.134375 0.31710938 2.26875 0.63421875 3.4375 0.9609375 C7.96003145 2.09157036 12.35505777 2.43179616 17 2.625 C17.77472656 2.66367187 18.54945313 2.70234375 19.34765625 2.7421875 C21.23143415 2.83521357 23.11568256 2.91863175 25 3 C25 3.99 25 4.98 25 6 C26.98 6 28.96 6 31 6 C27.79860981 9.20139019 24.2778016 9.20812997 19.875 9.375 C12.51902927 9.3159159 6.84098648 6.5027738 1.375 1.6875 C0.92125 1.130625 0.4675 0.57375 0 0 Z " fill="#4B6B8F" transform="translate(165,47)"/>
<path d="M0 0 C0.33 1.65 0.66 3.3 1 5 C-5.34390467 7.79878147 -11.17362651 8.11769609 -18 8 C-17.67 6.35 -17.34 4.7 -17 3 C-17.66 2.67 -18.32 2.34 -19 2 C-16.95928485 1.66089006 -14.91737379 1.32897296 -12.875 1 C-11.73804688 0.814375 -10.60109375 0.62875 -9.4296875 0.4375 C-6.23862398 0.03043951 -3.21182209 -0.07809902 0 0 Z " fill="#4A4C56" transform="translate(236,138)"/>
<path d="M0 0 C1.07765625 0.00902344 2.1553125 0.01804688 3.265625 0.02734375 C4.08546875 0.03894531 4.9053125 0.05054688 5.75 0.0625 C3.16798111 1.48343973 1.95451088 2.06704469 -1.0625 2 C-5.04611277 2.07811005 -7.6679236 3.36915479 -11.25 5.0625 C-12.03761719 5.31644531 -12.82523438 5.57039063 -13.63671875 5.83203125 C-19.07099005 8.39076886 -23.41271692 13.79263385 -26.25 19.0625 C-27.28731611 23.46875719 -27.49733893 27.55220179 -27.25 32.0625 C-29.58944729 29.72305271 -29.56880066 29.18650261 -29.625 26 C-29.48073234 19.60069894 -26.84085221 14.79876581 -23.6875 9.375 C-16.94969846 2.98272675 -9.14322668 -0.0993829 0 0 Z " fill="#526F95" transform="translate(592.25,41.9375)"/>
<path d="M0 0 C1.47906892 -0.02689216 2.95827483 -0.04634621 4.4375 -0.0625 C5.26121094 -0.07410156 6.08492188 -0.08570312 6.93359375 -0.09765625 C9 0 9 0 10 1 C10.07313567 3.53049402 10.09247527 6.03304837 10.0625 8.5625 C10.05798828 9.27341797 10.05347656 9.98433594 10.04882812 10.71679688 C10.03700864 12.47790013 10.01907263 14.23896036 10 16 C3.48703643 12.26107647 3.48703643 12.26107647 2.125 8.734375 C1.80020908 7.16116896 1.51885765 5.57814306 1.2890625 3.98828125 C1.09613831 1.93071059 1.09613831 1.93071059 0 0 Z " fill="#061B39" transform="translate(278,70)"/>
<path d="M0 0 C0.33 0 0.66 0 1 0 C1 16.5 1 33 1 50 C-7.91 50 -16.82 50 -26 50 C-26 49.67 -26 49.34 -26 49 C-18.08 48.67 -10.16 48.34 -2 48 C-0.67884521 44.03653564 -0.8968947 40.26159305 -0.9375 36.1328125 C-0.94128662 35.26107391 -0.94507324 34.38933533 -0.94897461 33.49118042 C-0.96532143 29.76147746 -0.99341133 26.03188397 -1.02050781 22.30224609 C-1.03861443 19.57910673 -1.0506971 16.85598531 -1.0625 14.1328125 C-1.07079834 13.29307892 -1.07909668 12.45334534 -1.08764648 11.58816528 C-1.10436995 7.58467915 -1.00489499 3.90781505 0 0 Z " fill="#364D6B" transform="translate(393,76)"/>
<path d="M0 0 C7.92 0 15.84 0 24 0 C24 17.16 24 34.32 24 52 C23.67 52 23.34 52 23 52 C23 35.5 23 19 23 2 C17.06 2.495 17.06 2.495 11 3 C5.375 2.9375 5.375 2.9375 2.9609375 2.83984375 C0.76202811 2.8065052 0.76202811 2.8065052 -1 5 C-0.67 3.35 -0.34 1.7 0 0 Z " fill="#3D5777" transform="translate(452,42)"/>
<path d="M0 0 C9.9 0 19.8 0 30 0 C26.2311658 1.8844171 24.31987525 2.33429462 20.25 2.625 C19.26515625 2.69976563 18.2803125 2.77453125 17.265625 2.8515625 C16.51796875 2.90054687 15.7703125 2.94953125 15 3 C17.31 3.33 19.62 3.66 22 4 C20 6 20 6 17.3203125 6.265625 C16.26585937 6.26046875 15.21140625 6.2553125 14.125 6.25 C12.55105469 6.25773437 12.55105469 6.25773437 10.9453125 6.265625 C8.08400889 6.0075764 6.42723091 5.4774449 4 4 C4.33 3.67 4.66 3.34 5 3 C2.525 2.01 2.525 2.01 0 1 C0 0.67 0 0.34 0 0 Z " fill="#6EB4BD" transform="translate(250,27)"/>
<path d="M0 0 C-0.33 1.65 -0.66 3.3 -1 5 C-0.34 5.33 0.32 5.66 1 6 C-0.72343755 6.84511824 -2.45404053 7.67563354 -4.1875 8.5 C-5.15042969 8.9640625 -6.11335937 9.428125 -7.10546875 9.90625 C-9.98922693 10.99592921 -11.95354861 11.22277524 -15 11 C-15 8 -15 8 -14 5 C-11.6015625 3.61328125 -11.6015625 3.61328125 -8.625 2.3125 C-7.64789063 1.87550781 -6.67078125 1.43851563 -5.6640625 0.98828125 C-3 0 -3 0 0 0 Z " fill="#4D849F" transform="translate(222,36)"/>
<path d="M0 0 C1.65 0 3.3 0 5 0 C5.2475 0.598125 5.495 1.19625 5.75 1.8125 C7.16444091 4.28777159 8.72860188 5.33430804 11 7 C11 7.66 11 8.32 11 9 C6.38 10.65 1.76 12.3 -3 14 C-3.99 13.01 -4.98 12.02 -6 11 C-6.99 10.67 -7.98 10.34 -9 10 C-4.60748167 7.97944157 -0.84659077 6.59104765 4 6 C2.68 4.02 1.36 2.04 0 0 Z " fill="#A28757" transform="translate(330,77)"/>
<path d="M0 0 C0.99 0.66 1.98 1.32 3 2 C2.649375 2.928125 2.29875 3.85625 1.9375 4.8125 C0.67617372 7.9802953 0.67617372 7.9802953 2 11 C0.9375 12.5 0.9375 12.5 -1 14 C-4.6875 14.1875 -4.6875 14.1875 -8 14 C-8 11.69 -8 9.38 -8 7 C-7.34 7 -6.68 7 -6 7 C-5.34 5.68 -4.68 4.36 -4 3 C-3.01 3 -2.02 3 -1 3 C-0.67 2.01 -0.34 1.02 0 0 Z " fill="#0C2542" transform="translate(284,85)"/>
<path d="M0 0 C4.14524907 3.3883918 7.76906866 6.69209155 11 11 C11.66 11.66 12.32 12.32 13 13 C9.04 13 5.08 13 1 13 C-0.32229189 10.35541621 -0.09677194 8.32238699 -0.0625 5.375 C-0.05347656 4.37210937 -0.04445312 3.36921875 -0.03515625 2.3359375 C-0.02355469 1.56507812 -0.01195312 0.79421875 0 0 Z " fill="#1B3853" transform="translate(244,73)"/>
<path d="M0 0 C0 7.59 0 15.18 0 23 C-5.28 23 -10.56 23 -16 23 C-16 22.67 -16 22.34 -16 22 C-11.38 21.67 -6.76 21.34 -2 21 C-2 14.73 -2 8.46 -2 2 C-3.32 2.33 -4.64 2.66 -6 3 C-7.134375 3.12375 -8.26875 3.2475 -9.4375 3.375 C-12.99660257 3.99940396 -15.0658817 4.95500845 -18 7 C-18.33 5.68 -18.66 4.36 -19 3 C-13.02822245 -1.09493318 -7.06623415 -0.21631329 0 0 Z " fill="#3A5375" transform="translate(421,41)"/>
<path d="M0 0 C0.98484375 0.00902344 1.9696875 0.01804688 2.984375 0.02734375 C4.10585938 0.04474609 4.10585938 0.04474609 5.25 0.0625 C5.58 0.7225 5.91 1.3825 6.25 2.0625 C5.57453125 2.28164063 4.8990625 2.50078125 4.203125 2.7265625 C-1.85907925 4.88162355 -4.67129921 6.41821522 -7.75 12.0625 C-8.41 12.0625 -9.07 12.0625 -9.75 12.0625 C-9.75 8.4325 -9.75 4.8025 -9.75 1.0625 C-6.20011229 0.17502807 -3.60819222 -0.04295467 0 0 Z " fill="#0F3249" transform="translate(265.75,54.9375)"/>
<path d="M0 0 C0 0.33 0 0.66 0 1 C-4.00142045 1.07145394 -7.68159 1.04352 -11.65820312 0.5 C-15.77635435 -0.02428167 -19.85222254 -0.12911322 -24 -0.09765625 C-24.7211499 -0.0962413 -25.4422998 -0.09482635 -26.18530273 -0.09336853 C-28.45691324 -0.08783381 -30.72842 -0.07529423 -33 -0.0625 C-34.55338398 -0.05747654 -36.10676952 -0.05291512 -37.66015625 -0.04882812 C-41.44014328 -0.03788589 -45.22005414 -0.0206676 -49 0 C-49 -0.33 -49 -0.66 -49 -1 C-32.7855436 -4.75987395 -16.08720621 -3.82270247 0 0 Z " fill="#DDF9FB" transform="translate(291,36)"/>
<path d="M0 0 C3.91524387 0.39951468 6.90868528 0.95760388 10.5 2.625 C14.53259167 4.20923244 16.82842911 3.9364751 21 3 C21 4.32 21 5.64 21 7 C21.99 6.34 22.98 5.68 24 5 C26.6875 5.375 26.6875 5.375 29 6 C28.67 7.32 28.34 8.64 28 10 C18.12368152 9.0812727 8.65892524 5.75391974 0 1 C0 0.67 0 0.34 0 0 Z " fill="#98835E" transform="translate(224,103)"/>
<path d="M0 0 C5.94 0.99 5.94 0.99 12 2 C12 3.65 12 5.3 12 7 C8.92805092 8.53597454 6.39755707 8.2265038 3 8 C-0.4375 6.5 -0.4375 6.5 -3 5 C-2.01 3.35 -1.02 1.7 0 0 Z " fill="#456C90" transform="translate(328,45)"/>
<path d="M0 0 C4.5923392 1.92878247 7.22745807 5.3348093 10.125 9.3125 C10.125 9.6425 10.125 9.9725 10.125 10.3125 C7.485 10.3125 4.845 10.3125 2.125 10.3125 C1.0625 8.4375 1.0625 8.4375 0.125 6.3125 C0.455 5.6525 0.785 4.9925 1.125 4.3125 C-3.33 4.8075 -3.33 4.8075 -7.875 5.3125 C-3.81322844 0.41448135 -3.81322844 0.41448135 0 0 Z " fill="#031E35" transform="translate(275.875,57.6875)"/>
<path d="M0 0 C6.33707078 7.2876314 7.43365608 14.5212484 7.23828125 23.9609375 C7 27 7 27 6 30 C5.34 30 4.68 30 4 30 C2.79486699 26.12949982 3.28799897 23.15266597 3.94140625 19.21875 C4.01180213 16.55309287 3.27022254 15.31442683 2 13 C1.57592744 11.5131283 1.20108703 10.01138752 0.875 8.5 C0.70742188 7.7471875 0.53984375 6.994375 0.3671875 6.21875 C0 4 0 4 0 0 Z " fill="#192128" transform="translate(288,58)"/>
<path d="M0 0 C1.07314453 1.07701172 1.07314453 1.07701172 2.16796875 2.17578125 C3.99344808 3.99622478 5.82871155 5.80693519 7.67578125 7.60546875 C8.98095703 8.88357422 8.98095703 8.88357422 10.3125 10.1875 C11.19550781 11.04730469 12.07851562 11.90710938 12.98828125 12.79296875 C15 15 15 15 15 17 C11.60459566 15.86819855 10.84642148 14.89642801 8.625 12.1875 C5.97638061 9.05526857 3.33460467 6.42516704 0 4 C-0.09688221 9.44693314 -0.12862175 14.63904667 1 20 C3.64 20 6.28 20 9 20 C9 20.33 9 20.66 9 21 C6.69 21 4.38 21 2 21 C2.33 22.32 2.66 23.64 3 25 C-0.17432368 22.40282608 -1.09388894 19.9729485 -2 16 C-2.75028506 4.56198078 -2.75028506 4.56198078 0 0 Z " fill="#5F86A0" transform="translate(242,68)"/>
<path d="M0 0 C2.4375 1.6875 2.4375 1.6875 4 4 C3.75 7.25 3.75 7.25 3 10 C1.35 9.67 -0.3 9.34 -2 9 C-2 8.01 -2 7.02 -2 6 C-2.66 6 -3.32 6 -4 6 C-4 5.34 -4 4.68 -4 4 C-6.97 3.505 -6.97 3.505 -10 3 C-9.67 2.01 -9.34 1.02 -9 0 C-5.41563853 -1.19478716 -3.63093708 -0.96330984 0 0 Z " fill="#8C784D" transform="translate(214,121)"/>
<path d="M0 0 C4.44936709 -0.36075949 4.44936709 -0.36075949 6.8125 1.1875 C8.4519739 3.68985491 8.50188668 5.06037803 8 8 C6 10.3125 6 10.3125 4 12 C-1.19822672 10.63855967 -4.09543873 8.53269829 -8 5 C-7.67 4.34 -7.34 3.68 -7 3 C-6.45730469 3.42152344 -5.91460937 3.84304687 -5.35546875 4.27734375 C-4.64003906 4.82519531 -3.92460937 5.37304688 -3.1875 5.9375 C-2.47980469 6.48277344 -1.77210938 7.02804688 -1.04296875 7.58984375 C1.04125052 9.16856248 1.04125052 9.16856248 4 10 C4 8.68 4 7.36 4 6 C3.01 5.67 2.02 5.34 1 5 C0.34 4.34 -0.32 3.68 -1 3 C-0.67 2.01 -0.34 1.02 0 0 Z " fill="#385171" transform="translate(253,90)"/>
<path d="M0 0 C-1.56096761 3.83146596 -3.91411305 6.28148054 -7 9 C-9.1875 9.875 -9.1875 9.875 -11 10 C-11.66 9.67 -12.32 9.34 -13 9 C-13 7.02 -13 5.04 -13 3 C-11.58603098 2.49242138 -10.16868271 1.99425075 -8.75 1.5 C-7.96109375 1.2215625 -7.1721875 0.943125 -6.359375 0.65625 C-4 0 -4 0 0 0 Z " fill="#5697AB" transform="translate(234,32)"/>
<path d="M0 0 C0 0.99 0 1.98 0 3 C0.99 3.66 1.98 4.32 3 5 C0.0384304 6.4807848 -2.83506295 6.35314037 -6.125 6.5625 C-7.40632813 6.64628906 -8.68765625 6.73007813 -10.0078125 6.81640625 C-10.99523437 6.87699219 -11.98265625 6.93757813 -13 7 C-12.17578125 4.58203125 -12.17578125 4.58203125 -11 2 C-7.27031861 0.25948202 -4.08993061 -0.24058415 0 0 Z " fill="#1F3D57" transform="translate(277,62)"/>
<path d="M0 0 C2.64 0 5.28 0 8 0 C8 0.99 8 1.98 8 3 C8.99 3.66 9.98 4.32 11 5 C11.6875 7.625 11.6875 7.625 12 10 C7.31266455 9.71591906 4.79071085 7.48550729 1.35546875 4.5703125 C0 3 0 3 0 0 Z " fill="#08233F" transform="translate(245,90)"/>
<path d="M0 0 C1.32 0.33 2.64 0.66 4 1 C4 1.99 4 2.98 4 4 C3.34 4 2.68 4 2 4 C2 4.66 2 5.32 2 6 C-0.31 6.33 -2.62 6.66 -5 7 C-5 8.65 -5 10.3 -5 12 C-5.99 12 -6.98 12 -8 12 C-8 12.66 -8 13.32 -8 14 C-8.66 14 -9.32 14 -10 14 C-10.33 13.01 -10.66 12.02 -11 11 C-9.73965413 9.49117739 -8.46636351 7.99315956 -7.1875 6.5 C-6.47980469 5.6646875 -5.77210938 4.829375 -5.04296875 3.96875 C-3 2 -3 2 0 2 C0 1.34 0 0.68 0 0 Z " fill="#D7BD8F" transform="translate(314,77)"/>
<path d="M0 0 C2.4375 -0.375 2.4375 -0.375 5 0 C6.00419868 0.99578361 7.00365182 1.99636147 8 3 C10.03232242 4.19599068 10.03232242 4.19599068 12.1875 5.1875 C12.90292969 5.53167969 13.61835938 5.87585937 14.35546875 6.23046875 C14.89816406 6.48441406 15.44085938 6.73835938 16 7 C15.67 7.66 15.34 8.32 15 9 C13.33129513 8.67702486 11.66534667 8.33986667 10 8 C9.26394531 7.8659375 8.52789062 7.731875 7.76953125 7.59375 C6.97933594 7.4390625 6.18914062 7.284375 5.375 7.125 C4.61960937 6.98320313 3.86421875 6.84140625 3.0859375 6.6953125 C0.70591151 5.9019705 -0.38318398 4.88456899 -2 3 C-1.34 2.01 -0.68 1.02 0 0 Z " fill="#CBB470" transform="translate(291,50)"/>
<path d="M0 0 C1.22589844 0.29197266 1.22589844 0.29197266 2.4765625 0.58984375 C3.41628906 0.82380859 3.41628906 0.82380859 4.375 1.0625 C3.5625 3.5 3.5625 3.5 2.375 6.0625 C-1.26660808 7.27636936 -1.95665469 6.7299695 -5.3125 5.125 C-6.12074219 4.74472656 -6.92898438 4.36445312 -7.76171875 3.97265625 C-8.68404297 3.52212891 -8.68404297 3.52212891 -9.625 3.0625 C-6.21937074 -0.49793059 -4.83648007 -1.17457373 0 0 Z " fill="#5590A7" transform="translate(306.625,34.9375)"/>
<path d="M0 0 C-0.33 0.66 -0.66 1.32 -1 2 C-9.75418631 4.79416195 -22.65530432 7.69701233 -31.3984375 3.98046875 C-32.19121094 3.49513672 -32.19121094 3.49513672 -33 3 C-19.29609328 1.92216464 -19.29609328 1.92216464 -14.375 2.0625 C-9.22481214 1.96712615 -5.46709134 -0.21027274 0 0 Z " fill="#496A95" transform="translate(623,123)"/>
<path d="M0 0 C1 2 1 2 0.40625 4.4453125 C-1.40934406 7.74364171 -3.06733765 8.42063516 -6.5 9.875 C-7.4796875 10.30554688 -8.459375 10.73609375 -9.46875 11.1796875 C-12 12 -12 12 -14 11 C-13.04367001 9.70684939 -12.08486149 8.41553147 -11.125 7.125 C-10.59132813 6.40570313 -10.05765625 5.68640625 -9.5078125 4.9453125 C-8 3 -8 3 -6 1 C-6 1.66 -6 2.32 -6 3 C-4.02 2.01 -2.04 1.02 0 0 Z " fill="#C8B99A" transform="translate(299,90)"/>
<path d="M0 0 C2.31 1.98 4.62 3.96 7 6 C6.67 7.65 6.34 9.3 6 11 C7.98 11 9.96 11 12 11 C12 11.33 12 11.66 12 12 C5.375 12.25 5.375 12.25 2 10 C1.01 10.33 0.02 10.66 -1 11 C-4.1875 9.5625 -4.1875 9.5625 -7 8 C-6.67 7.34 -6.34 6.68 -6 6 C-4.02 6.66 -2.04 7.32 0 8 C0.66 6.68 1.32 5.36 2 4 C1.34 4 0.68 4 0 4 C0 2.68 0 1.36 0 0 Z " fill="#0F2241" transform="translate(244,93)"/>
<path d="M0 0 C0.33 0 0.66 0 1 0 C0.67 2.64 0.34 5.28 0 8 C-4.455 8.495 -4.455 8.495 -9 9 C-9.66 8.01 -10.32 7.02 -11 6 C-10.01 5.67 -9.02 5.34 -8 5 C-6.79117904 2.99983534 -6.79117904 2.99983534 -6 1 C-4 2 -4 2 -3 3 C-2.01 3 -1.02 3 0 3 C0 2.01 0 1.02 0 0 Z " fill="#182D48" transform="translate(272,91)"/>
<path d="M0 0 C7.70724072 2.69168277 14.25019171 6.43168869 21 11 C20.34 11.66 19.68 12.32 19 13 C17.68 12.34 16.36 11.68 15 11 C15 10.34 15 9.68 15 9 C11.12315913 7.80712589 8.08378077 7 4 7 C0 2.77777778 0 2.77777778 0 0 Z " fill="#C1B5A7" transform="translate(289,59)"/>
<path d="M0 0 C3.9609375 3.5234375 3.9609375 3.5234375 4.3125 7.8125 C4.12158104 11.58138176 3.6200602 15.2796388 3 19 C3.66 19.33 4.32 19.66 5 20 C4.01 20.99 3.02 21.98 2 23 C0.4375 21.1875 0.4375 21.1875 -1 19 C-0.505 17.515 -0.505 17.515 0 16 C0.07051114 13.26134713 0.09357765 10.54972412 0.0625 7.8125 C0.05573242 6.68811523 0.05573242 6.68811523 0.04882812 5.54101562 C0.03706354 3.69397617 0.01912865 1.84697787 0 0 Z " fill="#09223A" transform="translate(289,69)"/>
<path d="M0 0 C1.32 0 2.64 0 4 0 C4.33 2.64 4.66 5.28 5 8 C3.02 8.99 1.04 9.98 -1 11 C-2.23076923 4.6 -2.23076923 4.6 -1.0625 1.5625 C-0.711875 1.046875 -0.36125 0.53125 0 0 Z " fill="#746C53" transform="translate(201,126)"/>
<path d="M0 0 C0.66 0 1.32 0 2 0 C1.8125 2.25 1.8125 2.25 1 5 C0.154375 5.639375 -0.69125 6.27875 -1.5625 6.9375 C-4.36447292 8.82177395 -4.36447292 8.82177395 -4.3125 12.25 C-4.209375 13.1575 -4.10625 14.065 -4 15 C-5.32 14.34 -6.64 13.68 -8 13 C-8 8.43957226 -7.52301456 7.98745827 -4.5625 4.8125 C-3.60537109 3.77029297 -3.60537109 3.77029297 -2.62890625 2.70703125 C-1.76055558 1.79703306 -0.88941823 0.88941823 0 0 Z " fill="#0B2A42" transform="translate(252,58)"/>
<path d="M0 0 C2.4375 0.75 2.4375 0.75 4.4375 2.75 C3.7775 4.73 3.1175 6.71 2.4375 8.75 C-2.0175 6.77 -2.0175 6.77 -6.5625 4.75 C-5.30664198 0.98242594 -4.09480498 -0.39949317 0 0 Z " fill="#4F849E" transform="translate(313.5625,37.25)"/>
<path d="M0 0 C0 0.33 0 0.66 0 1 C-1.54107422 1.36351563 -1.54107422 1.36351563 -3.11328125 1.734375 C-10.54688836 3.52153317 -17.74284574 5.43053582 -24.86328125 8.265625 C-27 9 -27 9 -30 9 C-30 8.34 -30 7.68 -30 7 C-27.46083825 6.01388849 -24.9189977 5.03599124 -22.375 4.0625 C-21.66214844 3.78470703 -20.94929687 3.50691406 -20.21484375 3.22070312 C-13.37314042 0.61583443 -7.28652707 -0.12562978 0 0 Z " fill="#DAF5F9" transform="translate(246,28)"/>
<path d="M0 0 C-1.4375 2 -1.4375 2 -4 4 C-9.60206726 4.84746401 -15.44052895 3.80865033 -21 3 C-20.67 2.34 -20.34 1.68 -20 1 C-13.45984542 -0.23795783 -6.63272143 -0.10873314 0 0 Z " fill="#5FAFB9" transform="translate(285,28)"/>
<path d="M0 0 C0.66 0 1.32 0 2 0 C2.33 4.62 2.66 9.24 3 14 C6.96 14 10.92 14 15 14 C15.33 13.34 15.66 12.68 16 12 C16 12.99 16 13.98 16 15 C11.05 15 6.1 15 1 15 C-1.19471528 9.5132118 -1.88016491 5.64049474 0 0 Z " fill="#0A2440" transform="translate(242,72)"/>
<path d="M0 0 C2.0625 1.3125 2.0625 1.3125 3 3 C2.6875 5.1875 2.6875 5.1875 2 7 C0.5 5.625 0.5 5.625 -1 4 C-1 3.34 -1 2.68 -1 2 C-7.2049038 2.2757735 -11.10160999 3.10640794 -16 7 C-14.70989008 4.12206249 -13.42638194 2.03816083 -11 0 C-7.08106167 -1.30631278 -3.98737563 -0.93674313 0 0 Z " fill="#A7997E" transform="translate(215,119)"/>
<path d="M0 0 C0.76828125 -0.00386719 1.5365625 -0.00773437 2.328125 -0.01171875 C3.07320313 -0.01042969 3.81828125 -0.00914063 4.5859375 -0.0078125 C5.60373291 -0.00612061 5.60373291 -0.00612061 6.64208984 -0.00439453 C8.73735417 0.13233166 10.60729148 0.55729045 12.625 1.125 C12.625 1.785 12.625 2.445 12.625 3.125 C4.045 3.125 -4.535 3.125 -13.375 3.125 C-8.71968406 0.02145604 -5.47865723 -0.02730228 0 0 Z " fill="#343517" transform="translate(265.375,49.875)"/>
<path d="M0 0 C1.16144531 0.00902344 2.32289063 0.01804688 3.51953125 0.02734375 C4.39996094 0.03894531 5.28039062 0.05054688 6.1875 0.0625 C6.1875 0.3925 6.1875 0.7225 6.1875 1.0625 C5.48882812 1.11148438 4.79015625 1.16046875 4.0703125 1.2109375 C3.16023438 1.28570312 2.25015625 1.36046875 1.3125 1.4375 C0.40757812 1.50710937 -0.49734375 1.57671875 -1.4296875 1.6484375 C-3.99191903 1.85818132 -3.99191903 1.85818132 -5.8125 4.0625 C-0.5325 4.3925 4.7475 4.7225 10.1875 5.0625 C10.1875 5.3925 10.1875 5.7225 10.1875 6.0625 C4.2475 6.0625 -1.6925 6.0625 -7.8125 6.0625 C-8.1425 5.4025 -8.4725 4.7425 -8.8125 4.0625 C-9.8025 3.7325 -10.7925 3.4025 -11.8125 3.0625 C-11.8125 2.4025 -11.8125 1.7425 -11.8125 1.0625 C-7.81454108 0.10630267 -4.10446078 -0.0414592 0 0 Z " fill="#E0D09C" transform="translate(263.8125,43.9375)"/>
<path d="M0 0 C1.9375 0.125 1.9375 0.125 4 1 C5.3125 3.375 5.3125 3.375 6 6 C5.33333333 8 4.66666667 10 4 12 C0.92203555 9.5177706 0.05603723 8.25432283 -0.8125 4.3125 C-0.874375 3.219375 -0.93625 2.12625 -1 1 C-0.67 0.67 -0.34 0.34 0 0 Z " fill="#18334D" transform="translate(280,71)"/>
<path d="M0 0 C0.33 0 0.66 0 1 0 C0.67 2.97 0.34 5.94 0 9 C-0.99 9 -1.98 9 -3 9 C-3 10.65 -3 12.3 -3 14 C-3.99 14.33 -4.98 14.66 -6 15 C-6.7440423 9.04766161 -4.36965168 5.62912805 -1 1 C-0.67 0.67 -0.34 0.34 0 0 Z " fill="#0E1925" transform="translate(242,59)"/>
<path d="M0 0 C0 0.99 0 1.98 0 3 C-6.47871129 5.36096509 -12.59797835 5.23053565 -19.4375 5.125 C-20.55060547 5.11597656 -21.66371094 5.10695313 -22.81054688 5.09765625 C-25.54059023 5.0742224 -28.2701801 5.041414 -31 5 C-31 4.67 -31 4.34 -31 4 C-29.74445313 3.96261719 -28.48890625 3.92523438 -27.1953125 3.88671875 C-15.25103513 3.51659117 -15.25103513 3.51659117 -3.71484375 0.62109375 C-2 0 -2 0 0 0 Z " fill="#151319" transform="translate(287,102)"/>
<path d="M0 0 C0.99 0.99 1.98 1.98 3 3 C2 5 2 5 0.1875 5.875 C-2.38820998 7.19965085 -4.03454804 8.89415861 -6 11 C-6.66 10.67 -7.32 10.34 -8 10 C-7.45925627 6.21479387 -5.92427254 4.40822445 -3 2 C-2.01 2 -1.02 2 0 2 C0 1.34 0 0.68 0 0 Z " fill="#DFC899" transform="translate(312,74)"/>
<path d="M0 0 C2.5625 0.1875 2.5625 0.1875 4.5625 2.1875 C4.02678571 5.72321429 4.02678571 5.72321429 2.5625 7.1875 C0.0625 7.3125 0.0625 7.3125 -2.4375 7.1875 C-3.4375 6.1875 -3.4375 6.1875 -3.5625 3.6875 C-3.39599509 0.35740177 -3.31519894 0.2550153 0 0 Z " fill="#E5F5F8" transform="translate(258.4375,66.8125)"/>
<path d="M0 0 C1.8125 1.5 1.8125 1.5 2.5625 5.125 C2.68625 6.795625 2.68625 6.795625 2.8125 8.5 C-1.85855792 6.94298069 -5.27455685 4.41552627 -9.1875 1.5 C-8.1975 1.17 -7.2075 0.84 -6.1875 0.5 C-5.548125 0.273125 -4.90875 0.04625 -4.25 -0.1875 C-2.1875 -0.5 -2.1875 -0.5 0 0 Z " fill="#A18C63" transform="translate(221.1875,94.5)"/>
<path d="M0 0 C1.32 0 2.64 0 4 0 C3.84152588 0.51208008 3.68305176 1.02416016 3.51977539 1.55175781 C2.8357732 4.77353987 2.77804763 7.8794827 2.68359375 11.171875 C2.66281265 11.8542926 2.64203156 12.53671021 2.62062073 13.23980713 C2.55547948 15.40977356 2.49640596 17.57985624 2.4375 19.75 C2.39428103 21.22527221 2.35066568 22.70053287 2.30664062 24.17578125 C2.19983482 27.78373166 2.09846847 31.39181133 2 35 C1.67 35 1.34 35 1 35 C0.505 17.675 0.505 17.675 0 0 Z " fill="#3E597D" transform="translate(367,42)"/>
<path d="M0 0 C7.10993658 0.2410148 7.10993658 0.2410148 9.64453125 2.40234375 C11 4.0625 11 4.0625 13 7 C11.88625 6.67 10.7725 6.34 9.625 6 C5.75136049 4.86508653 5.75136049 4.86508653 2.0625 5.625 C0 6 0 6 -3 4 C-1.68 3.67 -0.36 3.34 1 3 C0.67 2.01 0.34 1.02 0 0 Z " fill="#DAD2C5" transform="translate(232,95)"/>
<path d="M0 0 C1.07765625 0.00902344 2.1553125 0.01804688 3.265625 0.02734375 C4.08546875 0.03894531 4.9053125 0.05054688 5.75 0.0625 C3.16798111 1.48343973 1.95451088 2.06704469 -1.0625 2 C-5.02550834 2.07770605 -7.67734186 3.4084916 -11.25 5.0625 C-14.88934426 6.24282787 -14.88934426 6.24282787 -17.25 5.0625 C-11.09887209 1.39548144 -7.26714163 -0.07899067 0 0 Z " fill="#486890" transform="translate(592.25,41.9375)"/>
<path d="M0 0 C0.99 0.33 1.98 0.66 3 1 C2.34 1 1.68 1 1 1 C1.33 2.65 1.66 4.3 2 6 C3.32 5.67 4.64 5.34 6 5 C6 7.31 6 9.62 6 12 C4.33388095 12.042721 2.66617115 12.04063832 1 12 C0 11 0 11 -0.09765625 8.49609375 C-0.08605469 7.48675781 -0.07445312 6.47742188 -0.0625 5.4375 C-0.05347656 4.42558594 -0.04445312 3.41367188 -0.03515625 2.37109375 C-0.02355469 1.58863281 -0.01195312 0.80617188 0 0 Z " fill="#987B4C" transform="translate(164,71)"/>
<path d="M0 0 C3.83325416 1.45399296 5.28279605 3.3080115 7 7 C7.1875 9.8125 7.1875 9.8125 7 12 C6.34 12 5.68 12 5 12 C3.45703125 10.13671875 3.45703125 10.13671875 1.8125 7.6875 C1.26207031 6.88699219 0.71164062 6.08648437 0.14453125 5.26171875 C-0.23316406 4.51535156 -0.61085938 3.76898438 -1 3 C-0.67 2.01 -0.34 1.02 0 0 Z " fill="#051A33" transform="translate(283,57)"/>
<path d="M0 0 C3 1 3 1 4.9375 3 C7.05674715 5.05502754 8.13747914 5.59106845 11 6 C11 6.66 11 7.32 11 8 C13.97 8.495 13.97 8.495 17 9 C17 9.99 17 10.98 17 12 C10.97046983 10.74384788 6.46739344 8.29280565 2 4 C0.76953125 1.8046875 0.76953125 1.8046875 0 0 Z " fill="#4D6A8E" transform="translate(566,79)"/>
<path d="M0 0 C0.66 0.33 1.32 0.66 2 1 C1.66226563 1.61746094 1.32453125 2.23492187 0.9765625 2.87109375 C-2.0269228 8.57424357 -3.87405577 13.65376889 -5 20 C-5.33 20 -5.66 20 -6 20 C-6 15.05 -6 10.1 -6 5 C-4.68 4.34 -3.36 3.68 -2 3 C-1.34 2.01 -0.68 1.02 0 0 Z " fill="#E1DAC9" transform="translate(239,60)"/>
<path d="M0 0 C2 2 2 2 2.22705078 4.06298828 C2.21657715 4.89040527 2.20610352 5.71782227 2.1953125 6.5703125 C2.18886719 7.46621094 2.18242187 8.36210938 2.17578125 9.28515625 C2.15902344 10.22230469 2.14226562 11.15945312 2.125 12.125 C2.11597656 13.06988281 2.10695313 14.01476562 2.09765625 14.98828125 C2.07404522 17.32577292 2.04111516 19.66276123 2 22 C1.34 22 0.68 22 0 22 C-1.07406039 14.75009239 -2.06459496 7.144154 0 0 Z " fill="#2F4F69" transform="translate(275,78)"/>
<path d="M0 0 C4.29 0 8.58 0 13 0 C10.19195732 2.96404505 7.81684226 5.44499019 4 7 C4 5.35 4 3.7 4 2 C2.68 1.34 1.36 0.68 0 0 Z " fill="#F7F1DC" transform="translate(262,114)"/>
<path d="M0 0 C1.65 1.32 3.3 2.64 5 4 C3.35 5.32 1.7 6.64 0 8 C-1.37562854 6.71034824 -2.70766393 5.37310707 -4 4 C-4 3.34 -4 2.68 -4 2 C-2.68 1.34 -1.36 0.68 0 0 Z " fill="#605E59" transform="translate(205,134)"/>
<path d="M0 0 C-1.98 0.99 -3.96 1.98 -6 3 C-6 3.33 -6 3.66 -6 4 C-10.61965088 4.95946595 -14.68129125 4.96102244 -19.375 4.5625 C-20.62023437 4.46066406 -21.86546875 4.35882813 -23.1484375 4.25390625 C-24.55996094 4.12822266 -24.55996094 4.12822266 -26 4 C-26 3.67 -26 3.34 -26 3 C-25.18917969 2.96261719 -24.37835938 2.92523438 -23.54296875 2.88671875 C-16.74766832 2.48327251 -10.6356466 1.59527227 -4.14453125 -0.4765625 C-2 -1 -2 -1 0 0 Z " fill="#BC9F71" transform="translate(198,70)"/>
<path d="M0 0 C-3.19668988 2.6486859 -6.39486597 4.93992341 -10 7 C-10.33 5.35 -10.66 3.7 -11 2 C-6.97107804 -0.96244261 -4.82799816 -1.2350693 0 0 Z " fill="#F9F2E1" transform="translate(226,65)"/>
<path d="M0 0 C-2.95769397 1.97179598 -4.16417962 2.36929854 -7.5625 2.75 C-8.34753906 2.84796875 -9.13257813 2.9459375 -9.94140625 3.046875 C-12 3 -12 3 -14 1 C-8.54264069 -2.54728355 -5.88238316 -1.92698759 0 0 Z " fill="#625A4C" transform="translate(236,61)"/>
<path d="M0 0 C2 2 2 2 2 5.875 C1.97808594 6.5865625 1.95617187 7.298125 1.93359375 8.03125 C2.01419077 10.42071447 2.81771953 11.95071385 4 14 C3.67 14.66 3.34 15.32 3 16 C2.01 16 1.02 16 0 16 C0 10.72 0 5.44 0 0 Z " fill="#635F5B" transform="translate(309,124)"/>
<path d="M0 0 C-0.33 0.99 -0.66 1.98 -1 3 C-0.01 3.66 0.98 4.32 2 5 C0.02 5.66 -1.96 6.32 -4 7 C-4.433125 6.525625 -4.86625 6.05125 -5.3125 5.5625 C-7.02309613 3.76313043 -7.02309613 3.76313043 -10 3 C-3.375 0 -3.375 0 0 0 Z " fill="#9E8A62" transform="translate(331,84)"/>
<path d="M0 0 C1.50433594 0.01353516 1.50433594 0.01353516 3.0390625 0.02734375 C3.80992187 0.03894531 4.58078125 0.05054688 5.375 0.0625 C5.705 0.7225 6.035 1.3825 6.375 2.0625 C3.21993858 2.99869813 0.40913498 3.1682123 -2.875 3.125 C-3.76703125 3.11597656 -4.6590625 3.10695312 -5.578125 3.09765625 C-6.25359375 3.08605469 -6.9290625 3.07445312 -7.625 3.0625 C-7.625 2.4025 -7.625 1.7425 -7.625 1.0625 C-4.98041621 -0.25979189 -2.94738699 -0.03427194 0 0 Z " fill="#09293E" transform="translate(265.625,54.9375)"/>
<path d="M0 0 C5.50798539 3.04697064 10.92728134 6.2616019 16 10 C16 10.33 16 10.66 16 11 C13.8125 11.3125 13.8125 11.3125 11 11 C9.29115995 9.37660195 7.62553283 7.70680947 6 6 C5.0925 5.649375 4.185 5.29875 3.25 4.9375 C2.5075 4.628125 1.765 4.31875 1 4 C0.1875 1.875 0.1875 1.875 0 0 Z " fill="#F6ECD9" transform="translate(202,89)"/>
<path d="M0 0 C0.66 0.33 1.32 0.66 2 1 C1.67 1.763125 1.34 2.52625 1 3.3125 C-0.17436686 5.99069135 -0.17436686 5.99069135 0 9 C0.99 9.33 1.98 9.66 3 10 C2.67 10.99 2.34 11.98 2 13 C-2.92307692 8.69230769 -2.92307692 8.69230769 -3.3125 5.1875 C-3.209375 4.465625 -3.10625 3.74375 -3 3 C-2.01 2.67 -1.02 2.34 0 2 C0 1.34 0 0.68 0 0 Z " fill="#24455C" transform="translate(252,67)"/>
<path d="M0 0 C0.33 0.99 0.66 1.98 1 3 C-0.82194812 5.57585768 -2.77124444 7.77124444 -5 10 C-5 7.36 -5 4.72 -5 2 C-5.66 1.67 -6.32 1.34 -7 1 C-3.375 -1.125 -3.375 -1.125 0 0 Z " fill="#13283D" transform="translate(247,58)"/>
<path d="M0 0 C0 0.99 0 1.98 0 3 C-0.99 3 -1.98 3 -3 3 C-3.33 4.32 -3.66 5.64 -4 7 C-6.31 6.67 -8.62 6.34 -11 6 C-8.7991151 3.52140092 -6.93627031 2.38789634 -3.8125 1.3125 C-3.09707031 1.06113281 -2.38164062 0.80976562 -1.64453125 0.55078125 C-1.10183594 0.36902344 -0.55914062 0.18726563 0 0 Z " fill="#322D1F" transform="translate(241,54)"/>
<path d="M0 0 C5.96564796 0.50771472 10.63809899 2.38592128 16 5 C16 5.66 16 6.32 16 7 C12.05050296 6.37183502 8.80107972 5.1354471 5.1875 3.4375 C3.72376953 2.75494141 3.72376953 2.75494141 2.23046875 2.05859375 C1.49441406 1.70925781 0.75835937 1.35992187 0 1 C0 0.67 0 0.34 0 0 Z " fill="#AC9775" transform="translate(224,103)"/>
<path d="M0 0 C4.23429756 1.31061591 8.07407404 2.94356259 12 5 C10.68 5.33 9.36 5.66 8 6 C8.66 7.32 9.32 8.64 10 10 C9.01 10 8.02 10 7 10 C5.5393715 7.35261084 5 6.10551666 5 3 C2.525 2.01 2.525 2.01 0 1 C0 0.67 0 0.34 0 0 Z " fill="#A69671" transform="translate(297,56)"/>
<path d="M0 0 C2.475 0.99 2.475 0.99 5 2 C3.50902342 5.7952131 1.24299151 7.61042731 -2 10 C-2 8.68 -2 7.36 -2 6 C-1.34 6 -0.68 6 0 6 C0 4.02 0 2.04 0 0 Z " fill="#8A7D63" transform="translate(324,114)"/>
<path d="M0 0 C1.32 0.33 2.64 0.66 4 1 C4 1.99 4 2.98 4 4 C3.34 4 2.68 4 2 4 C2 4.66 2 5.32 2 6 C0.02 6.33 -1.96 6.66 -4 7 C-4 6.34 -4 5.68 -4 5 C-3.34 5 -2.68 5 -2 5 C-1.34 3.35 -0.68 1.7 0 0 Z " fill="#D2B687" transform="translate(314,77)"/>
<path d="M0 0 C4.08378283 0.74250597 8.01939223 1.82923301 12 3 C11.34 3.66 10.68 4.32 10 5 C7.6171875 4.9765625 7.6171875 4.9765625 4.875 4.625 C3.96492187 4.51414062 3.05484375 4.40328125 2.1171875 4.2890625 C1.06917969 4.14597656 1.06917969 4.14597656 0 4 C0 2.68 0 1.36 0 0 Z " fill="#0E2242" transform="translate(250,100)"/>
<path d="M0 0 C1.16959987 0.97566112 2.33561177 1.955625 3.5 2.9375 C4.1496875 3.48277344 4.799375 4.02804688 5.46875 4.58984375 C6.22671875 5.28787109 6.22671875 5.28787109 7 6 C7 6.33 7 6.66 7 7 C4.69 7 2.38 7 0 7 C-0.66 5.68 -1.32 4.36 -2 3 C-1.34 3 -0.68 3 0 3 C0 2.01 0 1.02 0 0 Z " fill="#284763" transform="translate(250,79)"/>
<path d="M0 0 C10.24714829 8.57414449 10.24714829 8.57414449 14 13 C14 13.66 14 14.32 14 15 C10.62691239 13.87563746 9.84876903 12.92657267 7.625 10.25 C4.87465784 7.00331159 2.05347784 3.96094821 -1 1 C-0.67 0.67 -0.34 0.34 0 0 Z " fill="#456A7F" transform="translate(243,70)"/>
<path d="M0 0 C0.61875 0.165 1.2375 0.33 1.875 0.5 C3.96063386 1.07634644 3.96063386 1.07634644 6 1 C7.66965451 1.31802943 9.33678518 1.64984951 11 2 C7.09971775 4.60018816 3.52565431 4.15085514 -1 4 C-0.67 2.68 -0.34 1.36 0 0 Z " fill="#3E4349" transform="translate(219,142)"/>
<path d="M0 0 C0.66 0 1.32 0 2 0 C3.35091528 2.70183055 3.33858058 5.11808206 3.5625 8.125 C3.64628906 9.22070312 3.73007812 10.31640625 3.81640625 11.4453125 C3.87699219 12.28835937 3.93757813 13.13140625 4 14 C3.01 14.33 2.02 14.66 1 15 C0.67 10.05 0.34 5.1 0 0 Z " fill="#4A6890" transform="translate(504,110)"/>
<path d="M0 0 C3 3.625 3 3.625 3 7 C3.66 7 4.32 7 5 7 C5 7.66 5 8.32 5 9 C5.99 9.33 6.98 9.66 8 10 C8 10.66 8 11.32 8 12 C6.25 11.875 6.25 11.875 4 11 C1.54753864 8.00254723 0.088804 6.02124604 -0.25 2.125 C-0.1675 1.42375 -0.085 0.7225 0 0 Z " fill="#F8F0DE" transform="translate(320,103)"/>
<path d="M0 0 C-1.78174788 2.30142435 -3.16304165 3.80034391 -6.046875 4.48828125 C-8.0246611 4.72323102 -10.01271872 4.86751458 -12 5 C-11.67 4.01 -11.34 3.02 -11 2 C-9.00390625 1.015625 -9.00390625 1.015625 -6.5625 0.25 C-5.75941406 -0.01296875 -4.95632812 -0.2759375 -4.12890625 -0.546875 C-2 -1 -2 -1 0 0 Z " fill="#B8AB9A" transform="translate(239,61)"/>
<path d="M0 0 C1.625 2.5 1.625 2.5 3 5 C0.08517222 5.80967438 -1.46113217 6.21845993 -4.3125 5.0625 C-4.869375 4.711875 -5.42625 4.36125 -6 4 C-2.25 0 -2.25 0 0 0 Z " fill="#D2BA7A" transform="translate(280,46)"/>
<path d="M0 0 C0.66 0 1.32 0 2 0 C1.67 2.64 1.34 5.28 1 8 C-0.98 8.33 -2.96 8.66 -5 9 C-4.67 7.68 -4.34 6.36 -4 5 C-3.34 5 -2.68 5 -2 5 C-2 4.34 -2 3.68 -2 3 C-1.01 3 -0.02 3 1 3 C0.67 2.01 0.34 1.02 0 0 Z " fill="#22415C" transform="translate(271,86)"/>
<path d="M0 0 C0 0.33 0 0.66 0 1 C-3.96 1.66 -7.92 2.32 -12 3 C-11.67 1.68 -11.34 0.36 -11 -1 C-6.74938644 -2.41687119 -4.28148375 -1.19320039 0 0 Z " fill="#25485E" transform="translate(276,66)"/>
<path d="M0 0 C1.98 0.495 1.98 0.495 4 1 C4 1.99 4 2.98 4 4 C5.32 3.67 6.64 3.34 8 3 C8.33 3.99 8.66 4.98 9 6 C6.36 6 3.72 6 1 6 C-0.0625 4.125 -0.0625 4.125 -1 2 C-0.67 1.34 -0.34 0.68 0 0 Z " fill="#112C46" transform="translate(277,62)"/>
<path d="M0 0 C1.8125 0.0625 1.8125 0.0625 4 1 C5.75 4.5625 5.75 4.5625 7 8 C1.25 6.25 1.25 6.25 -1 4 C-0.625 1.875 -0.625 1.875 0 0 Z " fill="#362F25" transform="translate(298,58)"/>
<path d="M0 0 C0.598125 0.309375 1.19625 0.61875 1.8125 0.9375 C4.08956772 2.10209704 4.08956772 2.10209704 7 3 C6.67 3.66 6.34 4.32 6 5 C3.98177083 4.90234375 1.96354167 4.8046875 -0.0546875 4.70703125 C-1.01761719 4.85205078 -1.01761719 4.85205078 -2 5 C-2.66 5.99 -3.32 6.98 -4 8 C-3.50168276 4.31245243 -2.89932357 2.39509338 0 0 Z " fill="#8B7C5C" transform="translate(203,122)"/>
<path d="M0 0 C0.33 0 0.66 0 1 0 C1 5.28 1 10.56 1 16 C0.67 16 0.34 16 0 16 C-0.33 12.7 -0.66 9.4 -1 6 C-1.99 6.66 -2.98 7.32 -4 8 C-2.87548273 5.0280615 -1.77706209 2.66559313 0 0 Z " fill="#D4E8FA" transform="translate(504,111)"/>
<path d="M0 0 C2.31 0.66 4.62 1.32 7 2 C7.33 3.32 7.66 4.64 8 6 C7.01 6.33 6.02 6.66 5 7 C5 6.34 5 5.68 5 5 C2.69 4.01 0.38 3.02 -2 2 C-1.34 1.34 -0.68 0.68 0 0 Z " fill="#96815A" transform="translate(269,110)"/>
<path d="M0 0 C2.13533172 2.59953427 3.56459104 4.62558054 4 8 C3.67 8.99 3.34 9.98 3 11 C2.01 10.67 1.02 10.34 0 10 C-0.19412181 8.52168779 -0.38012131 7.04230684 -0.5625 5.5625 C-0.66691406 4.73878906 -0.77132812 3.91507813 -0.87890625 3.06640625 C-0.91886719 2.38449219 -0.95882812 1.70257813 -1 1 C-0.67 0.67 -0.34 0.34 0 0 Z " fill="#4D6D97" transform="translate(634,55)"/>
<path d="M0 0 C4.99911924 0.47610659 7.97832683 2.03162219 12 5 C9 6 9 6 6.9921875 5.29296875 C6.29351562 4.92816406 5.59484375 4.56335938 4.875 4.1875 C4.17117188 3.83042969 3.46734375 3.47335938 2.7421875 3.10546875 C1 2 1 2 0 0 Z " fill="#CCB77E" transform="translate(313,60)"/>
<path d="M0 0 C0.99 0 1.98 0 3 0 C3.33 1.32 3.66 2.64 4 4 C2.02 4.99 0.04 5.98 -2 7 C-2.125 4.625 -2.125 4.625 -2 2 C-1.34 1.34 -0.68 0.68 0 0 Z " fill="#6A6654" transform="translate(202,130)"/>
<path d="M0 0 C0.66 0 1.32 0 2 0 C2.33 0.99 2.66 1.98 3 3 C3.66 3.66 4.32 4.32 5 5 C4.34 5 3.68 5 3 5 C3 5.66 3 6.32 3 7 C1.02 6.34 -0.96 5.68 -3 5 C-3 4.01 -3 3.02 -3 2 C-2.01 1.67 -1.02 1.34 0 1 C0 0.67 0 0.34 0 0 Z " fill="#948A76" transform="translate(235,98)"/>
<path d="M0 0 C1.32 0.66 2.64 1.32 4 2 C2.7191375 5.64553172 1.83328987 7.16671013 -1 10 C-0.67 6.7 -0.34 3.4 0 0 Z " fill="#0D1520" transform="translate(288,89)"/>
<path d="M0 0 C0.66 0.33 1.32 0.66 2 1 C0.71451591 2.33929505 -0.57858155 3.67128643 -1.875 5 C-2.59429687 5.7425 -3.31359375 6.485 -4.0546875 7.25 C-6 9 -6 9 -8 9 C-6.29220059 5.01513471 -3.92814393 1.96407197 0 0 Z " fill="#F9F3E2" transform="translate(328,90)"/>
<path d="M0 0 C0.99 0.33 1.98 0.66 3 1 C1.63016497 4.16115776 1.0109362 4.9927092 -2 7 C-2.33 5.35 -2.66 3.7 -3 2 C-2.01 1.34 -1.02 0.68 0 0 Z " fill="#575149" transform="translate(322,81)"/>
<path d="M0 0 C0.78375 0.04125 1.5675 0.0825 2.375 0.125 C2.705 1.115 3.035 2.105 3.375 3.125 C0.72761084 4.5856285 -0.51948334 5.125 -3.625 5.125 C-3.955 4.135 -4.285 3.145 -4.625 2.125 C-2.625 0.125 -2.625 0.125 0 0 Z " fill="#D1BB78" transform="translate(293.625,49.875)"/>
<path d="M0 0 C1.875 0.3125 1.875 0.3125 4 1 C4.66 1.99 5.32 2.98 6 4 C3.69 4.66 1.38 5.32 -1 6 C-0.67 4.02 -0.34 2.04 0 0 Z " fill="#AE9169" transform="translate(342,80)"/>
<path d="M0 0 C3.94139078 1.66751148 6.7892812 4.22710649 10 7 C9.34 7.66 8.68 8.32 8 9 C3.71675909 6.48592381 1.35468295 4.87685861 0 0 Z " fill="#A69985" transform="translate(317,74)"/>
<path d="M0 0 C1.65 0 3.3 0 5 0 C5 1.66666667 5 3.33333333 5 5 C5.99 6.485 5.99 6.485 7 8 C3.64379729 6.61122646 1.92701272 5.08322035 0 2 C0 1.34 0 0.68 0 0 Z " fill="#345D74" transform="translate(272,71)"/>
<path d="M0 0 C5.445 1.485 5.445 1.485 11 3 C10.34 4.32 9.68 5.64 9 7 C7.4972763 6.02501855 5.99788037 5.04490611 4.5 4.0625 C3.6646875 3.51722656 2.829375 2.97195312 1.96875 2.41015625 C1.3190625 1.94480469 0.669375 1.47945312 0 1 C0 0.67 0 0.34 0 0 Z " fill="#495B70" transform="translate(165,47)"/>
<path d="M0 0 C0.99 0.99 1.98 1.98 3 3 C2.6875 6.1875 2.6875 6.1875 2 9 C1.01 9 0.02 9 -1 9 C-0.67 6.03 -0.34 3.06 0 0 Z " fill="#061425" transform="translate(237,79)"/>
<path d="M0 0 C4.10958767 1.45044271 7.43258745 3.51110752 11 6 C10.01 6 9.02 6 8 6 C6.66018514 6.3062434 5.32488113 6.63451555 4 7 C3.896875 6.401875 3.79375 5.80375 3.6875 5.1875 C2.91123545 2.71756736 1.92911079 1.67748765 0 0 Z " fill="#A2937D" transform="translate(306,67)"/>
<path d="M0 0 C2.9375 0.8125 2.9375 0.8125 6 2 C6.33 2.99 6.66 3.98 7 5 C5.125 5.625 5.125 5.625 3 6 C0.8614515 3.8614515 0.57344937 2.86724686 0 0 Z " fill="#E6DDC9" transform="translate(305,62)"/>
<path d="M0 0 C1.98 0.495 1.98 0.495 4 1 C4 1.99 4 2.98 4 4 C4.66 4.33 5.32 4.66 6 5 C1.25 6.125 1.25 6.125 -1 5 C-0.67 3.35 -0.34 1.7 0 0 Z " fill="#221E11" transform="translate(294,56)"/>
<path d="M0 0 C0.99 0 1.98 0 3 0 C3 0.66 3 1.32 3 2 C4.98 2 6.96 2 9 2 C6.23776722 4.76223278 3.79293383 4.57856291 0 5 C-0.5625 3.0625 -0.5625 3.0625 -1 1 C-0.67 0.67 -0.34 0.34 0 0 Z " fill="#3F6288" transform="translate(187,51)"/>
<path d="M0 0 C4.29 0 8.58 0 13 0 C9 3 9 3 6.89453125 3.14453125 C4.9179679 2.82931946 2.95757875 2.41718891 1 2 C0.67 1.34 0.34 0.68 0 0 Z " fill="#4C627F" transform="translate(408,41)"/>
<path d="M0 0 C0.8125 1.625 0.8125 1.625 1 4 C-0.46818136 6.24609835 -2.15852858 8.02378677 -4 10 C-5 7 -5 7 -4.0625 4.8125 C-3.711875 4.214375 -3.36125 3.61625 -3 3 C-2.34 3 -1.68 3 -1 3 C-0.67 2.01 -0.34 1.02 0 0 Z " fill="#726951" transform="translate(321,121)"/>
<path d="M0 0 C3.375 0.25 3.375 0.25 7 1 C8.4375 3.0625 8.4375 3.0625 9 5 C7.68 5 6.36 5 5 5 C5 4.34 5 3.68 5 3 C2.03 2.505 2.03 2.505 -1 2 C-0.67 1.34 -0.34 0.68 0 0 Z " fill="#826D44" transform="translate(205,122)"/>
<path d="M0 0 C2 2 2 2 2 6 C3.65 6.33 5.3 6.66 7 7 C6.67 7.66 6.34 8.32 6 9 C4.35 9 2.7 9 1 9 C-0.4783226 6.04335481 -0.06032783 3.25770263 0 0 Z " fill="#7D6E54" transform="translate(309,117)"/>
<path d="M0 0 C-0.33 0.99 -0.66 1.98 -1 3 C-3.06640625 3.94921875 -3.06640625 3.94921875 -5.5625 4.6875 C-6.38878906 4.93886719 -7.21507812 5.19023438 -8.06640625 5.44921875 C-8.70449219 5.63097656 -9.34257812 5.81273438 -10 6 C-6.56548857 1.21621622 -6.56548857 1.21621622 -3.875 0.1875 C-2 0 -2 0 0 0 Z " fill="#CECCC6" transform="translate(295,96)"/>
<path d="M0 0 C0.66 0.33 1.32 0.66 2 1 C2 1.66 2 2.32 2 3 C2.99 3.66 3.98 4.32 5 5 C5.33 5.99 5.66 6.98 6 8 C2.59679258 6.98823563 1.24274669 6.35156418 -0.8125 3.375 C-1.204375 2.59125 -1.59625 1.8075 -2 1 C-1.34 0.67 -0.68 0.34 0 0 Z " fill="#142845" transform="translate(251,90)"/>
<path d="M0 0 C-0.80847729 1.16945792 -1.62189112 2.33550461 -2.4375 3.5 C-2.88996094 4.1496875 -3.34242188 4.799375 -3.80859375 5.46875 C-4.20175781 5.9740625 -4.59492188 6.479375 -5 7 C-5.33 7 -5.66 7 -6 7 C-6 4.69 -6 2.38 -6 0 C-3.50907189 -1.24546405 -2.58919267 -0.7767578 0 0 Z " fill="#1E3C55" transform="translate(263,60)"/>
<path d="M0 0 C-3.96 1.98 -7.92 3.96 -12 6 C-11.67 5.01 -11.34 4.02 -11 3 C-9.35 2.67 -7.7 2.34 -6 2 C-6 1.34 -6 0.68 -6 0 C-4 -1 -4 -1 0 0 Z " fill="#FAF0DB" transform="translate(215,60)"/>
<path d="M0 0 C-4.18586481 3.18923033 -6.70558305 4.50423019 -12 4 C-9.94577945 1.94577945 -8.66990976 1.31862408 -6 0.3125 C-5.29875 0.04050781 -4.5975 -0.23148438 -3.875 -0.51171875 C-2 -1 -2 -1 0 0 Z " fill="#D5C08B" transform="translate(236,51)"/>
<path d="M0 0 C1 3 1 3 0 6 C-1.65 5.67 -3.3 5.34 -5 5 C-5 4.34 -5 3.68 -5 3 C-2.5 1.375 -2.5 1.375 0 0 Z " fill="#7C7151" transform="translate(217,125)"/>
<path d="M0 0 C0.99 0.33 1.98 0.66 3 1 C3 1.66 3 2.32 3 3 C3.66 3.33 4.32 3.66 5 4 C4.01 4.99 3.02 5.98 2 7 C0.4375 5.1875 0.4375 5.1875 -1 3 C-0.67 2.01 -0.34 1.02 0 0 Z " fill="#112230" transform="translate(289,85)"/>
<path d="M0 0 C0.33 1.32 0.66 2.64 1 4 C-0.32 4.99 -1.64 5.98 -3 7 C-3 6.01 -3 5.02 -3 4 C-3.99 3.67 -4.98 3.34 -6 3 C-2.25 0 -2.25 0 0 0 Z " fill="#352B25" transform="translate(319,84)"/>
<path d="M0 0 C0.33 0.66 0.66 1.32 1 2 C1.99 2.33 2.98 2.66 4 3 C4 3.33 4 3.66 4 4 C-0.455 4.495 -0.455 4.495 -5 5 C-3.35 3.35 -1.7 1.7 0 0 Z " fill="#102F44" transform="translate(273,58)"/>
<path d="M0 0 C0.66 0 1.32 0 2 0 C1.67 1.65 1.34 3.3 1 5 C-0.98 5.33 -2.96 5.66 -5 6 C-3.38405168 3.95880212 -1.7143618 1.95927063 0 0 Z " fill="#04273A" transform="translate(252,58)"/>
<path d="M0 0 C-2.41805039 2.41805039 -4.92917103 3.52856112 -8 5 C-8.99 5.495 -8.99 5.495 -10 6 C-9.67 4.35 -9.34 2.7 -9 1 C-5.92677456 0.08941469 -3.19902639 -0.08886184 0 0 Z " fill="#0A263B" transform="translate(258,54)"/>
<path d="M0 0 C1.89213369 2.38573379 3.02391783 4.07175348 4 7 C2.125 7.625 2.125 7.625 0 8 C-0.66 7.34 -1.32 6.68 -2 6 C-1.34 4.02 -0.68 2.04 0 0 Z " fill="#CEBDA7" transform="translate(236,89)"/>
<path d="M0 0 C0 0.66 0 1.32 0 2 C-0.99 2 -1.98 2 -3 2 C-3 2.66 -3 3.32 -3 4 C-4.98 4.99 -4.98 4.99 -7 6 C-7.99 4.68 -8.98 3.36 -10 2 C-8.7090864 1.66376204 -7.41723903 1.33110751 -6.125 1 C-5.40570313 0.814375 -4.68640625 0.62875 -3.9453125 0.4375 C-2 0 -2 0 0 0 Z " fill="#385B78" transform="translate(272,87)"/>
<path d="M0 0 C1.61949011 2.57213134 2.04408751 3.67669159 1.625 6.75 C1.41875 7.4925 1.2125 8.235 1 9 C-1.50037734 6.82575883 -2.43628586 5.26954202 -3 2 C-2.01 2 -1.02 2 0 2 C0 1.34 0 0.68 0 0 Z " fill="#191B26" transform="translate(239,86)"/>
<path d="M0 0 C0.33 0.66 0.66 1.32 1 2 C1.99 2 2.98 2 4 2 C3.34 3.32 2.68 4.64 2 6 C0.35 5.67 -1.3 5.34 -3 5 C-2.01 4.67 -1.02 4.34 0 4 C-0.33 3.01 -0.66 2.02 -1 1 C-0.67 0.67 -0.34 0.34 0 0 Z " fill="#DCC49D" transform="translate(228,86)"/>
<path d="M0 0 C0 0.66 0 1.32 0 2 C-2.31 3.32 -4.62 4.64 -7 6 C-7.66 5.34 -8.32 4.68 -9 4 C-2.25 0 -2.25 0 0 0 Z " fill="#887A58" transform="translate(288,115)"/>
<path d="M0 0 C2.3125 -0.1875 2.3125 -0.1875 5 0 C5.99 0.99 6.98 1.98 8 3 C5.03 3 2.06 3 -1 3 C-0.67 2.01 -0.34 1.02 0 0 Z " fill="#7B6F58" transform="translate(238,103)"/>
<path d="M0 0 C0.66 0 1.32 0 2 0 C2 2.64 2 5.28 2 8 C1.01 7.34 0.02 6.68 -1 6 C-1.25 3.4375 -1.25 3.4375 -1 1 C-0.67 0.67 -0.34 0.34 0 0 Z " fill="#AA8F60" transform="translate(318,100)"/>
<path d="M0 0 C0.99 0 1.98 0 3 0 C3 1.65 3 3.3 3 5 C1.02 5.99 1.02 5.99 -1 7 C-1 5.68 -1 4.36 -1 3 C-0.34 3 0.32 3 1 3 C0.67 2.01 0.34 1.02 0 0 Z " fill="#233E5C" transform="translate(258,93)"/>
<path d="M0 0 C3.465 1.98 3.465 1.98 7 4 C7 4.66 7 5.32 7 6 C3.62537285 5.45276317 1.91765 4.9451 -1 3 C-0.67 2.01 -0.34 1.02 0 0 Z " fill="#061835" transform="translate(250,94)"/>
<path d="M0 0 C0.99 0 1.98 0 3 0 C2.34 3.96 1.68 7.92 1 12 C0.67 12 0.34 12 0 12 C0 8.04 0 4.08 0 0 Z " fill="#ECE5CF" transform="translate(233,68)"/>
<path d="M0 0 C0.33 0 0.66 0 1 0 C1 1.98 1 3.96 1 6 C1.66 6 2.32 6 3 6 C2.67 7.65 2.34 9.3 2 11 C1.34 10.67 0.68 10.34 0 10 C-1.29411765 2.58823529 -1.29411765 2.58823529 0 0 Z " fill="#EFE5CB" transform="translate(295,66)"/>
<path d="M0 0 C1.98 0.495 1.98 0.495 4 1 C3.67 2.65 3.34 4.3 3 6 C1.68 6 0.36 6 -1 6 C-0.67 5.01 -0.34 4.02 0 3 C0.66 3 1.32 3 2 3 C2 2.34 2 1.68 2 1 C1.34 0.67 0.68 0.34 0 0 Z " fill="#44474C" transform="translate(233,138)"/>
<path d="M0 0 C0.99 0.66 1.98 1.32 3 2 C5.32387947 2.39387788 7.65793749 2.73486085 10 3 C10 3.33 10 3.66 10 4 C8.37536158 4.05395478 6.75021459 4.09277195 5.125 4.125 C4.22007812 4.14820312 3.31515625 4.17140625 2.3828125 4.1953125 C0 4 0 4 -2 2 C-1.34 1.34 -0.68 0.68 0 0 Z " fill="#1C1D25" transform="translate(246,102)"/>
<path d="M0 0 C4.455 0.99 4.455 0.99 9 2 C8.67 2.99 8.34 3.98 8 5 C4.5625 4.1875 4.5625 4.1875 1 3 C0.67 2.01 0.34 1.02 0 0 Z " fill="#464644" transform="translate(237,99)"/>
<path d="M0 0 C0.33 0.99 0.66 1.98 1 3 C-0.3125 4.5 -0.3125 4.5 -2 6 C-2.99 6 -3.98 6 -5 6 C-3.63016497 2.83884224 -3.0109362 2.0072908 0 0 Z " fill="#2D4663" transform="translate(285,93)"/>
<path d="M0 0 C0.66 0.33 1.32 0.66 2 1 C1.67 1.598125 1.34 2.19625 1 2.8125 C-0.20787988 5.05386471 -0.20787988 5.05386471 0 8 C-2 6.625 -2 6.625 -4 5 C-4 4.34 -4 3.68 -4 3 C-2 1.375 -2 1.375 0 0 Z " fill="#C6B7A5" transform="translate(210,75)"/>
<path d="M0 0 C0.66 0 1.32 0 2 0 C2.33 2.97 2.66 5.94 3 9 C0 7 0 7 -0.75 3.9375 C-0.8325 2.968125 -0.915 1.99875 -1 1 C-0.67 0.67 -0.34 0.34 0 0 Z " fill="#0D2543" transform="translate(285,77)"/>
<path d="M0 0 C3.37503669 1.1858237 5.64722731 2.27573689 8 5 C7.01 5.495 7.01 5.495 6 6 C3.875 5.0625 3.875 5.0625 2 4 C2 3.34 2 2.68 2 2 C1.34 2 0.68 2 0 2 C0 1.34 0 0.68 0 0 Z " fill="#CBB99E" transform="translate(302,66)"/>
<path d="M0 0 C0.99 0.33 1.98 0.66 3 1 C3 1.99 3 2.98 3 4 C4.98 4 6.96 4 9 4 C9 4.33 9 4.66 9 5 C5.6875 5.25 5.6875 5.25 2 5 C0.0625 3 0.0625 3 -1 1 C-0.67 0.67 -0.34 0.34 0 0 Z " fill="#0D1830" transform="translate(247,100)"/>
<path d="M0 0 C1.32 0.66 2.64 1.32 4 2 C3.67 2.66 3.34 3.32 3 4 C1.02 4 -0.96 4 -3 4 C-2.01 2.68 -1.02 1.36 0 0 Z " fill="#051E3D" transform="translate(260,98)"/>
<path d="M0 0 C0 0.33 0 0.66 0 1 C-7.42857143 3.42857143 -7.42857143 3.42857143 -11 2 C-6.97107804 -0.96244261 -4.82799816 -1.2350693 0 0 Z " fill="#E6DFCB" transform="translate(226,65)"/>
<path d="M0 0 C2.475 0.495 2.475 0.495 5 1 C4.67 2.32 4.34 3.64 4 5 C2.68 4.67 1.36 4.34 0 4 C0 2.66666667 0 1.33333333 0 0 Z " fill="#12110D" transform="translate(289,55)"/>
<path d="M0 0 C0 0.66 0 1.32 0 2 C-4.15267176 5.11450382 -4.15267176 5.11450382 -7.3125 4.6875 C-7.869375 4.460625 -8.42625 4.23375 -9 4 C-2.25 0 -2.25 0 0 0 Z " fill="#D5BE8F" transform="translate(224,55)"/>
<path d="M0 0 C0 0.99 0 1.98 0 3 C-0.99 3.33 -1.98 3.66 -3 4 C-3 3.34 -3 2.68 -3 2 C-5.31 2 -7.62 2 -10 2 C-10 1.67 -10 1.34 -10 1 C-6.7 0.67 -3.4 0.34 0 0 Z " fill="#5F7FA7" transform="translate(608,108)"/>
<path d="M0 0 C0.66 1.32 1.32 2.64 2 4 C0.02 6.97 0.02 6.97 -2 10 C-3.39195915 5.82412255 -1.82323219 3.86525224 0 0 Z " fill="#506E8E" transform="translate(503,93)"/>
<path d="M0 0 C1.98 0.99 3.96 1.98 6 3 C5.34 3.66 4.68 4.32 4 5 C2.68 5 1.36 5 0 5 C0 3.35 0 1.7 0 0 Z " fill="#F1E9DC" transform="translate(227,94)"/>
<path d="M0 0 C1.52299523 2.93720508 2.80100302 5.9168649 4 9 C3.01 9.33 2.02 9.66 1 10 C-0.04005702 6.61981469 -0.08004482 3.5219721 0 0 Z " fill="#0C263F" transform="translate(240,84)"/>
<path d="M0 0 C0.99 0.99 1.98 1.98 3 3 C2.01 5.31 1.02 7.62 0 10 C-1.231394 6.30581799 -0.64432764 3.7943739 0 0 Z " fill="#22425C" transform="translate(277,80)"/>
<path d="M0 0 C2.0625 0.4375 2.0625 0.4375 4 1 C2.515 4.465 2.515 4.465 1 8 C0.67 8 0.34 8 0 8 C-0.38063221 5.6739143 -0.71269945 3.33944736 -1 1 C-0.67 0.67 -0.34 0.34 0 0 Z " fill="#1C3A54" transform="translate(280,71)"/>
<path d="M0 0 C3.3 0 6.6 0 10 0 C6.71299843 1.64350079 4.52069985 2.41321669 1 3 C0.67 2.01 0.34 1.02 0 0 Z " fill="#486587" transform="translate(175,52)"/>
</svg>
